<?xml version="1.0" encoding="iso-8859-1"?>
<!-- Generator: Adobe Illustrator 18.0.0, SVG Export Plug-In . SVG Version: 6.00 Build 0)  -->
<!DOCTYPE svg PUBLIC "-//W3C//DTD SVG 1.1//EN" "http://www.w3.org/Graphics/SVG/1.1/DTD/svg11.dtd">
<svg version="1.1" id="Capa_1" xmlns="http://www.w3.org/2000/svg" xmlns:xlink="http://www.w3.org/1999/xlink" x="0px" y="0px"
	 viewBox="0 0 451.667 451.667" style="enable-background:new 0 0 451.667 451.667;" xml:space="preserve">
<g>
	<path d="M127.079,300.275l-2.306-46.702c-0.145-2.932-2.557-5.229-5.493-5.229h-7.975c-2.936,0-5.349,2.297-5.493,5.229
		l-2.307,46.705c-4.622,3.551-7.62,9.116-7.62,15.383c0,10.702,8.707,19.409,19.408,19.409c10.702,0,19.409-8.707,19.409-19.409
		C134.702,309.392,131.703,303.825,127.079,300.275z M110.806,253.819c0.013-0.267,0.232-0.475,0.499-0.475h7.975
		c0.267,0,0.486,0.208,0.499,0.476l0.945,19.136h-10.863L110.806,253.819z M109.614,277.955h11.357l0.963,19.49
		c-2.075-0.759-4.305-1.195-6.639-1.195c-2.336,0-4.566,0.436-6.642,1.196L109.614,277.955z M115.293,330.069
		c-7.945,0-14.408-6.464-14.408-14.409s6.463-14.409,14.408-14.409s14.409,6.464,14.409,14.409S123.238,330.069,115.293,330.069z"/>
	<path d="M175.178,109.553h-2.502V97.645h6.163v3.428h5V89.214h-5v3.431h-6.163V82.85h13.317v3.84h5v-8.84h-32.794v5h1.727v26.703
		h-2.361v5h17.613V109.553z M167.676,109.553h-2.75V82.85h2.75V109.553z"/>
	<path d="M234.288,225.799c-28.572,0-51.816,23.245-51.816,51.816s23.245,51.817,51.816,51.817
		c28.571,0,51.816-23.245,51.816-51.817S262.859,225.799,234.288,225.799z M234.288,324.432c-25.814,0-46.816-21.002-46.816-46.817
		c0-25.814,21.002-46.816,46.816-46.816s46.816,21.002,46.816,46.816C281.104,303.43,260.102,324.432,234.288,324.432z"/>
	<path d="M234.288,206.937c-38.972,0-70.679,31.707-70.679,70.679s31.707,70.679,70.679,70.679
		c38.973,0,70.679-31.707,70.679-70.679S273.26,206.937,234.288,206.937z M234.288,343.294c-36.215,0-65.679-29.463-65.679-65.679
		s29.463-65.679,65.679-65.679c36.216,0,65.679,29.463,65.679,65.679S270.503,343.294,234.288,343.294z"/>
	<path d="M234.288,197.576c-44.134,0-80.04,35.905-80.04,80.039s35.906,80.04,80.04,80.04s80.039-35.906,80.039-80.04
		S278.421,197.576,234.288,197.576z M234.288,352.655c-41.377,0-75.04-33.663-75.04-75.04c0-41.376,33.663-75.039,75.04-75.039
		s75.039,33.663,75.039,75.039C309.327,318.992,275.665,352.655,234.288,352.655z"/>
	<path d="M250.553,239.115c-5.153-2.18-10.626-3.285-16.266-3.285c-1.381,0-2.5,1.119-2.5,2.5s1.119,2.5,2.5,2.5
		c4.967,0,9.784,0.972,14.318,2.89c0.317,0.134,0.647,0.198,0.973,0.198c0.974,0,1.9-0.573,2.304-1.527
		C252.42,241.119,251.825,239.653,250.553,239.115z"/>
	<path d="M261.091,248.787c-1.002,0.95-1.045,2.532-0.095,3.534c6.498,6.858,10.076,15.841,10.076,25.294
		c0,12.24-6.063,23.644-16.22,30.505c-1.145,0.773-1.445,2.327-0.672,3.471c0.482,0.715,1.271,1.101,2.073,1.101
		c0.481,0,0.969-0.139,1.397-0.429c11.534-7.793,18.421-20.746,18.421-34.648c0-10.738-4.065-20.942-11.447-28.733
		C263.675,247.88,262.092,247.837,261.091,248.787z"/>
	<path d="M441.417,172.256c-1.921,0-3.714,0.541-5.253,1.465v-11.325h-21.837v-21.783h-60.032v21.783H329.08v-20.09
		c0-5.113-1.603-9.992-4.633-14.111l-36.67-49.813c-4.468-6.068-11.634-9.691-19.169-9.691H151.465
		c-3.881,0-7.038,3.157-7.038,7.038v11.28h-6.977V73.622h-35.294v13.386h-7.75v14.159h4.932v27.476h7.045v11.909h-7.045h-7.715v5
		h7.715v16.844H92.36v-10.571h-8.105v-9.946l-4.167-16.121H33.405l-4.167,16.121v9.946h-8.102v10.571H15.5v11.323
		c-1.538-0.922-3.33-1.463-5.25-1.463c-5.651,0-10.25,4.598-10.25,10.25c0,5.652,4.598,10.25,10.25,10.25
		c1.92,0,3.712-0.541,5.25-1.463v191.684h420.664v-16.208v-19.795V191.29c1.539,0.924,3.332,1.465,5.253,1.465
		c5.652,0,10.25-4.598,10.25-10.25C451.667,176.854,447.069,172.256,441.417,172.256z M10.25,187.755c-2.895,0-5.25-2.355-5.25-5.25
		c0-2.895,2.355-5.25,5.25-5.25c2.895,0,5.25,2.355,5.25,5.25C15.5,185.4,13.145,187.755,10.25,187.755z M412.917,194.872h3.698
		c-0.161,1.538-0.243,3.112-0.243,4.683c0,1.718,0.099,3.438,0.292,5.112h-3.747V194.872z M149.427,75.729
		c0-1.124,0.914-2.038,2.038-2.038h117.143c5.952,0,11.613,2.862,15.142,7.655l36.67,49.813c2.395,3.253,3.66,7.108,3.66,11.147
		v27.207c0,1.124-0.914,2.038-2.038,2.038H151.465c-1.124,0-2.038-0.914-2.038-2.038V75.729z M234.288,367.911
		c-49.79,0-90.296-40.506-90.296-90.296c0-49.789,40.506-90.295,90.296-90.295c49.789,0,90.296,40.506,90.296,90.295
		C324.583,327.405,284.077,367.911,234.288,367.911z M328.368,292.806c0.109-0.002,0.216-0.012,0.326-0.012
		c7.555,0,13.7,6.151,13.7,13.711c0,7.554-6.146,13.7-13.7,13.7c-2.886,0-5.615-0.885-7.942-2.552
		C324.367,309.878,326.963,301.539,328.368,292.806z M316.333,326.036v41.875h-51.562
		C286.539,360.543,304.799,345.506,316.333,326.036z M203.803,367.911h-48.035v-36.362
		C167.335,348.338,184.137,361.254,203.803,367.911z M43.745,346.973V209.667h107.022v7.988c-2.283-1.833-5.175-2.937-8.324-2.937
		c-7.347,0-13.324,5.977-13.324,13.324s5.977,13.324,13.324,13.324c1.38,0,2.712-0.211,3.964-0.603
		c-4.774,11.342-7.416,23.793-7.416,36.851c0,16.608,4.275,32.236,11.776,45.846v23.512H43.745z M150.768,351.973v9.795H43.745
		v-9.795H150.768z M43.745,204.667v-9.795h107.022v9.795H43.745z M150.768,228.043c0,4.59-3.734,8.324-8.324,8.324
		s-8.324-3.734-8.324-8.324s3.734-8.324,8.324-8.324S150.768,223.453,150.768,228.043z M316.333,229.195
		c-16.609-28.035-47.166-46.875-82.046-46.875c-32.541,0-61.32,16.399-78.52,41.362v-47.131h160.566V229.195z M107.156,78.622
		h25.294v8.386h-25.294V78.622z M104.337,123.643V96.167h-4.932v-4.159h2.75h35.294h6.977v70.387H129.7v-16.844h7.716v-5H129.7
		h-18.317v-16.909H104.337z M104.337,145.552H124.7v16.84h-20.363V145.552z M144.427,167.396v2.117c0,3.646,2.786,6.651,6.341,7.003
		v13.356H43.745v-22.477H144.427z M37.277,130.757h38.938l1.622,6.272H35.656L37.277,130.757z M34.238,142.514l0.125-0.484H79.13
		l0.125,0.484v9.311H34.238V142.514z M26.136,156.824H87.36v5.568H26.136V156.824z M38.745,377.976H20.5v-11.208h18.246V377.976z
		 M38.745,361.768H20.5v-9.795h18.246V361.768z M38.745,346.973H20.5V209.667h18.246V346.973z M38.745,204.667H20.5v-9.795h18.246
		V204.667z M38.745,189.872H20.5v-22.477h18.246V189.872z M407.917,377.976H43.745v-11.208h107.022v6.143h170.566v-6.143h86.584
		V377.976z M407.917,361.768h-86.584v-9.795h86.584V361.768z M407.917,346.973h-86.584v-23.271c2.299,0.988,4.785,1.502,7.36,1.502
		c10.312,0,18.7-8.389,18.7-18.7c0-10.201-8.205-18.508-18.357-18.694c0.358-3.351,0.546-6.751,0.546-10.196
		c0-13.798-2.951-26.917-8.25-38.768v-29.181h86.584V346.973z M407.917,204.667h-86.584v-9.795h86.584V204.667z M407.917,189.872
		h-86.584v-13.321h0.708c3.881,0,7.038-3.157,7.038-7.038v-2.117h78.838V189.872z M409.327,162.392h-50.032v-6.272h50.032V162.392z
		 M409.327,151.12h-50.032v-5.507h50.032V151.12z M431.164,377.976h-18.246v-11.208h18.246V377.976z M431.164,361.768h-18.246
		v-9.795h18.246V361.768z M431.164,346.973h-18.246V209.667h4.649c1.51,5.921,4.44,10.353,8.702,10.353
		c1.9,0,3.533-0.885,4.896-2.386V346.973z M426.268,215.02c-1.726,0-4.896-5.872-4.896-15.465c0-9.594,3.17-15.465,4.896-15.465
		s4.896,5.872,4.896,15.465C431.164,209.148,427.994,215.02,426.268,215.02z M431.164,181.476c-1.363-1.501-2.996-2.386-4.896-2.386
		c-4.364,0-7.328,4.649-8.805,10.783h-4.545v-22.477h18.246V181.476z M441.417,187.755c-2.895,0-5.249-2.355-5.249-5.25
		c0-2.895,2.354-5.25,5.249-5.25s5.25,2.355,5.25,5.25C446.667,185.4,444.311,187.755,441.417,187.755z"/>
	<path d="M211.391,165.983h50.725c1.381,0,2.5-1.119,2.5-2.5s-1.119-2.5-2.5-2.5h-50.725c-1.381,0-2.5,1.119-2.5,2.5
		S210.01,165.983,211.391,165.983z"/>
</g>
<g>
</g>
<g>
</g>
<g>
</g>
<g>
</g>
<g>
</g>
<g>
</g>
<g>
</g>
<g>
</g>
<g>
</g>
<g>
</g>
<g>
</g>
<g>
</g>
<g>
</g>
<g>
</g>
<g>
</g>
</svg>
