<?xml version="1.0" encoding="iso-8859-1"?>
<!-- Generator: Adobe Illustrator 19.0.0, SVG Export Plug-In . SVG Version: 6.00 Build 0)  -->
<svg version="1.1" id="Layer_1" xmlns="http://www.w3.org/2000/svg" xmlns:xlink="http://www.w3.org/1999/xlink" x="0px" y="0px"
	 viewBox="0 0 490 490" style="enable-background:new 0 0 490 490;" xml:space="preserve">
<g>
	<g id="XMLID_39_">
		<g>
			<rect x="10" y="355" style="fill:#AFB6BB;" width="470" height="80"/>
			<rect x="10" y="55" style="fill:#CA3C30;" width="470" height="300"/>
		</g>
		<path style="fill:#231F20;" d="M480,45H10C4.477,45,0,49.477,0,55v380c0,5.523,4.477,10,10,10h470c5.522,0,10-4.477,10-10V55
			C490,49.477,485.522,45,480,45z M470,65v280H20V65H470z M20,425v-60h450v60H20z"/>
	</g>
	<g>
		<path style="fill:#E7ECED;" d="M410,95c13.8,0,25,11.2,25,25s-11.2,25-25,25s-25-11.2-25-25S396.2,95,410,95z"/>
		<path style="fill:#E7ECED;" d="M245,110c49.7,0,90,40.3,90,90s-40.3,90-90,90s-90-40.3-90-90S195.3,110,245,110z"/>
		<path style="fill:#E7ECED;" d="M80,265c13.8,0,25,11.2,25,25s-11.2,25-25,25s-25-11.2-25-25S66.2,265,80,265z"/>
	</g>
	<polygon style="fill:#231F20;" points="450,385 120,385 120,375 100,375 100,385 40,385 40,405 100,405 100,415 120,415 120,405 
		450,405 	"/>
	<g id="XMLID_35_">
		<g>
			<polygon style="fill:#546A79;" points="295,200 215,235 215,165 			"/>
		</g>
		<g>
			<g>
				<path style="fill:#231F20;" d="M215,245c-1.916,0-3.822-0.55-5.474-1.631C206.702,241.522,205,238.375,205,235v-70
					c0-3.375,1.702-6.522,4.526-8.369c2.825-1.848,6.391-2.146,9.482-0.792l80,35c3.641,1.592,5.992,5.188,5.992,9.162
					s-2.352,7.569-5.992,9.162l-80,35C217.725,244.723,216.36,245,215,245z M225,180.29v39.42L270.051,200L225,180.29z"/>
			</g>
		</g>
	</g>
	<path style="fill:#231F20;" d="M410,85c-19.299,0-35,15.701-35,35c0,15.824,10.56,29.223,25,33.537V190h-55.499
		c-5.033-50.462-47.736-90-99.501-90c-53.464,0-97.261,42.174-99.875,95H80c-5.523,0-10,4.477-10,10v51.463
		C55.56,260.777,45,274.176,45,290c0,19.299,15.701,35,35,35s35-15.701,35-35c0-15.824-10.56-29.223-25-33.537V215h56.125
		c7.259,48.05,48.832,85,98.875,85c51.766,0,94.468-39.538,99.501-90H410c5.522,0,10-4.477,10-10v-46.463
		c14.44-4.314,25-17.712,25-33.537C445,100.701,429.299,85,410,85z M95,290c0,8.271-6.729,15-15,15s-15-6.729-15-15s6.729-15,15-15
		S95,281.729,95,290z M245,280c-44.112,0-80-35.888-80-80s35.888-80,80-80s80,35.888,80,80S289.112,280,245,280z M410,135
		c-8.271,0-15-6.729-15-15s6.729-15,15-15s15,6.729,15,15S418.271,135,410,135z"/>
</g>
<g>
</g>
<g>
</g>
<g>
</g>
<g>
</g>
<g>
</g>
<g>
</g>
<g>
</g>
<g>
</g>
<g>
</g>
<g>
</g>
<g>
</g>
<g>
</g>
<g>
</g>
<g>
</g>
<g>
</g>
</svg>
