<?xml version="1.0" encoding="utf-8"?>
<!-- Generator: Adobe Illustrator 16.0.0, SVG Export Plug-In . SVG Version: 6.00 Build 0)  -->
<!DOCTYPE svg PUBLIC "-//W3C//DTD SVG 1.1//EN" "http://www.w3.org/Graphics/SVG/1.1/DTD/svg11.dtd">
<svg version="1.1" id="Layer_1" xmlns="http://www.w3.org/2000/svg" xmlns:xlink="http://www.w3.org/1999/xlink" x="0px" y="0px"
	 width="512px" height="512px" viewBox="0 0 512 512" enable-background="new 0 0 512 512" xml:space="preserve">
<g>
	<g>
		<path fill="#E6E6E6" d="M52,192c0,0,140-36,152-40s44,0,44,44c-8,0-12,0-16,0c0-12-4-28-20-28c-16,4-68,24-68,24H52z"/>
		<g>
			<path fill="#D9D9D9" d="M200,168c-16,4-68,24-68,24h12c0,0,43.564-16.752,63.204-22.656C205.116,168.5,202.752,168,200,168z"/>
			<path fill="#D9D9D9" d="M206.416,151.364C220.024,153.8,236,164.908,236,196c2.996,0,6.572,0,12,0
				C248,154.688,219.792,148.64,206.416,151.364z"/>
		</g>
		<path fill="#E6E6E6" d="M460,192c0,0-140-36-152-40s-44,0-44,44c8,0,12,0,16,0c0-12,4-28,20-28c16,4,68,24,68,24H460z"/>
		<g>
			<path fill="#D9D9D9" d="M284,168c-14.96,0-19.42,13.988-19.943,25.616C264.032,194.408,264,195.18,264,196c8,0,12,0,16,0
				c0-9.396,2.48-21.208,11.229-25.912C288.4,169.204,285.928,168.484,284,168z"/>
			<path fill="#D9D9D9" d="M308,152c-3.968-1.324-10.124-1.756-16.584-0.172c0.191,0.06,0.4,0.112,0.584,0.172c12,4,152,40,152,40
				h16C460,192,320,156,308,152z"/>
		</g>
		<path fill="#F5F5F5" d="M56,192c-13.2,0-24,10.8-24,24v100c0,13.2,10.8,24,24,24h127.664c13.2,0,28.736-9.708,34.512-21.58
			c0,0,14.824-34.42,37.824-34.42s37.824,34.42,37.824,34.42C299.6,330.292,315.136,340,328.336,340H456c13.2,0,24-10.8,24-24V216
			c0-13.2-10.8-24-24-24H56z"/>
		<g>
			<path fill="#E6E6E6" d="M244,284c-23,0-37.824,34.42-37.824,34.42C200.4,330.292,184.864,340,171.664,340h12
				c13.2,0,28.736-9.708,34.512-21.58c0,0,12.292-28.412,31.824-33.556C248.064,284.364,246.08,284,244,284z"/>
			<path fill="#E6E6E6" d="M456,192h-12c13.2,0,24,10.8,24,24v100c0,13.2-10.8,24-24,24h12c13.2,0,24-10.8,24-24V216
				C480,202.8,469.2,192,456,192z"/>
		</g>
		<path fill="#CC584C" d="M448,212H300c-8.8,0-16,7.2-16,16v42.42c19.684,13.096,30.328,36.508,31.868,40.084l0.64,1.492H448
			c8.8,0,16-7.2,16-16v-68C464,219.2,456.8,212,448,212z"/>
		<path fill="#2995CC" d="M196.132,310.508c1.54-3.58,12.184-26.984,31.868-40.084V228c0-8.8-7.2-16-16-16H64c-8.8,0-16,7.2-16,16
			v68c0,8.8,7.2,16,16,16h131.492L196.132,310.508z"/>
		<g>
			<polygon fill="#52A3CC" points="105.72,212 48,269.721 48,292.34 128.34,212 			"/>
			<path fill="#52A3CC" d="M162.28,212h-11.312l-96.644,96.644c2.304,1.769,5.084,2.896,8.12,3.2L162.28,212z"/>
		</g>
		<g>
			<polygon fill="#CC827A" points="414.968,212 316.048,310.92 316.508,312 326.279,312 426.28,212 			"/>
			<path fill="#CC827A" d="M369.721,212l-71.277,71.264c3.869,4.381,7.097,8.864,9.697,12.932L392.34,212H369.721z"/>
		</g>
	</g>
</g>
</svg>
