<?xml version="1.0" encoding="iso-8859-1"?>
<!-- Generator: Adobe Illustrator 19.0.0, SVG Export Plug-In . SVG Version: 6.00 Build 0)  -->
<svg version="1.1" id="Layer_1" xmlns="http://www.w3.org/2000/svg" xmlns:xlink="http://www.w3.org/1999/xlink" x="0px" y="0px"
	 viewBox="0 0 436.193 436.193" style="enable-background:new 0 0 436.193 436.193;" xml:space="preserve">
<g>
	<rect x="65.666" y="90.571" style="fill:#EDE5C0;" width="356.72" height="318.315"/>
	<rect x="308.363" y="180.943" style="fill:#CEC59F;" width="101.994" height="227.943"/>
	<rect x="314.818" y="187.117" style="fill:#EDE5C0;" width="89.369" height="152.148"/>
	<rect x="319.907" y="193.427" style="fill:#CEC59F;" width="79.188" height="139.527"/>
	<rect x="324.697" y="197.946" style="fill:#2D4151;" width="69.607" height="130.489"/>
	<rect x="314.428" y="344.625" style="fill:#EDE5C0;" width="89.368" height="58.072"/>
	<rect x="319.517" y="349.51" style="fill:#CEC59F;" width="79.188" height="48.299"/>
	<rect x="325.517" y="355.51" style="fill:#EDE5C0;" width="67.188" height="36.299"/>
	<path style="opacity:0.2;fill:#FCFAFA;enable-background:new    ;" d="M390,233.523v91h-52.057
		C337.943,324.523,383.623,309.909,390,233.523z"/>
	<path style="fill:#F9C032;" d="M78.5,335.85c-24.536,0-49.071-9.339-67.75-28.019l4.242-4.242
		c16.978,16.978,39.532,26.328,63.508,26.328s46.53-9.35,63.508-26.328l4.242,4.242C127.571,326.51,103.036,335.85,78.5,335.85z"/>
	<path style="fill:#F9C032;" d="M209.758,335.85c-24.535,0-49.071-9.339-67.75-28.019l4.242-4.242
		c16.978,16.978,39.532,26.328,63.509,26.328c23.976,0,46.53-9.35,63.508-26.328l4.242,4.242
		C258.83,326.51,234.294,335.85,209.758,335.85z"/>
	<g>
		<path style="fill:#2D4151;" d="M283,285.273v123.61h-14.5v-123.61c0-4.004,3.246-7.25,7.25-7.25l0,0
			C279.754,278.023,283,281.269,283,285.273z"/>
		<polygon style="fill:#F93030;" points="283,287.633 283,303.913 268.5,318.413 268.5,302.133 		"/>
		<polygon style="fill:#F93030;" points="283,329.383 283,345.663 268.5,360.163 268.5,343.883 		"/>
		<polygon style="fill:#F93030;" points="283,371.133 283,387.413 268.5,401.913 268.5,385.633 		"/>
	</g>
	<g>
		<path style="fill:#2D4151;" d="M151.5,285.273v123.61H137v-123.61c0-4.004,3.246-7.25,7.25-7.25l0,0
			C148.254,278.023,151.5,281.269,151.5,285.273z"/>
		<polygon style="fill:#F93030;" points="151.5,287.633 151.5,303.913 137,318.413 137,302.133 		"/>
		<polygon style="fill:#F93030;" points="151.5,329.383 151.5,345.663 137,360.163 137,343.883 		"/>
		<polygon style="fill:#F93030;" points="151.5,371.133 151.5,387.413 137,401.913 137,385.633 		"/>
	</g>
	<g>
		<path style="fill:#2D4151;" d="M20,285.273v123.61H5.5v-123.61c0-4.004,3.246-7.25,7.25-7.25l0,0
			C16.754,278.023,20,281.269,20,285.273z"/>
		<polygon style="fill:#F93030;" points="20,287.633 20,303.913 5.5,318.413 5.5,302.133 		"/>
		<polygon style="fill:#F93030;" points="20,329.383 20,345.663 5.5,360.163 5.5,343.883 		"/>
		<polygon style="fill:#F93030;" points="20,371.133 20,387.413 5.5,401.913 5.5,385.633 		"/>
	</g>
	<rect y="285.273" style="fill:#F9C032;" width="25.5" height="11.25"/>
	<rect x="263" y="285.273" style="fill:#F9C032;" width="25.5" height="11.25"/>
	<rect x="131.5" y="285.273" style="fill:#F9C032;" width="25.5" height="11.25"/>
	<g>
		<path style="fill:#CEC59F;" d="M110.259,167.523H84.408c-2.434,0-4.408-1.973-4.408-4.408v-8.518c0-2.434,1.973-4.408,4.408-4.408
			h25.852c2.434,0,4.408,1.973,4.408,4.408v8.518C114.667,165.55,112.693,167.523,110.259,167.523z"/>
		<path style="fill:#CEC59F;" d="M270.259,167.523h-25.852c-2.434,0-4.408-1.973-4.408-4.408v-8.518
			c0-2.434,1.973-4.408,4.408-4.408h25.852c2.434,0,4.408,1.973,4.408,4.408v8.518C274.667,165.55,272.693,167.523,270.259,167.523z
			"/>
		<path style="fill:#CEC59F;" d="M230.259,167.523h-25.852c-2.434,0-4.408-1.973-4.408-4.408v-8.518
			c0-2.434,1.973-4.408,4.408-4.408h25.852c2.434,0,4.408,1.973,4.408,4.408v8.518C234.667,165.55,232.693,167.523,230.259,167.523z
			"/>
		<path style="fill:#CEC59F;" d="M190.259,167.523h-25.852c-2.434,0-4.408-1.973-4.408-4.408v-8.518
			c0-2.434,1.973-4.408,4.408-4.408h25.852c2.434,0,4.408,1.973,4.408,4.408v8.518C194.667,165.55,192.693,167.523,190.259,167.523z
			"/>
		<path style="fill:#CEC59F;" d="M150.259,167.523h-25.852c-2.434,0-4.408-1.973-4.408-4.408v-8.518
			c0-2.434,1.973-4.408,4.408-4.408h25.852c2.434,0,4.408,1.973,4.408,4.408v8.518C154.667,165.55,152.693,167.523,150.259,167.523z
			"/>
	</g>
	<g>
		<path style="fill:#CEC59F;" d="M237.592,121.523H211.74c-2.434,0-4.408-1.973-4.408-4.408v-8.518c0-2.434,1.973-4.408,4.408-4.408
			h25.852c2.434,0,4.408,1.973,4.408,4.408v8.518C242,119.55,240.027,121.523,237.592,121.523z"/>
		<path style="fill:#CEC59F;" d="M397.592,121.523H371.74c-2.434,0-4.408-1.973-4.408-4.408v-8.518c0-2.434,1.973-4.408,4.408-4.408
			h25.852c2.434,0,4.408,1.973,4.408,4.408v8.518C402,119.55,400.027,121.523,397.592,121.523z"/>
		<path style="fill:#CEC59F;" d="M357.592,121.523H331.74c-2.434,0-4.408-1.973-4.408-4.408v-8.518c0-2.434,1.973-4.408,4.408-4.408
			h25.852c2.434,0,4.408,1.973,4.408,4.408v8.518C362,119.55,360.027,121.523,357.592,121.523z"/>
		<path style="fill:#CEC59F;" d="M317.592,121.523H291.74c-2.434,0-4.408-1.973-4.408-4.408v-8.518c0-2.434,1.973-4.408,4.408-4.408
			h25.852c2.434,0,4.408,1.973,4.408,4.408v8.518C322,119.55,320.027,121.523,317.592,121.523z"/>
		<path style="fill:#CEC59F;" d="M277.592,121.523H251.74c-2.434,0-4.408-1.973-4.408-4.408v-8.518c0-2.434,1.973-4.408,4.408-4.408
			h25.852c2.434,0,4.408,1.973,4.408,4.408v8.518C282,119.55,280.027,121.523,277.592,121.523z"/>
	</g>
	<g>
		<path style="fill:#CEC59F;" d="M110,121.523H84.148c-2.434,0-4.408-1.973-4.408-4.408v-8.518c0-2.434,1.973-4.408,4.408-4.408H110
			c2.434,0,4.408,1.973,4.408,4.408v8.518C114.408,119.55,112.434,121.523,110,121.523z"/>
		<path style="fill:#CEC59F;" d="M150,121.523h-25.852c-2.434,0-4.408-1.973-4.408-4.408v-8.518c0-2.434,1.973-4.408,4.408-4.408
			H150c2.434,0,4.408,1.973,4.408,4.408v8.518C154.408,119.55,152.434,121.523,150,121.523z"/>
	</g>
	<g>
		<path style="fill:#CEC59F;" d="M215.185,402.857h-25.852c-2.434,0-4.408-1.973-4.408-4.408v-8.518
			c0-2.434,1.973-4.408,4.408-4.408h25.852c2.434,0,4.408,1.973,4.408,4.408v8.518C219.592,400.883,217.619,402.857,215.185,402.857
			z"/>
		<path style="fill:#CEC59F;" d="M255.185,402.857h-25.852c-2.434,0-4.408-1.973-4.408-4.408v-8.518
			c0-2.434,1.973-4.408,4.408-4.408h25.852c2.434,0,4.408,1.973,4.408,4.408v8.518C259.592,400.883,257.619,402.857,255.185,402.857
			z"/>
	</g>
	<g>
		<path style="fill:#CEC59F;" d="M197.592,379.782H171.74c-2.434,0-4.408-1.973-4.408-4.408v-8.518c0-2.434,1.973-4.408,4.408-4.408
			h25.852c2.434,0,4.408,1.973,4.408,4.408v8.518C202,377.809,200.027,379.782,197.592,379.782z"/>
		<path style="fill:#CEC59F;" d="M237.592,379.782H211.74c-2.434,0-4.408-1.973-4.408-4.408v-8.518c0-2.434,1.973-4.408,4.408-4.408
			h25.852c2.434,0,4.408,1.973,4.408,4.408v8.518C242,377.809,240.027,379.782,237.592,379.782z"/>
	</g>
	<g>
		<path style="fill:#CEC59F;" d="M110.259,212.19H84.408c-2.434,0-4.408-1.973-4.408-4.408v-8.518c0-2.434,1.973-4.408,4.408-4.408
			h25.852c2.434,0,4.408,1.973,4.408,4.408v8.518C114.667,210.217,112.693,212.19,110.259,212.19z"/>
		<path style="fill:#CEC59F;" d="M270.259,212.19h-25.852c-2.434,0-4.408-1.973-4.408-4.408v-8.518c0-2.434,1.973-4.408,4.408-4.408
			h25.852c2.434,0,4.408,1.973,4.408,4.408v8.518C274.667,210.217,272.693,212.19,270.259,212.19z"/>
		<path style="fill:#CEC59F;" d="M230.259,212.19h-25.852c-2.434,0-4.408-1.973-4.408-4.408v-8.518c0-2.434,1.973-4.408,4.408-4.408
			h25.852c2.434,0,4.408,1.973,4.408,4.408v8.518C234.667,210.217,232.693,212.19,230.259,212.19z"/>
		<path style="fill:#CEC59F;" d="M190.259,212.19h-25.852c-2.434,0-4.408-1.973-4.408-4.408v-8.518c0-2.434,1.973-4.408,4.408-4.408
			h25.852c2.434,0,4.408,1.973,4.408,4.408v8.518C194.667,210.217,192.693,212.19,190.259,212.19z"/>
		<path style="fill:#CEC59F;" d="M150.259,212.19h-25.852c-2.434,0-4.408-1.973-4.408-4.408v-8.518c0-2.434,1.973-4.408,4.408-4.408
			h25.852c2.434,0,4.408,1.973,4.408,4.408v8.518C154.667,210.217,152.693,212.19,150.259,212.19z"/>
	</g>
	<g>
		<path style="fill:#CEC59F;" d="M126.926,188.857h-25.852c-2.434,0-4.408-1.973-4.408-4.408v-8.518
			c0-2.434,1.973-4.408,4.408-4.408h25.852c2.434,0,4.408,1.973,4.408,4.408v8.518C131.333,186.883,129.36,188.857,126.926,188.857z
			"/>
		<path style="fill:#CEC59F;" d="M246.926,188.857h-25.852c-2.434,0-4.408-1.973-4.408-4.408v-8.518
			c0-2.434,1.973-4.408,4.408-4.408h25.852c2.434,0,4.408,1.973,4.408,4.408v8.518C251.333,186.883,249.36,188.857,246.926,188.857z
			"/>
		<path style="fill:#CEC59F;" d="M206.926,188.857h-25.852c-2.434,0-4.408-1.973-4.408-4.408v-8.518
			c0-2.434,1.973-4.408,4.408-4.408h25.852c2.434,0,4.408,1.973,4.408,4.408v8.518C211.333,186.883,209.36,188.857,206.926,188.857z
			"/>
		<path style="fill:#CEC59F;" d="M166.926,188.857h-25.852c-2.434,0-4.408-1.973-4.408-4.408v-8.518
			c0-2.434,1.973-4.408,4.408-4.408h25.852c2.434,0,4.408,1.973,4.408,4.408v8.518C171.333,186.883,169.36,188.857,166.926,188.857z
			"/>
	</g>
	<g>
		<path style="fill:#CEC59F;" d="M257.592,144.523H231.74c-2.434,0-4.408-1.973-4.408-4.408v-8.518c0-2.434,1.973-4.408,4.408-4.408
			h25.852c2.434,0,4.408,1.973,4.408,4.408v8.518C262,142.55,260.027,144.523,257.592,144.523z"/>
		<path style="fill:#CEC59F;" d="M377.592,144.523H351.74c-2.434,0-4.408-1.973-4.408-4.408v-8.518c0-2.434,1.973-4.408,4.408-4.408
			h25.852c2.434,0,4.408,1.973,4.408,4.408v8.518C382,142.55,380.027,144.523,377.592,144.523z"/>
		<path style="fill:#CEC59F;" d="M337.592,144.523H311.74c-2.434,0-4.408-1.973-4.408-4.408v-8.518c0-2.434,1.973-4.408,4.408-4.408
			h25.852c2.434,0,4.408,1.973,4.408,4.408v8.518C342,142.55,340.027,144.523,337.592,144.523z"/>
		<path style="fill:#CEC59F;" d="M297.592,144.523H271.74c-2.434,0-4.408-1.973-4.408-4.408v-8.518c0-2.434,1.973-4.408,4.408-4.408
			h25.852c2.434,0,4.408,1.973,4.408,4.408v8.518C302,142.55,300.027,144.523,297.592,144.523z"/>
	</g>
	<g>
		<path style="fill:#CEC59F;" d="M126.926,235.065h-25.852c-2.434,0-4.408-1.973-4.408-4.408v-8.518
			c0-2.434,1.973-4.408,4.408-4.408h25.852c2.434,0,4.408,1.973,4.408,4.408v8.518C131.333,233.092,129.36,235.065,126.926,235.065z
			"/>
		<path style="fill:#CEC59F;" d="M246.926,235.065h-25.852c-2.434,0-4.408-1.973-4.408-4.408v-8.518
			c0-2.434,1.973-4.408,4.408-4.408h25.852c2.434,0,4.408,1.973,4.408,4.408v8.518C251.333,233.092,249.36,235.065,246.926,235.065z
			"/>
		<path style="fill:#CEC59F;" d="M206.926,235.065h-25.852c-2.434,0-4.408-1.973-4.408-4.408v-8.518
			c0-2.434,1.973-4.408,4.408-4.408h25.852c2.434,0,4.408,1.973,4.408,4.408v8.518C211.333,233.092,209.36,235.065,206.926,235.065z
			"/>
		<path style="fill:#CEC59F;" d="M166.926,235.065h-25.852c-2.434,0-4.408-1.973-4.408-4.408v-8.518
			c0-2.434,1.973-4.408,4.408-4.408h25.852c2.434,0,4.408,1.973,4.408,4.408v8.518C171.333,233.092,169.36,235.065,166.926,235.065z
			"/>
	</g>
	<rect x="51.859" y="69.523" style="fill:#CEC59F;" width="384.334" height="21.048"/>
	<g>
		<rect x="117.32" y="104.19" style="fill:#CEC59F;" width="80.926" height="63.333"/>
		<rect x="122.32" y="109.19" style="fill:#2D4151;" width="70.926" height="53.333"/>
	</g>
	<path style="opacity:0.2;fill:#FCFAFA;enable-background:new    ;" d="M190,113.523v45.667h-52.057
		C137.943,159.19,183.623,151.856,190,113.523z"/>
	<rect x="316.667" y="148.873" style="fill:#808080;" width="83.333" height="28.753"/>
	<rect x="150" y="106.394" style="fill:#CEC59F;" width="4.667" height="58.926"/>
	<g>
		<path style="fill:#FFFFFF;" d="M326.32,169.811v-1.225h2.187v-10.673h-2.187v-1.225h10.389v3.805h-1.356v-0.569
			c0-1.815-0.066-2.012-1.794-2.012h-3.696v4.134h2.997v-1.837h1.356v5.117h-1.356v-2.056h-2.997v5.315h4.09
			c1.662,0,1.815-0.197,1.815-2.624v-0.416h1.356v4.265H326.32V169.811z"/>
		<path style="fill:#FFFFFF;" d="M349.697,169.811h-1.4l-6.168-10.673h-0.044v9.449h2.013v1.225h-4.986v-1.225h1.618v-10.673h-1.618
			v-1.225h3.127l6.058,10.608h0.044v-9.383h-2.056v-1.225h4.791v1.225h-1.378v11.897H349.697z"/>
		<path style="fill:#FFFFFF;" d="M354.681,169.811v-1.225h2.865v-10.673h-1.771c-1.509,0-1.64,0.197-1.64,1.728v1.662h-1.356v-4.615
			h10.892v4.615h-1.356v-1.662c0-1.531-0.131-1.728-1.64-1.728h-1.772v10.673h2.866v1.225H354.681z"/>
		<path style="fill:#FFFFFF;" d="M377.401,169.811h-2.406l-3.98-5.971h-2.122v4.746h2.078v1.225h-5.227v-1.225h1.794v-10.52
			l-1.794-0.219v-1.159c0.678,0.153,1.268,0.262,2.013,0.262c1.116,0,2.253-0.262,3.368-0.262c2.165,0,4.178,0.984,4.178,3.39
			c0,1.859-1.116,3.04-2.843,3.543l3.369,4.965h1.574v1.225H377.401z M368.893,162.659l1.137,0.022
			c2.778,0.044,3.85-1.028,3.85-2.449c0-1.662-1.203-2.319-2.734-2.319c-0.722,0-1.466,0.066-2.253,0.153V162.659z"/>
		<path style="fill:#FFFFFF;" d="M383.217,156.689v1.225h-1.794l3.04,4.943l3.041-4.943h-1.794v-1.225h4.637v1.225h-1.356
			l-3.85,6.211v4.462h2.866v1.225h-7.086v-1.225h2.865v-4.462l-3.849-6.211h-1.356v-1.225H383.217z"/>
	</g>
	<g>
		<path style="fill:#F93030;" d="M90.815,38.87c-2.77-3.131-6.745-4.938-10.9-4.938c-3.854,0-7.467,1.505-10.238,4.216
			c-2.709,2.77-4.215,6.384-4.215,10.238s1.505,7.467,4.215,10.237c2.771,2.71,6.384,4.216,10.238,4.216
			c4.156,0,8.131-1.806,10.9-4.938l4.999,4.336c-4.035,4.577-9.817,7.226-15.899,7.226c-2.83,0-5.601-0.542-8.19-1.686
			c-2.53-1.024-4.758-2.529-6.685-4.516c-1.927-1.927-3.492-4.155-4.516-6.685c-1.144-2.589-1.685-5.36-1.685-8.19
			c0-2.831,0.542-5.601,1.685-8.19c1.024-2.53,2.59-4.758,4.516-6.685c1.928-1.987,4.156-3.493,6.685-4.516
			c2.589-1.144,5.36-1.686,8.19-1.686c6.082,0,11.864,2.65,15.899,7.227L90.815,38.87z"/>
		<path style="fill:#F93030;" d="M106.047,27.307h6.625v35.531h15.778v6.625h-22.403V27.307z"/>
		<path style="fill:#F93030;" d="M172.167,52.962c0,9.154-7.407,16.561-16.562,16.561c-9.154,0-16.621-7.407-16.621-16.561V27.307
			h6.624v25.655c0,2.65,1.024,5.179,2.952,7.046c1.866,1.867,4.336,2.89,7.045,2.89c2.65,0,5.12-1.024,7.046-2.89
			c1.867-1.867,2.892-4.396,2.892-7.046V27.307h6.624L172.167,52.962L172.167,52.962z"/>
		<path style="fill:#F93030;" d="M193.179,27.307c6.745,0,12.225,5.541,12.225,12.286c0,0.903-0.06,1.806-0.302,2.709
			c6.082,1.446,10.6,6.866,10.6,13.43c0,7.588-6.143,13.73-13.792,13.73h-18.307V27.307H193.179z M193.179,45.254
			c1.505,0,2.89-0.603,3.975-1.686c1.083-1.024,1.626-2.469,1.626-3.974c0-1.506-0.543-2.891-1.626-3.975
			c-1.084-1.084-2.469-1.626-3.975-1.626h-2.951v11.262h2.951V45.254z M201.91,62.838c1.928,0,3.735-0.723,5.059-2.048
			c1.385-1.385,2.107-3.191,2.107-5.058c0-1.927-0.723-3.734-2.107-5.059c-1.325-1.385-3.132-2.108-5.059-2.108h-0.361
			c-2.228,2.048-5.118,3.313-8.371,3.313h-2.951v10.96H201.91z"/>
	</g>
	<path style="fill:#46CC59;" d="M65.482,354.299v-6.622c0-1.572-1.274-2.846-2.846-2.846h-6.474c-1.572,0-2.846,1.274-2.846,2.846
		v6.622c0,3.802-1.26,7.498-3.583,10.508l0,0c-2.323,3.01-3.583,6.705-3.583,10.508v33.572h26.5v-33.572
		c0-3.802-1.26-7.497-3.583-10.507l0,0C66.742,361.796,65.482,358.101,65.482,354.299z"/>
</g>
<g>
</g>
<g>
</g>
<g>
</g>
<g>
</g>
<g>
</g>
<g>
</g>
<g>
</g>
<g>
</g>
<g>
</g>
<g>
</g>
<g>
</g>
<g>
</g>
<g>
</g>
<g>
</g>
<g>
</g>
</svg>
