<?xml version="1.0" encoding="iso-8859-1"?>
<!-- Generator: Adobe Illustrator 19.0.0, SVG Export Plug-In . SVG Version: 6.00 Build 0)  -->
<svg version="1.1" id="Layer_1" xmlns="http://www.w3.org/2000/svg" xmlns:xlink="http://www.w3.org/1999/xlink" x="0px" y="0px"
	 viewBox="0 0 512 512" style="enable-background:new 0 0 512 512;" xml:space="preserve">
<g>
	<path style="fill:#E4EAF6;" d="M370.759,0H88.276c-19.501,0-35.31,15.809-35.31,35.31v88.276L2.119,174.432
		c-4.04,4.04-1.178,10.947,4.535,10.947h46.312v17.655c0,19.501,15.809,35.31,35.31,35.31h282.483
		c19.501,0,35.31-15.809,35.31-35.31V35.31C406.069,15.809,390.26,0,370.759,0z"/>
	<path style="fill:#E4EAF6;" d="M141.241,273.655h282.483c19.501,0,35.31,15.809,35.31,35.31v88.276l50.847,50.846
		c4.04,4.04,1.178,10.947-4.534,10.947h-46.313v35.31c0,9.751-7.904,17.655-17.655,17.655H141.241
		c-19.501,0-35.31-15.809-35.31-35.31V308.966C105.931,289.464,121.74,273.655,141.241,273.655z"/>
</g>
<path style="fill:#FFFFFF;" d="M370.759,211.862H88.276c-4.875,0-8.828-3.953-8.828-8.828V35.31c0-4.875,3.953-8.828,8.828-8.828
	h282.483c4.875,0,8.828,3.953,8.828,8.828v167.724C379.586,207.91,375.634,211.862,370.759,211.862z"/>
<path style="fill:#00D2FF;" d="M370.759,158.897H88.276c-4.875,0-8.828,3.953-8.828,8.828v35.31c0,4.875,3.953,8.828,8.828,8.828
	h282.483c4.875,0,8.828-3.953,8.828-8.828v-35.31C379.586,162.849,375.634,158.897,370.759,158.897z"/>
<path style="fill:#18BDF6;" d="M353.103,176.552H105.931c-4.875,0-8.828,3.953-8.828,8.828l0,0c0,4.875,3.953,8.828,8.828,8.828
	h247.172c4.875,0,8.828-3.953,8.828-8.828l0,0C361.931,180.504,357.978,176.552,353.103,176.552z"/>
<circle style="fill:#FFFFFF;" cx="132.414" cy="185.379" r="17.655"/>
<path style="fill:#00D2FF;" d="M268.647,101.825l-61.288,30.644c-6.025,3.012-13.113-1.368-13.113-8.105V63.076
	c0-6.735,7.089-11.116,13.113-8.105l61.288,30.644C275.325,88.956,275.325,98.485,268.647,101.825z"/>
<path style="fill:#FFFFFF;" d="M423.724,485.517H141.241c-4.875,0-8.828-3.953-8.828-8.828V308.966c0-4.875,3.953-8.828,8.828-8.828
	h282.483c4.875,0,8.828,3.953,8.828,8.828V476.69C432.552,481.565,428.599,485.517,423.724,485.517z"/>
<path style="fill:#FF6464;" d="M423.724,432.552H141.241c-4.875,0-8.828,3.953-8.828,8.828v35.31c0,4.875,3.953,8.828,8.828,8.828
	h282.483c4.875,0,8.828-3.953,8.828-8.828v-35.31C432.552,436.504,428.599,432.552,423.724,432.552z"/>
<path style="fill:#D2555A;" d="M406.069,450.207H158.897c-4.875,0-8.828,3.953-8.828,8.828l0,0c0,4.875,3.953,8.828,8.828,8.828
	h247.172c4.875,0,8.828-3.953,8.828-8.828l0,0C414.897,454.159,410.944,450.207,406.069,450.207z"/>
<circle style="fill:#FFFFFF;" cx="220.69" cy="459.034" r="17.655"/>
<path style="fill:#FF6464;" d="M321.612,375.48l-61.288,30.644c-6.025,3.012-13.113-1.368-13.113-8.105v-61.288
	c0-6.735,7.089-11.116,13.113-8.105l61.288,30.644C328.29,362.611,328.29,372.14,321.612,375.48z"/>
<g>
</g>
<g>
</g>
<g>
</g>
<g>
</g>
<g>
</g>
<g>
</g>
<g>
</g>
<g>
</g>
<g>
</g>
<g>
</g>
<g>
</g>
<g>
</g>
<g>
</g>
<g>
</g>
<g>
</g>
</svg>
