<?xml version="1.0" encoding="iso-8859-1"?>
<!-- Generator: Adobe Illustrator 18.0.0, SVG Export Plug-In . SVG Version: 6.00 Build 0)  -->
<!DOCTYPE svg PUBLIC "-//W3C//DTD SVG 1.1//EN" "http://www.w3.org/Graphics/SVG/1.1/DTD/svg11.dtd">
<svg version="1.1" id="Capa_1" xmlns="http://www.w3.org/2000/svg" xmlns:xlink="http://www.w3.org/1999/xlink" x="0px" y="0px"
	 viewBox="0 0 440 440" style="enable-background:new 0 0 440 440;" xml:space="preserve">
<g>
	<path style="fill:#26A3BF;" d="M306.387,426.99H129.606c-15.482,0-28.042-12.56-28.042-28.042V41.052
		c0-15.493,12.56-28.042,28.042-28.042h176.781c15.493,0,28.042,12.549,28.042,28.042v357.896
		C334.429,414.43,321.879,426.99,306.387,426.99z"/>
	<rect x="101.565" y="59.899" style="opacity:0.5;fill:#FFFFFF;" width="232.865" height="320.194"/>
	<path style="opacity:0.5;fill:#FFFFFF;" d="M334.429,172.357L175.092,13.01h131.295c15.493,0,28.042,12.549,28.042,28.042V172.357z
		"/>
	<path style="opacity:0.5;fill:#FFFFFF;" d="M269.396,426.99h-139.79c-15.482,0-28.042-12.56-28.042-28.042V259.147L269.396,426.99z
		"/>
	<path style="fill:#FFE473;" d="M65,156.269c-29.776,0-54-24.224-54-54s24.224-54,54-54s54,24.224,54,54S94.776,156.269,65,156.269z
		 M65,62.269c-22.056,0-40,17.944-40,40s17.944,40,40,40s40-17.944,40-40S87.056,62.269,65,62.269z"/>
	<path style="fill:#F98680;" d="M433,272H265c-3.866,0-7-3.134-7-7v-90c0-3.866,3.134-7,7-7h168c3.866,0,7,3.134,7,7v90
		C440,268.866,436.866,272,433,272z M272,258h154v-76H272V258z"/>
	<path style="fill:#26A3BF;" d="M133,368.538H7c-3.866,0-7-3.134-7-7v-79.269c0-3.866,3.134-7,7-7h126c3.866,0,7,3.134,7,7v79.269
		C140,365.404,136.866,368.538,133,368.538z M14,354.538h112v-65.269H14V354.538z"/>
	<rect x="133" y="315.269" style="fill:#26A3BF;" width="61" height="14"/>
	<rect x="132" y="210.269" style="fill:#F98680;" width="133" height="14"/>
	<rect x="112" y="95.269" style="fill:#FFE473;" width="170" height="14"/>
	<g>
		<rect x="30.5" y="300.586" style="fill:#26A3BF;" width="79" height="14"/>
		<rect x="30.5" y="329.221" style="fill:#26A3BF;" width="79" height="14"/>
	</g>
	<path style="fill:#F98680;" d="M65,85.718L65,85.718c-5.437-5.437-14.253-5.437-19.69,0l0,0c-5.437,5.437-5.437,14.253,0,19.69l0,0
		L65,125.098l19.69-19.69l0,0c5.437-5.437,5.437-14.253,0-19.69l0,0C79.253,80.281,70.437,80.281,65,85.718L65,85.718z"/>
</g>
<g>
</g>
<g>
</g>
<g>
</g>
<g>
</g>
<g>
</g>
<g>
</g>
<g>
</g>
<g>
</g>
<g>
</g>
<g>
</g>
<g>
</g>
<g>
</g>
<g>
</g>
<g>
</g>
<g>
</g>
</svg>
