<?xml version="1.0" encoding="iso-8859-1"?>
<!-- Generator: Adobe Illustrator 19.0.0, SVG Export Plug-In . SVG Version: 6.00 Build 0)  -->
<svg version="1.1" id="Layer_1" xmlns="http://www.w3.org/2000/svg" xmlns:xlink="http://www.w3.org/1999/xlink" x="0px" y="0px"
	 viewBox="0 0 496 496" style="enable-background:new 0 0 496 496;" xml:space="preserve">
<path style="fill:#334443;" d="M496,392c0,17.6-14.4,32-32,32H32c-17.6,0-32-14.4-32-32V104c0-17.6,14.4-32,32-32h432
	c17.6,0,32,14.4,32,32V392z"/>
<path style="fill:#203030;" d="M496,104v288c0,17.6-14.4,32-32,32H32c-17.6,0-32-14.4-32-32V104"/>
<path style="fill:#AFBBBC;" d="M456,344c0,17.6-14.4,32-32,32H72c-17.6,0-32-14.4-32-32V208c0-17.6,14.4-32,32-32h352
	c17.6,0,32,14.4,32,32V344z"/>
<path style="fill:#97A9AA;" d="M40,209.6C40,192,54.4,176,72,176h352c17.6,0,32,16.8,32,34.4V344c0,17.6-14.4,32-32,32"/>
<circle style="fill:#364B4C;" cx="148" cy="280" r="76"/>
<path style="fill:#203030;" d="M94.4,226.4c29.6-29.6,78.4-29.6,108,0s29.6,78.4,0,108"/>
<circle style="fill:#D10257;" cx="148" cy="280" r="36"/>
<path style="fill:#B20B5F;" d="M112,280c0-20,16-36,36-36s36,16,36,36"/>
<circle style="fill:#364B4C;" cx="348" cy="280" r="76"/>
<path style="fill:#203030;" d="M294.4,226.4c29.6-29.6,78.4-29.6,108,0s29.6,78.4,0,108"/>
<circle style="fill:#D10257;" cx="348" cy="280" r="36"/>
<path style="fill:#B20B5F;" d="M312,280c0-20,16-36,36-36s36,16,36,36"/>
<rect x="160" y="176" style="fill:#E6EFEF;" width="176" height="208"/>
<polyline style="fill:#DAE5E5;" points="336,384 336,176 160,176 "/>
<path style="fill:#C0CECE;" d="M304,256.8c0,4-2.4,7.2-6.4,7.2h-99.2c-4,0-6.4-3.2-6.4-7.2v-28c0-4,2.4-4,6.4-4h100c4,0,6.4,0,6.4,4
	v28H304z"/>
<path style="fill:#B20B5F;" d="M304,240.8c0,4-3.2,7.2-7.2,7.2h-97.6c-4,0-7.2-3.2-7.2-7.2V216c0-4,3.2-7.2,7.2-7.2H296
	c4,0,7.2,3.2,7.2,7.2v24.8H304z"/>
<path style="fill:#930955;" d="M192,215.2c0-4,3.2-7.2,7.2-7.2h98.4c4,0,6.4,4.8,6.4,8.8v24c0,4-3.2,7.2-7.2,7.2"/>
<g>
</g>
<g>
</g>
<g>
</g>
<g>
</g>
<g>
</g>
<g>
</g>
<g>
</g>
<g>
</g>
<g>
</g>
<g>
</g>
<g>
</g>
<g>
</g>
<g>
</g>
<g>
</g>
<g>
</g>
</svg>
