<?xml version="1.0" encoding="iso-8859-1"?>
<!-- Generator: Adobe Illustrator 19.0.0, SVG Export Plug-In . SVG Version: 6.00 Build 0)  -->
<svg version="1.1" id="Layer_1" xmlns="http://www.w3.org/2000/svg" xmlns:xlink="http://www.w3.org/1999/xlink" x="0px" y="0px"
	 viewBox="0 0 464 464" style="enable-background:new 0 0 464 464;" xml:space="preserve">
<path style="fill:#2F423F;" d="M224,117.6c0,5.6-6.4,10.4-12.8,10.4h-152c-6.4,0-11.2-4-11.2-10.4V112c0-3.2,4.8-8,11.2-8H212
	c5.6,0,12.8,4,12.8,8v5.6H224z"/>
<path style="fill:#EFE8CE;" d="M192,126.4c0,11.2-4.8,17.6-16,17.6H94.4c-11.2,0-22.4-6.4-22.4-17.6V21.6C72,10.4,84,0,94.4,0H176
	c11.2,0,16,10.4,16,21.6V126.4z"/>
<path style="fill:#E5D9AA;" d="M72,21.6C72,10.4,84,0,94.4,0H176c11.2,0,16,10.4,16,21.6v104.8c0,11.2-7.2,19.2-17.6,19.2"/>
<path style="fill:#4C5254;" d="M48,112v279.2c0,39.2,32,72.8,72,72.8h31.2c39.2,0,73.6-33.6,73.6-72.8V112H48z"/>
<rect x="48" y="184" style="fill:#0AA06E;" width="176" height="40"/>
<rect x="48" y="224" style="fill:#FCA12A;" width="176" height="40"/>
<rect x="48" y="264" style="fill:#F15249;" width="176" height="40"/>
<g>
	<path style="fill:#C4B78C;" d="M168,80c0,4-3.2,8-8,8h-8c-4,0-8-3.2-8-8V48c0-4,3.2-8,8-8h8c4,0,8,3.2,8,8V80z"/>
	<path style="fill:#C4B78C;" d="M120,80c0,4-3.2,8-8,8h-8c-4,0-8-3.2-8-8V48c0-4,3.2-8,8-8h8c4,0,8,3.2,8,8V80z"/>
</g>
<path style="fill:#4C5254;" d="M416,168V72.8C416,33.6,384,0,344,0h-31.2C273.6,0,240,33.6,240,72.8V168H416z"/>
<g>
	<path style="fill:#2F423F;" d="M416,168V72.8C416,33.6,384,0,344,0h-32"/>
	<path style="fill:#2F423F;" d="M416,168c0,5.6-4.8,8-11.2,8h-152c-5.6,0-12.8-2.4-12.8-8l0,0c0-5.6,6.4-8,12.8-8h152.8
		C411.2,160,416,162.4,416,168L416,168z"/>
</g>
<g>
</g>
<g>
</g>
<g>
</g>
<g>
</g>
<g>
</g>
<g>
</g>
<g>
</g>
<g>
</g>
<g>
</g>
<g>
</g>
<g>
</g>
<g>
</g>
<g>
</g>
<g>
</g>
<g>
</g>
</svg>
