<?xml version="1.0" encoding="iso-8859-1"?>
<!-- Generator: Adobe Illustrator 19.0.0, SVG Export Plug-In . SVG Version: 6.00 Build 0)  -->
<svg version="1.1" id="Layer_1" xmlns="http://www.w3.org/2000/svg" xmlns:xlink="http://www.w3.org/1999/xlink" x="0px" y="0px"
	 viewBox="0 0 487.774 487.774" style="enable-background:new 0 0 487.774 487.774;" xml:space="preserve">
<g id="XMLID_374_">
	<g id="XMLID_318_">
		<rect x="22.746" y="152.468" style="fill:#E0D6C6;" width="45.74" height="30.494"/>
	</g>
	<g id="XMLID_211_">
		<rect x="190.461" y="114.351" style="fill:#E0D6C6;" width="60.987" height="30.494"/>
	</g>
	<g id="XMLID_202_">
		<rect x="426.787" y="114.351" style="fill:#D60B52;" width="60.987" height="30.494"/>
	</g>
	<g id="XMLID_179_">
		<rect x="259.072" y="114.351" style="fill:#CBBBA0;" width="167.715" height="30.494"/>
	</g>
	<g id="XMLID_1235_">
		<rect x="7.499" y="182.962" style="fill:#D60B52;" width="472.651" height="297.313"/>
	</g>
	<g id="XMLID_96_">
		<rect x="7.499" y="182.962" style="fill:#A1083E;" width="144.845" height="297.313"/>
	</g>
	<g id="XMLID_1263_">
		<rect x="83.734" y="221.079" style="fill:#E0D6C6;" width="358.3" height="221.079"/>
	</g>
	<g id="XMLID_1290_">
		<rect x="83.733" y="221.079" style="fill:#CBBBA0;" width="106.728" height="221.079"/>
	</g>
	<g id="XMLID_27_">
		<path style="fill:#1D1D1B;" d="M487.65,487.774H0V175.461h487.65V487.774z M15,472.774h457.65V190.461H15V472.774z"/>
	</g>
	<g id="XMLID_216_">
		<path style="fill:#1D1D1B;" d="M449.533,449.657h-373.3V213.578h373.3V449.657z M91.233,434.657h343.3V228.578h-343.3V434.657z"/>
	</g>
	<g id="XMLID_218_">
		<rect x="38.116" y="213.455" style="fill:#FFFFFF;" width="15" height="15.246"/>
	</g>
	<g id="XMLID_219_">
		<rect x="38.116" y="243.948" style="fill:#FFFFFF;" width="15" height="15.247"/>
	</g>
	<g id="XMLID_220_">
		<rect x="38.116" y="274.443" style="fill:#FFFFFF;" width="15" height="15.246"/>
	</g>
	<g id="XMLID_221_">
		<rect x="38.116" y="434.533" style="fill:#FFFFFF;" width="15" height="15.247"/>
	</g>
	<g id="XMLID_222_">
		<rect x="38.116" y="404.04" style="fill:#FFFFFF;" width="15" height="15.247"/>
	</g>
	<g id="XMLID_223_">
		<rect x="38.116" y="373.546" style="fill:#FFFFFF;" width="15" height="15.247"/>
	</g>
	<polygon style="fill:#FFFFFF;" points="64.675,324.117 53.116,324.117 53.116,312.559 38.116,312.559 38.116,324.117 
		26.558,324.117 26.558,339.117 38.116,339.117 38.116,350.676 53.116,350.676 53.116,339.117 64.675,339.117 	"/>
	<g id="XMLID_228_">
		<polygon style="fill:#FFFFFF;" points="129.351,282.066 114.351,282.066 114.351,251.695 144.721,251.695 144.721,266.695 
			129.351,266.695 		"/>
	</g>
	<g id="XMLID_229_">
		<polygon style="fill:#FFFFFF;" points="411.416,282.066 396.416,282.066 396.416,266.695 381.046,266.695 381.046,251.695 
			411.416,251.695 		"/>
	</g>
	<g id="XMLID_231_">
		<polygon style="fill:#FFFFFF;" points="144.721,411.54 114.351,411.54 114.351,381.17 129.351,381.17 129.351,396.54 
			144.721,396.54 		"/>
	</g>
	<g id="XMLID_230_">
		<polygon style="fill:#FFFFFF;" points="411.416,411.54 381.046,411.54 381.046,396.54 396.416,396.54 396.416,381.17 
			411.416,381.17 		"/>
	</g>
	<polygon style="fill:#1D1D1B;" points="53.116,144.968 53.116,137.221 38.116,137.221 38.116,144.968 15.246,144.968 
		15.246,167.715 30.246,167.715 30.246,159.968 60.986,159.968 60.986,167.715 75.986,167.715 75.986,144.968 	"/>
	<g id="XMLID_235_">
		<path style="fill:#1D1D1B;" d="M53.116,129.598h-15V30.493c0-16.746,13.624-30.37,30.37-30.37s30.37,13.624,30.37,30.37v45.74
			c0,8.476,6.896,15.37,15.371,15.37s15.37-6.895,15.37-15.37V0h15v76.233c0,16.746-13.624,30.37-30.37,30.37
			c-16.747,0-30.371-13.624-30.371-30.37v-45.74c0-8.476-6.896-15.37-15.37-15.37c-8.476,0-15.37,6.895-15.37,15.37
			C53.116,30.493,53.116,129.598,53.116,129.598z"/>
	</g>
	<g id="XMLID_238_">
		<rect x="472.65" y="114.351" style="fill:#1D1D1B;" width="15" height="30.493"/>
	</g>
	<g>
		<path style="fill:#1D1D1B;" d="M251.572,106.851v45.493H464.78v-45.493H251.572z M266.572,121.851h152.714v15.493H266.572V121.851
			z M449.78,137.344h-15.494v-15.493h15.494V137.344z"/>
		<polygon style="fill:#1D1D1B;" points="182.961,122.098 152.344,122.098 152.344,137.098 182.961,137.098 182.961,152.344 
			220.955,152.344 220.955,137.344 197.961,137.344 197.961,121.851 220.955,121.851 220.955,106.851 182.961,106.851 		"/>
	</g>
	<g id="XMLID_25_">
		<rect x="228.701" y="106.728" style="fill:#1D1D1B;" width="15" height="45.74"/>
	</g>
</g>
<g>
</g>
<g>
</g>
<g>
</g>
<g>
</g>
<g>
</g>
<g>
</g>
<g>
</g>
<g>
</g>
<g>
</g>
<g>
</g>
<g>
</g>
<g>
</g>
<g>
</g>
<g>
</g>
<g>
</g>
</svg>
