<?xml version="1.0" encoding="utf-8"?>
<!-- Generator: Adobe Illustrator 16.0.0, SVG Export Plug-In . SVG Version: 6.00 Build 0)  -->
<!DOCTYPE svg PUBLIC "-//W3C//DTD SVG 1.1//EN" "http://www.w3.org/Graphics/SVG/1.1/DTD/svg11.dtd">
<svg version="1.1" id="Capa_1" xmlns="http://www.w3.org/2000/svg" xmlns:xlink="http://www.w3.org/1999/xlink" x="0px" y="0px"
	 width="100px" height="20px" viewBox="0 0 100 20" enable-background="new 0 0 100 20" xml:space="preserve">
<g>
	<path fill="#3FA4C4" d="M4.25,0.306h5.163c2.655,0,4.61,1.741,4.61,4.504c0,2.783-1.955,4.567-4.61,4.567H5.715v5.864H4.25V0.306
		L4.25,0.306z M9.22,8.06c1.998,0,3.293-1.21,3.293-3.25c0-2.019-1.295-3.187-3.271-3.187H5.715V8.06H9.22z"/>
	<path fill="#3FA4C4" d="M20.735,4.299c2.954,0,4.462,2.273,4.462,4.93c0,0.233-0.022,0.488-0.042,0.722h-8.202
		c0.064,2.718,1.934,4.229,4.144,4.229c1.167,0,2.378-0.49,3.25-1.277l0.658,1.107c-0.998,0.911-2.549,1.484-3.952,1.484
		c-3.186,0-5.608-2.294-5.608-5.585C15.446,6.403,17.846,4.299,20.735,4.299z M23.73,8.804c-0.085-2.231-1.444-3.314-3.037-3.314
		c-1.785,0-3.335,1.168-3.676,3.314H23.73z"/>
	<path fill="#3FA4C4" d="M27.917,4.555h1.424v1.976c0,0.467-0.085,0.849-0.085,0.849h0.042c0.531-1.614,1.763-2.932,3.42-2.932
		c0.191,0,0.403,0.021,0.574,0.063v1.424c-0.064-0.022-0.319-0.043-0.532-0.043c-2.4,0-3.399,2.698-3.399,4.822v4.526h-1.444V4.555
		L27.917,4.555z"/>
	<path fill="#3FA4C4" d="M35.437,0.306h1.571v1.805h-1.571V0.306z M35.5,4.555h1.445v10.687H35.5V4.555z"/>
	<path fill="#3FA4C4" d="M40.217,12.926c0.807,0.827,2.061,1.295,3.229,1.295c1.189,0,2.146-0.594,2.146-1.722
		c0-2.378-5.693-1.72-5.693-5.225c0-1.955,1.678-2.975,3.633-2.975c1.169,0,2.421,0.34,3.292,1.168l-0.68,1.083
		c-0.616-0.616-1.721-0.977-2.676-0.977c-1.126,0-2.146,0.488-2.146,1.657c0,2.443,5.715,1.72,5.715,5.248
		c0,1.764-1.509,3.015-3.612,3.015c-1.424,0-2.953-0.486-3.973-1.551L40.217,12.926z"/>
	<path fill="#3FA4C4" d="M54.578,4.299c1.401,0,2.952,0.488,3.909,1.53l-0.743,1.083C57,6.148,55.812,5.595,54.621,5.595
		c-2.338,0-4.165,1.764-4.165,4.313c0,2.506,1.827,4.271,4.207,4.271c1.232,0,2.57-0.532,3.422-1.467l0.656,1.084
		c-0.934,1.04-2.527,1.697-4.163,1.697c-3.167,0-5.607-2.271-5.607-5.585C48.97,6.615,51.434,4.299,54.578,4.299z"/>
	<path fill="#3FA4C4" d="M65.858,4.299c3.123,0,5.651,2.38,5.651,5.545c0,3.228-2.528,5.65-5.651,5.65
		c-3.122,0-5.629-2.422-5.629-5.65C60.229,6.679,62.736,4.299,65.858,4.299z M65.858,14.18c2.295,0,4.164-1.828,4.164-4.335
		c0-2.422-1.869-4.249-4.164-4.249s-4.143,1.827-4.143,4.249C61.716,12.352,63.563,14.18,65.858,14.18z"/>
	<path fill="#3FA4C4" d="M74.208,4.555h1.38V5.68c0,0.468-0.063,0.829-0.063,0.829h0.044c0.658-1.381,2.06-2.21,3.717-2.21
		c2.89,0,4.653,2.295,4.653,5.587c0,3.399-1.998,5.607-4.78,5.607c-1.508,0-2.826-0.784-3.526-2.124h-0.044
		c0,0,0.064,0.383,0.064,0.937v5.184h-1.444V4.555L74.208,4.555z M79.01,14.199c1.89,0,3.463-1.57,3.463-4.291
		c0-2.613-1.403-4.292-3.399-4.292c-1.785,0-3.463,1.274-3.463,4.313C75.61,12.075,76.822,14.199,79.01,14.199z"/>
	<path fill="#3FA4C4" d="M91.288,4.299c2.954,0,4.462,2.273,4.462,4.93c0,0.233-0.022,0.488-0.042,0.722h-8.201
		c0.064,2.718,1.933,4.229,4.143,4.229c1.169,0,2.38-0.49,3.251-1.277l0.657,1.107c-0.997,0.911-2.548,1.484-3.95,1.484
		c-3.187,0-5.609-2.294-5.609-5.585C85.998,6.403,88.399,4.299,91.288,4.299z M94.284,8.804c-0.086-2.231-1.445-3.314-3.037-3.314
		c-1.785,0-3.336,1.168-3.676,3.314H94.284z"/>
</g>
</svg>
