<?xml version="1.0" encoding="utf-8"?>
<!-- Generator: Adobe Illustrator 16.0.0, SVG Export Plug-In . SVG Version: 6.00 Build 0)  -->
<!DOCTYPE svg PUBLIC "-//W3C//DTD SVG 1.1//EN" "http://www.w3.org/Graphics/SVG/1.1/DTD/svg11.dtd">
<svg version="1.1" xmlns="http://www.w3.org/2000/svg" xmlns:xlink="http://www.w3.org/1999/xlink" x="0px" y="0px" width="100px"
	 height="20px" viewBox="0 0 100 20" enable-background="new 0 0 100 20" xml:space="preserve">
<g id="Capa_1" display="none">
	<g display="inline">
		<path fill="#3FA4C4" d="M4.25,0.306h5.163c2.655,0,4.61,1.741,4.61,4.504c0,2.783-1.955,4.567-4.61,4.567H5.715v5.864H4.25V0.306
			L4.25,0.306z M9.22,8.06c1.998,0,3.293-1.21,3.293-3.25c0-2.019-1.295-3.187-3.271-3.187H5.715V8.06H9.22z"/>
		<path fill="#3FA4C4" d="M20.735,4.299c2.954,0,4.462,2.273,4.462,4.93c0,0.233-0.022,0.488-0.042,0.722h-8.202
			c0.064,2.718,1.934,4.229,4.144,4.229c1.167,0,2.378-0.49,3.25-1.277l0.658,1.107c-0.998,0.911-2.549,1.484-3.952,1.484
			c-3.186,0-5.608-2.294-5.608-5.585C15.446,6.403,17.846,4.299,20.735,4.299z M23.73,8.804c-0.085-2.231-1.444-3.314-3.037-3.314
			c-1.785,0-3.335,1.168-3.676,3.314H23.73z"/>
		<path fill="#3FA4C4" d="M27.917,4.555h1.424v1.976c0,0.467-0.085,0.849-0.085,0.849h0.042c0.531-1.614,1.763-2.932,3.42-2.932
			c0.191,0,0.403,0.021,0.574,0.063v1.424c-0.064-0.022-0.319-0.043-0.532-0.043c-2.4,0-3.399,2.698-3.399,4.822v4.526h-1.444V4.555
			L27.917,4.555z"/>
		<path fill="#3FA4C4" d="M35.437,0.306h1.571v1.805h-1.571V0.306z M35.5,4.555h1.445v10.687H35.5V4.555z"/>
		<path fill="#3FA4C4" d="M40.217,12.926c0.807,0.827,2.061,1.295,3.229,1.295c1.189,0,2.146-0.594,2.146-1.722
			c0-2.378-5.693-1.72-5.693-5.225c0-1.955,1.678-2.975,3.633-2.975c1.169,0,2.421,0.34,3.292,1.168l-0.68,1.083
			c-0.616-0.616-1.721-0.977-2.676-0.977c-1.126,0-2.146,0.488-2.146,1.657c0,2.443,5.715,1.72,5.715,5.248
			c0,1.764-1.509,3.015-3.612,3.015c-1.424,0-2.953-0.486-3.973-1.551L40.217,12.926z"/>
		<path fill="#3FA4C4" d="M54.578,4.299c1.401,0,2.952,0.488,3.909,1.53l-0.743,1.083C57,6.148,55.812,5.595,54.621,5.595
			c-2.338,0-4.165,1.764-4.165,4.313c0,2.506,1.827,4.271,4.207,4.271c1.232,0,2.57-0.532,3.422-1.467l0.656,1.084
			c-0.934,1.04-2.527,1.697-4.163,1.697c-3.167,0-5.607-2.271-5.607-5.585C48.97,6.615,51.434,4.299,54.578,4.299z"/>
		<path fill="#3FA4C4" d="M65.858,4.299c3.123,0,5.651,2.38,5.651,5.545c0,3.228-2.528,5.65-5.651,5.65
			c-3.122,0-5.629-2.422-5.629-5.65C60.229,6.679,62.736,4.299,65.858,4.299z M65.858,14.18c2.295,0,4.164-1.828,4.164-4.335
			c0-2.422-1.869-4.249-4.164-4.249s-4.143,1.827-4.143,4.249C61.716,12.352,63.563,14.18,65.858,14.18z"/>
		<path fill="#3FA4C4" d="M74.208,4.555h1.38V5.68c0,0.468-0.063,0.829-0.063,0.829h0.044c0.658-1.381,2.06-2.21,3.717-2.21
			c2.89,0,4.653,2.295,4.653,5.587c0,3.399-1.998,5.607-4.78,5.607c-1.508,0-2.826-0.784-3.526-2.124h-0.044
			c0,0,0.064,0.383,0.064,0.937v5.184h-1.444V4.555L74.208,4.555z M79.01,14.199c1.89,0,3.463-1.57,3.463-4.291
			c0-2.613-1.403-4.292-3.399-4.292c-1.785,0-3.463,1.274-3.463,4.313C75.61,12.075,76.822,14.199,79.01,14.199z"/>
		<path fill="#3FA4C4" d="M91.288,4.299c2.954,0,4.462,2.273,4.462,4.93c0,0.233-0.022,0.488-0.042,0.722h-8.201
			c0.064,2.718,1.933,4.229,4.143,4.229c1.169,0,2.38-0.49,3.251-1.277l0.657,1.107c-0.997,0.911-2.548,1.484-3.95,1.484
			c-3.187,0-5.609-2.294-5.609-5.585C85.998,6.403,88.399,4.299,91.288,4.299z M94.284,8.804c-0.086-2.231-1.445-3.314-3.037-3.314
			c-1.785,0-3.336,1.168-3.676,3.314H94.284z"/>
	</g>
</g>
<g id="Capa_2" display="none">
	<g display="inline">
		<g>
			<path d="M22.242,0.928h2.517l1.622,6.466h0.157l1.546-6.466h2.539l-2.908,9.466v6.714h-2.499v-6.411L22.242,0.928z"/>
			<path d="M30.508,7.9c0-0.925,0.299-1.66,0.896-2.208c0.597-0.548,1.4-0.823,2.409-0.823c0.918,0,1.671,0.29,2.257,0.868
				c0.586,0.577,0.88,1.321,0.88,2.23v6.163c0,1.023-0.289,1.824-0.863,2.405s-1.367,0.872-2.375,0.872c-0.971,0-1.748-0.3-2.33-0.9
				c-0.583-0.6-0.875-1.407-0.875-2.421V7.9z M32.792,14.312c0,0.328,0.079,0.581,0.236,0.76c0.158,0.179,0.384,0.27,0.678,0.27
				c0.301,0,0.539-0.092,0.716-0.275c0.177-0.183,0.265-0.434,0.265-0.754v-6.5c0-0.261-0.09-0.472-0.271-0.632
				c-0.18-0.16-0.417-0.24-0.71-0.24c-0.271,0-0.491,0.08-0.661,0.24c-0.169,0.161-0.253,0.372-0.253,0.632V14.312z"/>
			<path d="M45.167,5.172v11.935h-2.218v-1.318c-0.41,0.485-0.835,0.856-1.277,1.11c-0.443,0.252-0.872,0.379-1.289,0.379
				c-0.513,0-0.899-0.177-1.159-0.532c-0.261-0.355-0.391-0.888-0.391-1.599V5.172h2.219v9.148c0,0.283,0.046,0.488,0.139,0.615
				c0.093,0.127,0.244,0.188,0.452,0.188c0.165,0,0.37-0.083,0.62-0.25c0.249-0.168,0.477-0.382,0.686-0.643V5.172H45.167z"/>
		</g>
		<g>
			<linearGradient id="SVGID_1_" gradientUnits="userSpaceOnUse" x1="62.9521" y1="-0.0317" x2="62.9521" y2="19.9067">
				<stop  offset="0.0056" style="stop-color:#ED2828"/>
				<stop  offset="0.5" style="stop-color:#EF3B39"/>
				<stop  offset="0.9944" style="stop-color:#C02126"/>
			</linearGradient>
			<path fill="url(#SVGID_1_)" d="M77.561,4.393c0-2.334-1.915-4.227-4.275-4.227c-3.369-0.141-6.817-0.204-10.333-0.197
				c-3.516-0.007-6.963,0.057-10.332,0.197c-2.36,0-4.276,1.893-4.276,4.227c-0.141,1.848-0.203,3.696-0.198,5.544
				c-0.005,1.849,0.057,3.696,0.198,5.545c0,2.334,1.916,4.227,4.277,4.227c3.368,0.141,6.815,0.204,10.331,0.197
				c3.516,0.007,6.964-0.057,10.333-0.197c2.36,0,4.275-1.893,4.275-4.227c0.143-1.849,0.203-3.696,0.197-5.545
				C77.764,8.089,77.703,6.241,77.561,4.393z"/>
			<g>
				<path fill="#FFFFFF" d="M56.65,3.2h-6.209v1.901h2.093V16.3h2.023V5.101h2.093V3.2z M59.957,13.972
					c-0.169,0.211-0.354,0.384-0.555,0.521c-0.202,0.134-0.369,0.202-0.502,0.202c-0.168,0-0.289-0.051-0.365-0.153
					c-0.074-0.102-0.112-0.269-0.112-0.497V6.636h-1.797v8.077c0,0.575,0.105,1.006,0.315,1.294
					c0.211,0.288,0.524,0.432,0.939,0.432c0.337,0,0.686-0.102,1.043-0.309c0.358-0.205,0.702-0.505,1.033-0.897V16.3h1.798V6.636
					h-1.798V13.972z M66.918,6.515c-0.278,0-0.554,0.077-0.826,0.23s-0.528,0.377-0.771,0.672V3.2h-1.813v13.1h1.813v-0.742
					c0.236,0.293,0.492,0.511,0.769,0.652c0.273,0.141,0.588,0.211,0.938,0.211c0.531,0,0.938-0.182,1.22-0.547
					c0.282-0.364,0.423-0.89,0.423-1.577V8.936c0-0.789-0.149-1.39-0.45-1.803C67.921,6.721,67.488,6.515,66.918,6.515z
					 M66.82,14.034c0,0.309-0.051,0.53-0.155,0.666s-0.264,0.204-0.483,0.204c-0.153,0-0.299-0.034-0.435-0.104
					c-0.138-0.069-0.279-0.182-0.427-0.339V8.438c0.122-0.132,0.245-0.231,0.371-0.294c0.124-0.063,0.252-0.095,0.38-0.095
					c0.243,0,0.43,0.085,0.558,0.254s0.191,0.416,0.191,0.742V14.034z M75.31,11.694v-2.46c0-0.917-0.219-1.62-0.661-2.108
					c-0.44-0.489-1.073-0.734-1.895-0.734c-0.804,0-1.46,0.264-1.966,0.792c-0.509,0.528-0.763,1.211-0.763,2.05v4.337
					c0,0.93,0.23,1.661,0.692,2.193c0.462,0.53,1.097,0.796,1.9,0.796c0.894,0,1.566-0.25,2.017-0.751s0.675-1.247,0.675-2.238
					v-0.726h-1.849v0.671c0,0.569-0.059,0.937-0.178,1.104c-0.118,0.165-0.327,0.249-0.625,0.249c-0.286,0-0.488-0.098-0.606-0.296
					c-0.119-0.196-0.177-0.547-0.177-1.057v-1.822H75.31z M71.875,9.217c0-0.405,0.062-0.694,0.187-0.87
					c0.124-0.176,0.33-0.263,0.615-0.263c0.273,0,0.474,0.087,0.598,0.263c0.124,0.175,0.187,0.465,0.187,0.87v0.978h-1.586V9.217z"
					/>
			</g>
		</g>
	</g>
</g>
<g id="Capa_3" display="none">
	<path display="inline" d="M16.961,1.418c1.319-1.294,2.136-1.333,2.136-1.333s0.258-0.039,0.882,0.181
		c0.624,0.218,0.65,0.553,0.65,0.553v9.471c0.08,2.649-0.58,3.669-1.371,4.378c-0.45,0.365-0.811,0.41-0.854,0.41
		c-0.11,0-0.194-0.012-0.214-0.16c-0.019-0.146,0.116-0.534,0.116-0.534c0.399-1.011,0.366-2.761,0.366-2.761l0.04-10.205
		c0,0,0.031-0.187-0.129-0.13c-1.558,1.34-1.751,3.227-1.803,4.141c-0.024,1.372,0.57,2.079,0.57,2.079s0.154,0.135,0.135,0.329
		c0,0.261-0.241,0.242-0.241,0.242c-0.585-0.055-1.518-0.718-1.853-1.517c-0.276-0.59-0.271-1.227-0.271-1.227
		C15.141,4.534,15.643,2.713,16.961,1.418z M84.879,10.467c0,3.046-1.845,2.997-1.845,2.997c-1.757,0.062-2.205-1.793-2.315-3.68
		c-0.084-1.418,0-2.996,0-2.996s-0.013-0.073-0.061,0c-0.587,1.065-0.985,2.683-1.183,3.934c-0.142,0.908-0.156,1.669-0.156,1.669
		s0.023,0.17-0.121,0.269c-0.952,0.438-1.566-0.184-1.784-0.877c-0.289-0.658-0.458-4.618-0.458-4.825S76.787,6.91,76.787,6.91
		c-1.314,2.204-1.326,5.444-1.326,6.103c0,0.659-1.122,0.451-1.122,0.451c-0.952-0.073-0.916-0.535-0.916-0.535l-0.045-0.786
		c-0.331,0.61-0.945,1.403-1.892,1.34c-1.434-0.092-1.71-1.575-1.731-1.825c0,0-0.713,1.847-2.675,1.825
		c-1.333-0.02-1.867-1.397-1.867-1.397s-0.535,1.441-1.845,1.389c-1.313-0.052-2.394-1.566-2.311-3.528
		c0.086-1.961,0.389-2.941,0.389-2.941s0.105-0.2-0.073-0.208c-0.178-0.012-1.312,0.019-1.312,0.019s-0.64,2.568-3.347,5.761
		c0,0,0.021,0.998,0.021,2.107c-0.002,2.1-0.263,4.917-3.105,5.146c-2.46-0.167-2.321-2.062-2.321-2.062
		c-0.059-0.558,0.294-1.584,1.76-2.962c1.467-1.379,2.053-1.907,2.053-1.907l-0.059-0.879c-0.938,1.555-2.375,1.466-2.375,1.466
		s-1.11,0.227-2.043-1.425c-0.274,0.565-0.898,1.53-1.918,1.418c-1.433-0.158-1.718-1.588-1.738-1.841c0,0-0.717,1.862-2.687,1.841
		c-1.338-0.021-1.876-1.409-1.876-1.409c-0.154-0.281-0.274-0.707-0.336-0.959c-0.016,0.052-0.034,0.107-0.061,0.173
		c-0.303,0.776-1.055,2.129-2.208,2.147c-2.118,0-2.207-3.286-2.207-3.286c-0.612,1.458-1.812,3.325-4.045,3.312
		c-2.233-0.015-2.5-0.819-2.5-0.935s-0.039-0.242,0.217-0.614c0.254-0.369,0.472-0.523,0.65-0.523s0.497,0.27,0.497,0.27
		s0.485,0.472,1.034,0.472c0.701-0.025,0.854-0.587,0.905-1.162c0.052-0.576-0.356-1.189-0.918-1.701
		C32.895,8.75,32.46,8.367,32.46,8.367c-0.804,1.355-1.417,2.275-1.862,3.067c-1.085,1.765-2.161,2.038-2.577,1.983
		c-0.575-0.079-1.124-0.666-1.148-2.38c-0.026-1.712,0.127-4.64,0.127-4.793s-0.141-0.076-0.141-0.076
		c-2.144,2.275-2.781,6.954-2.781,7.044c0,0.088-0.192,0.19-0.383,0.19c-0.192,0,0.062-0.013-0.702-0.037
		c-0.766-0.027-0.715-1.483-0.715-1.483l0.052-6.967c0.013-0.231,0.229-0.333,0.957-0.141c0.727,0.192,0.701,0.435,0.701,0.435
		l-0.025,4.039c1.876-5.534,3.292-4.666,4.147-4.244c0.854,0.422,0.74,1.036,0.74,1.036s-0.09,3.042-0.128,4.118
		c-0.038,1.073,0.114,1.496,0.356,1.533c0.601,0.141,2.731-3.975,2.731-3.975c-0.944-1.023-0.429-2.272,0.307-2.813
		c0.499-0.368,1.11-0.409,1.11-0.409s0.956-0.051,0.931,0.754C34.183,6.129,33.2,7.205,33.2,7.205
		c1.901,1.355,2.795,2.07,2.936,3.119c0.062,0.502-0.051,0.818-0.051,0.818c1.352-1.176,1.454-2.494,1.454-2.494l0.025-4.398
		l-2.004-0.024c0,0-0.152-0.013-0.179-0.384c0-0.703,0.37-0.997,0.37-0.997l1.914,0.026c0,0,0.064-1.982,0.077-2.301
		c0.063-0.461,0.357-0.525,1.199-0.307c0.843,0.217,0.843,0.409,0.843,0.409l-0.103,2.314c0,0,2.105,0.102,2.386,0.127
		c0.281,0.026,0.37,0.104,0.307,0.576C42.311,4.16,42.03,4.276,42.03,4.276l-2.373,0.052l-0.166,5.101
		c0,0.792,0.038,2.659,0.778,2.647c1.033,0.05,1.646-2.263,1.646-2.263l0.012-0.019C41.915,9.433,41.923,9,41.974,8.514
		c0.196-1.857,1.025-4.037,2.929-4.037c0,0,1.159-0.041,1.771,1.115l0.021-0.42c0,0-0.042-0.505,0.759-0.378
		c0.801,0.126,1.074,0.441,1.053,0.693c0,0-0.146,3.239-0.062,5.152c0.106,1.113,0.298,1.77,0.863,1.726
		c0.487-0.072,0.834-0.738,1.043-1.307c-0.708-5.889,2.516-6.603,2.516-6.603s1.426-0.104,2.076,1.085l0.021-0.396
		c0,0-0.063-0.522,0.691-0.375c0,0,0.316,0.041,0.651,0.167c0.336,0.124,0.44,0.208,0.44,0.521c0,0.313-0.062,5.815-0.062,5.815
		s1.679-2.252,2.098-4.445c0,0-0.587-0.438-0.545-1.065c0.042-0.625,0.355-1.377,1.279-1.377c0.923,0,0.965,0.814,0.818,1.377
		c0,0,0.777-0.103,1.447-0.271c0.673-0.167,1.575-0.271,1.638,0.772c0.042,0.376-0.126,0.668-0.126,0.668s-0.525,2.316-0.441,3.255
		c0.085,0.94,0.336,2.358,1.07,2.191c0.733-0.166,0.986-1.21,0.986-1.21s-0.295-1.207-0.146-2.609
		c0.194-1.846,1.02-4.007,2.915-4.007c0,0,1.154-0.041,1.763,1.107l0.022-0.417c0,0-0.042-0.501,0.755-0.376
		c0.797,0.125,1.07,0.438,1.049,0.688c0,0-0.147,3.214-0.063,5.113c0.108,1.104,0.298,1.755,0.861,1.711
		c0.542-0.016,1.001-0.934,1.284-1.682l-0.006-0.276l0.021-5.428c0.044-0.31,0.325-0.329,0.325-0.329l0.651,0.101
		c0.913,0.136,0.786,0.484,0.786,0.484v3.069c0.679-2.083,1.005-2.877,1.312-3.408c0.263-0.451,1.122-0.155,1.122-0.155
		S78.49,5,78.509,5.859C78.48,7.275,78.68,9.582,78.68,9.582c0.004,0.037,0.035,0.048,0.053,0.033
		c0.014-0.013,0.015-0.051,0.015-0.051c0.186-1.483,1.031-3.921,1.368-4.554c0.338-0.634,1.314-0.183,1.314-0.183
		c1.17,0.403,1.013,1.096,1.013,1.096c-0.35,5.958,0.387,6.347,0.821,6.384c0.433,0.036,0.662-0.523,0.758-0.793
		c0.098-0.268,0.217-0.853,0.289-1.084c0.074-0.231,0.304-0.244,0.304-0.244S84.879,10.247,84.879,10.467z M45.366,5.906
		c-0.41,0.016-1.375,0.284-1.548,2.965c-0.174,2.68,0.537,3.375,1.138,3.454c0.6,0.08,1.659-0.882,1.723-3.737
		C46.742,5.733,45.366,5.906,45.366,5.906z M53.773,5.918c-0.417,0.016-1.467,0.381-1.703,2.977c-0.177,2.716,0.545,3.42,1.155,3.5
		c0.609,0.081,1.684-0.895,1.748-3.787C55.037,5.715,53.773,5.918,53.773,5.918z M55.181,14.247c-2.375,2.053-2.581,3.52-2.581,3.52
		s-0.233,1.201,0.91,1.262c1.374,0.14,1.605-1.531,1.642-2.992C55.169,15.347,55.181,14.247,55.181,14.247z M68.205,6.001
		c-0.412,0.017-1.376,0.285-1.549,2.966c-0.174,2.681,0.537,3.376,1.137,3.454c0.602,0.079,1.66-0.883,1.724-3.737
		C69.58,5.829,68.205,6.001,68.205,6.001z"/>
	<path display="inline" d="M6.938,25.864c1.759-1.727,2.849-1.778,2.849-1.778s0.344-0.052,1.176,0.241
		c0.832,0.291,0.867,0.738,0.867,0.738v12.631c0.107,3.532-0.774,4.893-1.829,5.837c-0.6,0.487-1.081,0.548-1.139,0.548
		c-0.147,0-0.259-0.016-0.285-0.214c-0.024-0.194,0.155-0.712,0.155-0.712c0.533-1.349,0.488-3.682,0.488-3.682l0.054-13.609
		c0,0,0.042-0.249-0.172-0.175c-2.077,1.788-2.335,4.305-2.404,5.523c-0.033,1.829,0.76,2.773,0.76,2.773s0.206,0.18,0.18,0.438
		c0,0.349-0.322,0.322-0.322,0.322c-0.78-0.073-2.024-0.957-2.471-2.022c-0.368-0.786-0.361-1.636-0.361-1.636
		C4.511,30.02,5.18,27.59,6.938,25.864z M97.516,37.932c0,4.062-2.46,3.997-2.46,3.997c-2.343,0.083-2.94-2.391-3.088-4.907
		c-0.112-1.892,0-3.996,0-3.996s-0.018-0.098-0.081,0c-0.782,1.421-1.314,3.578-1.576,5.247c-0.19,1.211-0.21,2.227-0.21,2.227
		s0.031,0.227-0.16,0.357c-1.271,0.585-2.089-0.245-2.38-1.169c-0.387-0.879-0.61-6.159-0.61-6.436c0-0.275-0.227-0.064-0.227-0.064
		c-1.752,2.939-1.768,7.262-1.768,8.139c0,0.88-1.497,0.603-1.497,0.603c-1.27-0.098-1.221-0.714-1.221-0.714l-0.062-1.049
		c-0.441,0.814-1.26,1.872-2.521,1.787c-1.912-0.122-2.281-2.101-2.31-2.434c0,0-0.951,2.462-3.567,2.434
		c-1.777-0.026-2.49-1.863-2.49-1.863s-0.714,1.922-2.46,1.852c-1.752-0.069-3.192-2.089-3.082-4.705
		c0.115-2.615,0.519-3.923,0.519-3.923s0.142-0.267-0.098-0.278c-0.236-0.016-1.748,0.025-1.748,0.025s-0.854,3.425-4.464,7.685
		c0,0,0.028,1.331,0.028,2.811c-0.002,2.799-0.351,6.557-4.142,6.861c-3.28-0.223-3.096-2.751-3.096-2.751
		c-0.078-0.743,0.393-2.111,2.348-3.949c1.956-1.84,2.737-2.544,2.737-2.544l-0.078-1.172c-1.251,2.072-3.167,1.954-3.167,1.954
		s-1.481,0.303-2.725-1.9c-0.366,0.755-1.198,2.042-2.559,1.892c-1.91-0.211-2.291-2.118-2.318-2.455c0,0-0.956,2.483-3.583,2.455
		c-1.784-0.029-2.502-1.879-2.502-1.879c-0.206-0.376-0.366-0.943-0.448-1.279c-0.021,0.069-0.046,0.144-0.081,0.231
		c-0.403,1.034-1.406,2.838-2.944,2.863c-2.825,0-2.943-4.382-2.943-4.382c-0.816,1.943-2.417,4.434-5.395,4.416
		c-2.979-0.02-3.334-1.092-3.334-1.246c0-0.152-0.052-0.322,0.29-0.818c0.339-0.493,0.629-0.698,0.868-0.698
		c0.238,0,0.663,0.359,0.663,0.359s0.647,0.629,1.379,0.629c0.935-0.033,1.14-0.783,1.208-1.55c0.069-0.768-0.475-1.586-1.224-2.268
		c-0.749-0.684-1.328-1.194-1.328-1.194c-1.072,1.808-1.89,3.034-2.484,4.091c-1.447,2.354-2.882,2.719-3.437,2.646
		c-0.767-0.106-1.499-0.888-1.532-3.175c-0.035-2.282,0.169-6.188,0.169-6.392c0-0.205-0.188-0.102-0.188-0.102
		c-2.859,3.033-3.709,9.273-3.709,9.394c0,0.117-0.257,0.255-0.511,0.255c-0.256,0,0.083-0.017-0.937-0.05
		c-1.021-0.037-0.954-1.979-0.954-1.979l0.07-9.292c0.017-0.308,0.306-0.443,1.276-0.188c0.969,0.256,0.935,0.58,0.935,0.58
		l-0.034,5.387c2.502-7.381,4.39-6.223,5.531-5.66c1.14,0.562,0.988,1.381,0.988,1.381s-0.12,4.058-0.171,5.491
		c-0.051,1.432,0.152,1.995,0.476,2.045c0.801,0.187,3.643-5.302,3.643-5.302c-1.259-1.365-0.572-3.03,0.409-3.752
		c0.666-0.49,1.481-0.545,1.481-0.545s1.275-0.068,1.241,1.006c0.034,1.176-1.276,2.609-1.276,2.609
		c2.536,1.808,3.728,2.762,3.915,4.16c0.084,0.669-0.067,1.091-0.067,1.091c1.802-1.569,1.939-3.326,1.939-3.326l0.034-5.865
		l-2.673-0.032c0,0-0.204-0.018-0.238-0.513c0-0.938,0.494-1.329,0.494-1.329l2.552,0.034c0,0,0.086-2.644,0.103-3.069
		c0.084-0.615,0.477-0.699,1.6-0.408c1.124,0.289,1.124,0.545,1.124,0.545l-0.137,3.086c0,0,2.808,0.137,3.182,0.17
		c0.375,0.034,0.493,0.138,0.409,0.768c-0.086,0.629-0.46,0.785-0.46,0.785l-3.165,0.068l-0.221,6.802
		c0,1.057,0.05,3.546,1.038,3.531c1.377,0.065,2.195-3.02,2.195-3.02l0.016-0.024c-0.017-0.48-0.006-1.059,0.062-1.707
		c0.262-2.477,1.367-5.384,3.906-5.384c0,0,1.546-0.055,2.361,1.487l0.029-0.562c0,0-0.056-0.673,1.012-0.505
		c1.067,0.169,1.432,0.588,1.403,0.926c0,0-0.195,4.319-0.083,6.871c0.142,1.483,0.397,2.36,1.152,2.302
		c0.649-0.097,1.111-0.985,1.391-1.743c-0.945-7.854,3.354-8.806,3.354-8.806s1.901-0.139,2.77,1.447l0.028-0.528
		c0,0-0.085-0.695,0.922-0.5c0,0,0.422,0.055,0.868,0.222c0.448,0.165,0.587,0.278,0.587,0.694c0,0.418-0.082,7.755-0.082,7.755
		s2.238-3.004,2.797-5.927c0,0-0.782-0.584-0.727-1.421c0.056-0.834,0.475-1.837,1.706-1.837c1.23,0,1.287,1.086,1.092,1.837
		c0,0,1.037-0.138,1.93-0.36c0.896-0.224,2.101-0.361,2.185,1.029c0.055,0.501-0.168,0.891-0.168,0.891s-0.701,3.089-0.59,4.342
		c0.114,1.254,0.448,3.145,1.428,2.923c0.979-0.223,1.315-1.614,1.315-1.614s-0.394-1.609-0.194-3.479
		c0.259-2.462,1.358-5.345,3.887-5.345c0,0,1.539-0.055,2.351,1.477l0.03-0.557c0,0-0.056-0.668,1.007-0.502
		c1.063,0.167,1.428,0.584,1.398,0.918c0,0-0.196,4.286-0.085,6.819c0.146,1.473,0.397,2.342,1.148,2.283
		c0.724-0.022,1.336-1.245,1.713-2.244l-0.008-0.368l0.027-7.24c0.059-0.412,0.435-0.438,0.435-0.438l0.868,0.135
		c1.219,0.182,1.048,0.646,1.048,0.646v4.093c0.906-2.778,1.341-3.837,1.75-4.544c0.351-0.603,1.497-0.207,1.497-0.207
		s1.241,0.328,1.267,1.474c-0.038,1.888,0.228,4.965,0.228,4.965c0.006,0.049,0.047,0.064,0.07,0.044
		c0.019-0.017,0.02-0.068,0.02-0.068c0.248-1.979,1.376-5.229,1.825-6.074s1.752-0.244,1.752-0.244
		c1.562,0.537,1.351,1.463,1.351,1.463c-0.466,7.944,0.517,8.465,1.096,8.514c0.577,0.049,0.883-0.697,1.011-1.058
		c0.131-0.356,0.289-1.137,0.386-1.446c0.099-0.308,0.405-0.324,0.405-0.324S97.516,37.639,97.516,37.932z M44.821,31.85
		c-0.547,0.021-1.834,0.379-2.065,3.954c-0.231,3.574,0.716,4.502,1.518,4.606c0.8,0.105,2.212-1.176,2.297-4.984
		C46.655,31.619,44.821,31.85,44.821,31.85z M56.032,31.865c-0.556,0.021-1.956,0.508-2.271,3.97
		c-0.235,3.622,0.727,4.562,1.541,4.667c0.812,0.108,2.245-1.193,2.331-5.051C57.718,31.594,56.032,31.865,56.032,31.865z
		 M57.909,42.973c-3.167,2.738-3.442,4.693-3.442,4.693s-0.312,1.603,1.214,1.684c1.833,0.186,2.141-2.042,2.189-3.99
		C57.894,44.439,57.909,42.973,57.909,42.973z M75.278,31.976c-0.549,0.022-1.834,0.38-2.065,3.955s0.716,4.503,1.517,4.607
		c0.802,0.104,2.214-1.179,2.299-4.985C77.112,31.746,75.278,31.976,75.278,31.976z"/>
</g>
<g id="Capa_4" display="none">
	<g id="g8" display="inline">
		<path id="path10" fill="#3B5998" d="M52.841,9.758c-0.722,0-1.242,0.236-1.771,0.477v5.457c0.506,0.049,0.796,0.049,1.275,0.049
			c1.732,0,1.97-0.794,1.97-1.901v-2.605C54.315,10.415,54.045,9.758,52.841,9.758z M41.335,9.46c-1.202,0-1.476,0.66-1.476,1.477
			v0.459h2.951v-0.459C42.81,10.12,42.536,9.46,41.335,9.46z M19.046,15.139c0,0.647,0.306,0.983,0.979,0.983
			c0.722,0,1.149-0.236,1.677-0.479V14.35h-1.58C19.375,14.35,19.046,14.489,19.046,15.139z M64.033,9.758
			c-1.205,0-1.621,0.656-1.621,1.475v2.984c0,0.82,0.416,1.479,1.621,1.479c1.2,0,1.621-0.659,1.621-1.479v-2.984
			C65.653,10.415,65.232,9.758,64.033,9.758z M13.146,18.487h-3.54V9.919H7.838V6.968h1.769V5.195c0-2.409,0.998-3.841,3.834-3.841
			h2.362v2.953h-1.476c-1.104,0-1.178,0.414-1.178,1.183l-0.004,1.478h2.675l-0.313,2.951h-2.362V18.487z M25.242,18.509h-2.95
			l-0.128-0.746c-1.346,0.746-2.548,0.867-3.342,0.867c-2.163,0-3.314-1.444-3.314-3.444c0-2.357,1.343-3.199,3.747-3.199h2.447
			v-0.51c0-1.204-0.138-1.558-1.989-1.558h-3.026l0.296-2.951h3.308c4.062,0,4.952,1.283,4.952,4.532V18.509z M35.273,10.137
			c-1.836-0.316-2.363-0.385-3.247-0.385c-1.586,0-2.065,0.35-2.065,1.698v2.548c0,1.348,0.479,1.699,2.065,1.699
			c0.883,0,1.411-0.07,3.247-0.388v2.881c-1.608,0.359-2.656,0.455-3.541,0.455c-3.8,0-5.311-1.999-5.311-4.886v-2.067
			c0-2.89,1.51-4.891,5.311-4.891c0.885,0,1.932,0.096,3.541,0.458V10.137z M46.349,13.76h-6.491v0.238
			c0,1.348,0.48,1.699,2.065,1.699c1.426,0,2.296-0.07,4.128-0.388v2.881c-1.767,0.359-2.688,0.455-4.422,0.455
			c-3.8,0-5.311-1.999-5.311-4.886v-2.364c0-2.525,1.122-4.594,5.015-4.594c3.894,0,5.015,2.044,5.015,4.594V13.76z M57.854,13.815
			c0,2.789-0.797,4.824-5.627,4.824c-1.745,0-2.769-0.152-4.694-0.449V2.241l3.538-0.589v5.578c0.766-0.283,1.755-0.428,2.654-0.428
			c3.539,0,4.129,1.587,4.129,4.137V13.815L57.854,13.815z M69.195,13.876c0,2.406-0.992,4.741-5.15,4.741
			c-4.16,0-5.172-2.335-5.172-4.741v-2.325c0-2.408,1.012-4.741,5.172-4.741c4.158,0,5.15,2.333,5.15,4.741V13.876z M80.529,13.876
			c0,2.406-0.995,4.741-5.15,4.741c-4.159,0-5.173-2.335-5.173-4.741v-2.325c0-2.408,1.014-4.741,5.173-4.741
			c4.155,0,5.15,2.333,5.15,4.741V13.876z M92.162,18.487h-3.836l-3.244-5.415v5.415h-3.538V2.241l3.538-0.589v10.458l3.244-5.142
			h3.836l-3.542,5.609L92.162,18.487z M75.365,9.758c-1.201,0-1.619,0.656-1.619,1.475v2.984c0,0.82,0.418,1.479,1.619,1.479
			c1.202,0,1.627-0.659,1.627-1.479v-2.984C76.992,10.415,76.567,9.758,75.365,9.758z"/>
	</g>
</g>
<g id="Capa_5" display="none">
	<g display="inline">
		<path fill="#76A9EA" d="M29.067,0.965v1.453h-6.239v16.436h-1.703V2.418h-6.214V0.965H29.067z"/>
		<path fill="#76A9EA" d="M28.04,5.925l3.307,11.074h0.051l3.156-11.074h1.779l3.157,11.074h0.05l3.307-11.074h1.679l-4.158,12.928
			h-1.729L35.456,7.98h-0.05l-3.157,10.874h-1.729L26.361,5.925H28.04z"/>
		<path fill="#76A9EA" d="M47.833,0.965v2.53h-1.578v-2.53H47.833z M47.833,5.925v12.928h-1.578V5.925H47.833z"/>
		<path fill="#76A9EA" d="M56.001,5.925v1.328H53.37v8.719c0,0.518,0.07,0.923,0.213,1.215c0.142,0.292,0.497,0.455,1.064,0.488
			c0.451,0,0.902-0.024,1.354-0.075v1.328c-0.234,0-0.468,0.008-0.702,0.025c-0.233,0.016-0.468,0.024-0.701,0.024
			c-1.053,0-1.788-0.204-2.205-0.613c-0.418-0.409-0.618-1.165-0.602-2.268V7.253h-2.255V5.925h2.255V2.042h1.579v3.883H56.001z"/>
		<path fill="#76A9EA" d="M63.417,5.925v1.328h-2.631v8.719c0,0.518,0.07,0.923,0.213,1.215c0.142,0.292,0.497,0.455,1.064,0.488
			c0.451,0,0.902-0.024,1.354-0.075v1.328c-0.234,0-0.468,0.008-0.702,0.025c-0.233,0.016-0.468,0.024-0.701,0.024
			c-1.052,0-1.787-0.204-2.205-0.613c-0.417-0.409-0.618-1.165-0.601-2.268V7.253h-2.255V5.925h2.255V2.042h1.578v3.883H63.417z"/>
		<path fill="#76A9EA" d="M66.861,14.582c0.159,0.609,0.414,1.156,0.765,1.641s0.793,0.886,1.328,1.203
			c0.534,0.317,1.177,0.476,1.929,0.476c1.152,0,2.055-0.301,2.706-0.902c0.651-0.601,1.103-1.402,1.353-2.404h1.579
			c-0.335,1.47-0.948,2.605-1.842,3.407s-2.159,1.202-3.796,1.202c-1.019,0-1.9-0.18-2.644-0.538
			c-0.743-0.359-1.349-0.853-1.816-1.479s-0.813-1.354-1.039-2.18c-0.226-0.827-0.339-1.699-0.339-2.618
			c0-0.853,0.113-1.687,0.339-2.506c0.226-0.818,0.571-1.549,1.039-2.192s1.073-1.161,1.816-1.554
			c0.743-0.392,1.625-0.588,2.644-0.588c1.035,0,1.921,0.209,2.656,0.626c0.734,0.418,1.331,0.965,1.791,1.641
			c0.459,0.677,0.789,1.453,0.989,2.33c0.201,0.876,0.284,1.766,0.251,2.668h-9.946C66.624,13.384,66.703,13.973,66.861,14.582z
			 M74.679,9.759c-0.192-0.551-0.464-1.04-0.814-1.466c-0.351-0.426-0.776-0.768-1.277-1.027c-0.501-0.259-1.069-0.388-1.704-0.388
			c-0.651,0-1.228,0.129-1.729,0.388c-0.501,0.259-0.927,0.602-1.278,1.027c-0.351,0.426-0.63,0.919-0.839,1.479
			s-0.347,1.131-0.413,1.716h8.368C74.975,10.886,74.87,10.31,74.679,9.759z"/>
		<path fill="#76A9EA" d="M80.152,5.925v3.032h0.051c0.4-1.052,1.022-1.862,1.866-2.43s1.85-0.827,3.02-0.777v1.579
			c-0.719-0.033-1.37,0.062-1.955,0.288c-0.584,0.226-1.09,0.547-1.516,0.964c-0.426,0.418-0.756,0.915-0.989,1.491
			c-0.234,0.576-0.351,1.208-0.351,1.892v6.89h-1.579V5.925H80.152z"/>
	</g>
</g>
<g id="Capa_6" display="none">
	<path display="inline" fill-rule="evenodd" clip-rule="evenodd" fill="#009ADA" d="M82.337,11.101
		c-0.11-1.608-0.774-3.178-2.257-3.895c-1.362-0.659-3.943-0.485-5.317,0.109c-4.955,2.328-4.666,6.55-4.851,7.537
		c-0.882,0.59-2.375,1.025-3.728,1.207c-1.189,0.159-2.479,0.098-3.207-0.467c2.47-0.98,8.576-4.018,6.578-7.564
		c-1.963-3.617-13.066-0.041-11.292,7.847c-1.018,0.637-1.423,0.453-1.672-0.529c-0.044-1.747,0.405-3.09,0.657-4.632
		c0.085-0.515,0.19-1.069,0.138-1.617c-0.091-0.944-0.769-1.882-1.81-1.974c-2.965,0-4.545,2.163-5.289,2.659
		c-0.296-0.713,0.739-2.631-2.274-2.631c-2.298-0.143-3.826,1.397-4.934,2.356c-0.152-0.561-0.205-1.208-0.438-1.727
		c-0.196-0.434-0.58-0.911-1.069-0.986c-0.494-0.076-1.043,0.263-1.398,0.521c-1.089,0.792-2.196,1.837-2.933,2.823
		c0.4,0.742,1.542,0.23,2.275,0.137c-0.032,0.729-0.089,1.491-0.192,2.22c-0.162,1.146-0.193,2.138-1.206,2.851
		c-0.609,0.429-1.463,0.797-1.781-0.137c-0.308-0.904-0.044-1.968,0.132-2.872c0.219-1.128,0.336-2.268,0.498-3.405
		c0.087-0.609,0.195-1.085-0.245-1.601c-0.339-0.398-0.873-0.642-1.399-0.591c-1.399,0.133-2.059,1.408-3.042,2.028
		c0.499-1.982-1.088-2.546-2.677-2.304c-0.631,0.097-2.764,1.038-3.49,3.29c1.287-0.098,1.96,0.093,1.836,1.508
		c-0.051,0.594-0.351,1.242-0.685,1.863c-0.386,0.718-1.11,2.125-2.059,1.111c-0.854-0.914-0.789-2.66-0.984-3.824
		C24.114,9.759,24,8.946,23.786,8.274c-0.184-0.579-0.606-1.273-1.124-1.425c-0.555-0.163-1.241,0.092-1.644,0.329
		c-1.283,0.754-2.261,1.829-3.371,2.713v0.082c0.219,0.21,0.279,0.556,0.603,0.603c0.764,0.112,1.492-0.713,2,0.146
		c0.31,0.523,0.405,1.099,0.604,1.663c0.265,0.754,0.469,1.573,0.685,2.438c0.366,1.466,0.815,3.656,2.083,4.193
		c0.647,0.274,1.619-0.092,2.11-0.383c1.334-0.79,2.372-1.934,3.261-3.098c0.883-1.154,1.771-2.506,2.467-3.892
		c0.427-0.849,0.711-1.568,1.918-1.398c-0.08,1.768-0.631,3.268-0.959,4.796c-0.116,0.538-0.266,1.125-0.274,1.672
		c-0.015,0.978,0.393,1.936,1.124,2.138c0.54,0.15,1.293,0.093,1.809,0.055c1.748-0.127,3.282-1.281,4.232-2.23
		c0.525,0.635,1.19,2.259,3.669,2.259c-1.138-2.492-0.406-8.467,2.65-8.196c0.895,0.345,0.492,1.845,0.301,2.686
		c-0.132,0.583-1.326,5.944,3.316,5.536c0-1.018-0.404-6.662,2.638-8.161c0.273-0.141,1.229-0.148,1.281,0.323
		c0.237,2.13-0.746,4.038-0.713,6.193c0.025,3.399,5.284,0.545,6.44-0.109c0.664,0.488,2.626,2.42,7.126,1.398
		c0.847-0.214,1.592-0.438,2.275-0.768c0.718-0.347,1.382-0.727,2.11-0.959c-0.099,0.031,0.859,1.18,0.965,1.26
		c0.46,0.354,1.017,0.586,1.566,0.763c1.276,0.409,2.634,0.259,3.922-0.046c2.598-0.615,4.355-2.574,5.16-5.066
		C82.277,12.988,82.4,12.038,82.337,11.101z M64.496,9.82c0.562-0.29,1.497-0.411,1.684,0.543c0.212,1.083-1.556,3.186-4.025,4.173
		C61.213,12.816,62.972,10.633,64.496,9.82z M77.936,14.507c-0.49,0.88-1.339,1.753-2.355,1.976
		c-1.984,0.434-1.835-2.455-1.502-3.658c0.144-0.52,0.354-0.95,0.575-1.344c0.441-0.784,1.061-1.646,1.948-1.952
		c0.061-0.021,0.122-0.039,0.185-0.054c0.904-0.222,1.55,0.417,1.837,1.228C79.083,12.004,78.572,13.361,77.936,14.507z
		 M37.038,4.009c0.923-0.735,1.207-1.913,0.634-2.632c-0.573-0.719-1.784-0.707-2.707,0.028s-1.207,1.913-0.634,2.632
		C34.902,4.756,36.115,4.744,37.038,4.009z"/>
</g>
<g id="Capa_7" display="none">
	<g display="inline">
		<path fill="#00B489" d="M68.644,15.587c3.744,0.1,6.519-1.322,6.519-4.106c0-2.053-1.585-3.553-4.084-3.553
			c-3.352,0-5.095,2.576-5.791,5.327c-0.407,1.608-1.027,3.72-2.266,3.72c-0.775,0-0.988-0.776-0.988-1.744c0-0.774,0-2.188,0-3.234
			c0-2.654-1.298-4.068-3.332-4.068c-1.801,0-3.195,1.085-3.989,2.402l-0.077-2.228c-0.678,0-2.614,0-2.614,0
			s-0.29,8.872-3.215,8.872c-1.007,0-1.337-1.146-1.337-2.441V8.102h-2.556c-1.356,1.53-3.175,1.995-4.532,1.995
			c-2.44,0-4.319-1.705-4.319-4.668c0-1.453,0.562-2.208,1.357-2.208c0.755,0,1.258,0.678,1.258,2.053
			c0,0.782-0.21,1.639-0.364,2.146c0,0,0.752,1.312,2.808,0.909c0.437-0.969,0.674-2.224,0.674-3.326
			c0-2.963-1.511-4.688-4.281-4.688C34.667,0.315,33,2.504,33,5.39c0,2.859,1.337,5.313,3.542,6.432
			c-0.928,1.854-2.106,3.486-3.336,4.716c-2.231-2.696-4.249-6.295-5.076-13.317h-3.292c1.521,11.695,6.054,15.419,7.252,16.135
			c0.677,0.406,1.261,0.388,1.881,0.038c0.973-0.553,3.895-3.475,5.515-6.896c1.453-0.004,3.532-0.348,4.864-1.355v3.331
			c0,3.758,1.434,5.211,3.661,5.211c1.787,0,3.166-1.393,3.835-2.955v2.742h3.079v-3.234c0-3.7,1.239-5.501,2.789-5.501
			c0.871,0,1.239,0.581,1.239,2.054c0,0.87,0,2.092,0,2.943c0,2.498,1.316,3.951,3.293,3.951c1.623,0,3.08-1.267,3.653-2.867
			c0.979,2.023,3.233,2.867,5.198,2.867c1.484,0,2.694-0.309,3.639-0.87v-2.808c-0.799,0.543-1.783,1.005-3.213,1.005
			C70.16,17.012,69.133,16.58,68.644,15.587z M71.059,10.639c0.853,0,1.256,0.455,1.256,1.016c0,0.744-0.692,2.006-3.975,2.043
			C68.47,11.898,69.651,10.639,71.059,10.639z"/>
		<path fill="#00B489" d="M46.087,6.494c1.181,0,1.995-0.891,1.995-2.034c0-1.143-0.814-2.014-1.995-2.014
			c-1.182,0-1.976,0.794-1.976,2.014S44.906,6.494,46.087,6.494z"/>
	</g>
</g>
<g id="Capa_8" display="none">
	<g display="inline">
		<g>
			<path fill="#4285CE" d="M67.554,1.589c0-0.777,0.646-1.407,1.442-1.407h16.627c0.797,0,1.442,0.63,1.442,1.407V18.41
				c0,0.778-0.646,1.407-1.442,1.407H68.996c-0.797,0-1.442-0.629-1.442-1.407V1.589L67.554,1.589z"/>
		</g>
		<polygon fill="#231F20" points="12.935,16.63 21.077,16.63 21.077,13.956 15.881,13.956 15.881,4.019 12.935,4.019 12.935,16.63 
					"/>
		<path fill-rule="evenodd" clip-rule="evenodd" fill="#231F20" d="M25.2,16.63V7.763h-2.947v8.867H25.2L25.2,16.63z M23.726,6.553
			c1.028,0,1.668-0.681,1.668-1.532c-0.019-0.87-0.64-1.531-1.647-1.531s-1.667,0.662-1.667,1.531c0,0.851,0.639,1.532,1.628,1.532
			H23.726L23.726,6.553z"/>
		<path fill-rule="evenodd" clip-rule="evenodd" fill="#231F20" d="M26.568,16.63h2.946v-4.952c0-0.265,0.021-0.529,0.098-0.719
			c0.213-0.529,0.698-1.078,1.512-1.078c1.067,0,1.494,0.813,1.494,2.004v4.744h2.946v-5.084c0-2.724-1.454-3.991-3.394-3.991
			c-1.589,0-2.288,0.889-2.675,1.495h0.019V7.763h-2.946C26.606,8.595,26.568,16.63,26.568,16.63L26.568,16.63z"/>
		<path fill="#231F20" d="M39.721,4.019h-2.946V16.63h2.946v-2.875l0.736-0.927l2.309,3.802h3.625l-3.877-5.504l3.393-3.745h-3.548
			c0,0-2.423,3.35-2.638,3.747V4.019L39.721,4.019z"/>
		<path fill-rule="evenodd" clip-rule="evenodd" fill="#231F20" d="M54.271,12.932c0.039-0.229,0.098-0.665,0.098-1.158
			c0-2.293-1.163-4.62-4.228-4.62c-3.276,0-4.789,2.591-4.789,4.942c0,2.907,1.843,4.723,5.061,4.723
			c1.28,0,2.462-0.188,3.433-0.586l-0.389-1.947c-0.795,0.265-1.608,0.396-2.617,0.396c-1.377,0-2.578-0.565-2.676-1.771
			L54.271,12.932L54.271,12.932z M48.146,10.938c0.077-0.758,0.581-1.875,1.842-1.875c1.338,0,1.646,1.193,1.646,1.875H48.146
			L48.146,10.938z"/>
		<path fill-rule="evenodd" clip-rule="evenodd" fill="#FFFFFF" d="M73.468,16.619V7.752h-2.946v8.867H73.468L73.468,16.619z
			 M71.995,6.542c1.027,0,1.667-0.682,1.667-1.532c-0.019-0.87-0.64-1.532-1.648-1.532c-1.008,0-1.666,0.662-1.666,1.532
			c0,0.85,0.64,1.532,1.628,1.532H71.995L71.995,6.542z"/>
		<path fill-rule="evenodd" clip-rule="evenodd" fill="#FFFFFF" d="M75.1,16.619h2.946v-4.952c0-0.265,0.019-0.529,0.098-0.719
			c0.213-0.529,0.697-1.079,1.512-1.079c1.066,0,1.492,0.814,1.492,2.005v4.744h2.948v-5.084c0-2.724-1.454-3.991-3.394-3.991
			c-1.591,0-2.288,0.889-2.675,1.494h0.019V7.752H75.1C75.139,8.584,75.1,16.619,75.1,16.619L75.1,16.619z"/>
		<path fill-rule="evenodd" clip-rule="evenodd" fill="#231F20" d="M61.905,4.175v4.193h-0.039c-0.427-0.624-1.318-1.04-2.5-1.04
			c-2.27,0-4.266,1.815-4.247,4.917c0,2.874,1.804,4.747,4.053,4.747c1.221,0,2.384-0.529,2.967-1.552h0.058l0.116,1.344h2.617
			c-0.039-0.625-0.078-1.702-0.078-2.761v-9.85H61.905L61.905,4.175z M61.905,12.681c0,0.228-0.02,0.454-0.059,0.643
			c-0.174,0.814-0.872,1.381-1.725,1.381c-1.222,0-2.018-0.983-2.018-2.533c0-1.457,0.679-2.629,2.036-2.629
			c0.912,0,1.552,0.624,1.726,1.399c0.039,0.17,0.039,0.359,0.039,0.53V12.681L61.905,12.681z"/>
	</g>
</g>
<g id="Capa_9" display="none">
	<g display="inline">
		<path fill="#0D389E" d="M28.787,4.411h-2.369c-0.159,0-0.292,0.133-0.292,0.293v6.066c0,0.985-0.399,1.518-1.304,1.518
			s-1.304-0.532-1.304-1.518V4.704c0-0.16-0.106-0.293-0.293-0.293h-2.395c-0.159,0-0.292,0.133-0.292,0.293v6.652
			c0,2.048,1.49,3.725,4.256,3.725c2.794,0,4.311-1.648,4.311-3.725V4.704C29.106,4.544,28.973,4.411,28.787,4.411"/>
		<path fill="#0D389E" d="M45.975,8.668l-1.73-0.585c-0.505-0.187-0.558-0.452-0.558-0.639c0-0.266,0.266-0.532,0.771-0.532
			c0.559,0,1.357,0.159,2.128,0.745c0.107,0.08,0.267,0.08,0.346-0.027l1.331-1.676c0.079-0.106,0.079-0.267-0.027-0.373
			c-1.144-0.958-2.528-1.304-3.805-1.304c-2.474,0-3.964,1.543-3.964,3.219c0,1.304,0.771,2.528,2.395,3.06l1.517,0.533
			c0.745,0.266,0.878,0.451,0.878,0.771c0,0.293-0.293,0.611-0.905,0.611c-0.852,0-1.835-0.506-2.501-1.063
			c-0.106-0.08-0.266-0.08-0.346,0.026l-1.357,1.809c-0.08,0.107-0.08,0.266,0.027,0.373c0.984,0.851,2.448,1.49,4.31,1.49
			c2.314,0,4.018-1.358,4.018-3.381C48.502,10.318,47.625,9.227,45.975,8.668"/>
		<path fill="#0D389E" d="M35.119,8.881h-1.543v-1.81h1.543c0.878,0,1.197,0.399,1.197,0.905
			C36.316,8.481,35.971,8.881,35.119,8.881 M37.461,10.982c1.276-0.639,1.915-1.597,1.915-3.06c0-1.835-1.489-3.485-4.018-3.485
			h-4.549c-0.16,0-0.267,0.16-0.267,0.292v9.898c0,0.16,0.133,0.266,0.267,0.266h2.447c0.16,0,0.267-0.133,0.267-0.266v-3.192h0.958
			l1.729,3.22c0.08,0.133,0.239,0.238,0.399,0.238h2.82c0.159,0,0.213-0.105,0.133-0.238L37.461,10.982z"/>
		<path fill="#0D389E" d="M7.793,4.411H0.689c-0.212,0-0.346,0.16-0.346,0.319v9.846c0,0.159,0.134,0.293,0.293,0.293h2.395
			c0.159,0,0.266-0.161,0.266-0.293v-3.194H6.33c0.16,0,0.293-0.105,0.319-0.266l0.452-2.181c0.027-0.133-0.026-0.266-0.213-0.266
			H3.324V7.071h4.018c0.16,0,0.292-0.106,0.319-0.266l0.426-2.049C8.112,4.597,8.006,4.411,7.793,4.411"/>
		<path fill="#0D389E" d="M98.736,7.098c0.16,0,0.293-0.107,0.32-0.267l0.426-2.048c0.026-0.186,0-0.346-0.267-0.346h-7.158
			c-0.212,0-0.318,0.16-0.318,0.319v9.844c0,0.16,0.133,0.293,0.293,0.293h6.518c0.161,0,0.294-0.105,0.32-0.266l0.426-2.048
			c0.026-0.187,0-0.346-0.267-0.346h-4.337v-1.198h3.033c0.159,0,0.293-0.106,0.319-0.267l0.453-2.182
			c0.025-0.133-0.027-0.266-0.213-0.266h-3.593V7.125h4.044V7.098z"/>
		<path fill="#0D389E" d="M75.428,10.344h-0.957l0.957-3.192l0.96,3.192H75.428z M77.397,4.65c-0.026-0.133-0.186-0.24-0.318-0.24
			h-3.272c-0.134,0-0.293,0.106-0.32,0.24l-3.006,9.978c-0.054,0.133,0.025,0.266,0.187,0.266h2.687
			c0.133,0,0.293-0.133,0.319-0.266l0.426-1.517h2.688l0.453,1.517c0.025,0.133,0.186,0.266,0.317,0.266h2.662
			c0.133,0,0.213-0.133,0.186-0.266L77.397,4.65z"/>
		<path fill="#0D389E" d="M69.655,4.411h-2.368c-0.159,0-0.293,0.133-0.293,0.293v6.066c0,0.985-0.398,1.518-1.303,1.518
			c-0.905,0-1.305-0.532-1.305-1.518V4.704c0-0.16-0.106-0.293-0.292-0.293h-2.369c-0.158,0-0.292,0.133-0.292,0.293v6.652
			c0,2.048,1.491,3.725,4.258,3.725c2.793,0,4.31-1.648,4.31-3.725V4.704C69.947,4.544,69.815,4.411,69.655,4.411"/>
		<path fill="#0D389E" d="M86.019,8.881h-1.543v-1.81h1.543c0.852,0,1.197,0.399,1.197,0.905C87.216,8.481,86.87,8.881,86.019,8.881
			 M88.359,10.982c1.277-0.639,1.916-1.597,1.916-3.06c0-1.835-1.49-3.485-4.017-3.485h-4.551c-0.16,0-0.267,0.16-0.267,0.292v9.898
			c0,0.16,0.134,0.266,0.267,0.266h2.448c0.159,0,0.266-0.133,0.266-0.266v-3.192h0.957l1.731,3.22
			c0.079,0.133,0.238,0.238,0.397,0.238h2.821c0.159,0,0.213-0.105,0.133-0.238L88.359,10.982z"/>
		<path fill="#0D389E" d="M54.701,12.312c-1.355,0-2.287-1.197-2.287-2.66c0-1.463,0.932-2.661,2.287-2.661
			c1.357,0,2.289,1.198,2.289,2.661C56.99,11.143,56.059,12.312,54.701,12.312 M60.129,13.591c-0.345,0.132-0.957,0.292-1.676,0.132
			l0,0c0.106-0.105,0.214-0.186,0.319-0.291c1.41-1.492,1.81-3.726,1.118-5.642c-0.719-1.969-2.608-3.325-4.71-3.485
			c-2.129-0.16-4.283,0.878-5.294,2.714c-1.064,1.942-0.878,4.497,0.585,6.2c1.25,1.462,3.246,2.074,5.081,1.809
			c0.026,0.025,0.054,0.053,0.08,0.08c1.038,0.958,2.688,1.516,4.124,1.516l0.586-2.874C60.343,13.643,60.263,13.537,60.129,13.591"
			/>
		<path fill="#0D389E" d="M13.833,12.312c-1.357,0-2.289-1.197-2.289-2.66c0-1.463,0.932-2.661,2.289-2.661
			c1.356,0,2.288,1.198,2.288,2.661C16.148,11.143,15.217,12.312,13.833,12.312 M14.312,4.278c-2.128-0.16-4.284,0.877-5.295,2.713
			c-1.064,1.943-0.878,4.496,0.585,6.199c2.076,2.422,6.12,2.501,8.302,0.213c1.41-1.489,1.81-3.724,1.117-5.64
			C18.303,5.794,16.415,4.464,14.312,4.278"/>
	</g>
</g>
<g id="Capa_10" display="none">
	<path id="path3005" display="inline" fill="#272525" d="M92.381,11.025c-0.078,0.39-0.213,0.721-0.398,1.013s-0.43,0.526-0.74,0.71
		c-0.301,0.176-0.68,0.273-1.129,0.273c-0.438,0-0.818-0.088-1.119-0.273c-0.312-0.184-0.555-0.418-0.75-0.71
		c-0.186-0.292-0.32-0.623-0.408-1.013c-0.088-0.389-0.127-0.778-0.127-1.178c0-0.408,0.039-0.817,0.117-1.197
		c0.076-0.389,0.213-0.729,0.398-1.021c0.186-0.302,0.43-0.536,0.74-0.73c0.303-0.185,0.682-0.282,1.129-0.282
		c0.438,0,0.807,0.097,1.109,0.282s0.555,0.438,0.75,0.74s0.33,0.651,0.418,1.031c0.088,0.389,0.127,0.779,0.127,1.178
		C92.498,10.247,92.459,10.637,92.381,11.025z M94.971,7.882c-0.186-0.652-0.457-1.217-0.828-1.713
		c-0.381-0.487-0.846-0.886-1.412-1.178c-0.564-0.292-1.244-0.448-2.033-0.448c-0.623,0-1.188,0.126-1.703,0.37
		c-0.516,0.243-0.945,0.642-1.275,1.178H87.68V4.816H85.07v13.5h2.746v-4.74h0.039c0.33,0.486,0.768,0.856,1.285,1.109
		c0.525,0.253,1.09,0.379,1.713,0.379c0.729,0,1.371-0.145,1.928-0.428c0.543-0.281,1.002-0.662,1.371-1.139
		c0.371-0.477,0.643-1.022,0.818-1.645c0.186-0.623,0.271-1.266,0.271-1.938c0-0.711-0.086-1.392-0.271-2.044V7.882z M81.43,11.025
		c-0.076,0.39-0.213,0.721-0.398,1.013c-0.184,0.292-0.428,0.526-0.738,0.71c-0.303,0.176-0.682,0.273-1.129,0.273
		c-0.439,0-0.809-0.088-1.121-0.273c-0.311-0.184-0.555-0.418-0.75-0.71c-0.184-0.292-0.32-0.623-0.406-1.013
		c-0.09-0.389-0.127-0.778-0.127-1.178c0-0.408,0.037-0.817,0.115-1.197c0.078-0.389,0.215-0.729,0.4-1.021
		c0.184-0.302,0.428-0.536,0.74-0.73c0.301-0.185,0.68-0.282,1.127-0.282c0.439,0,0.809,0.097,1.111,0.282
		c0.301,0.185,0.555,0.438,0.748,0.74c0.195,0.302,0.332,0.651,0.42,1.031c0.086,0.389,0.125,0.779,0.125,1.178
		C81.547,10.247,81.508,10.637,81.43,11.025z M83.193,6.169c-0.371-0.487-0.848-0.886-1.412-1.178
		c-0.564-0.292-1.246-0.448-2.035-0.448c-0.623,0-1.186,0.126-1.703,0.37c-0.516,0.243-0.943,0.642-1.275,1.178h-0.039V4.816h-2.607
		v13.5h2.744v-4.74h0.039c0.332,0.486,0.77,0.856,1.285,1.109c0.525,0.253,1.09,0.379,1.713,0.379c0.74,0,1.371-0.145,1.928-0.428
		c0.545-0.281,1.002-0.662,1.371-1.139c0.371-0.477,0.643-1.022,0.828-1.645c0.176-0.623,0.273-1.266,0.273-1.938
		c0-0.711-0.088-1.392-0.273-2.044c-0.186-0.652-0.457-1.217-0.836-1.713V6.169L83.193,6.169z M65.127,9.479l1.801-5.072h0.039
		l1.742,5.072H65.127z M65.418,1l-5.227,13.812h3.057l1.08-3.076h5.168l1.043,3.076h3.152L68.523,1h-3.115H65.418z M59.967,10.432
		c-0.184-0.312-0.418-0.584-0.719-0.798c-0.293-0.214-0.635-0.38-1.014-0.516c-0.379-0.126-0.77-0.233-1.168-0.331
		c-0.389-0.088-0.77-0.176-1.139-0.253c-0.371-0.077-0.711-0.166-0.992-0.263c-0.293-0.097-0.527-0.224-0.701-0.379
		c-0.186-0.156-0.273-0.351-0.273-0.604c0-0.204,0.049-0.37,0.156-0.497s0.234-0.214,0.379-0.282
		c0.146-0.068,0.312-0.108,0.498-0.127c0.184-0.019,0.35-0.029,0.506-0.029c0.486,0,0.914,0.097,1.275,0.282
		c0.359,0.185,0.564,0.545,0.594,1.07h2.607C59.93,7.083,59.764,6.578,59.5,6.168c-0.262-0.409-0.594-0.73-0.992-0.973
		c-0.398-0.244-0.857-0.418-1.363-0.525s-1.031-0.156-1.576-0.156s-1.07,0.049-1.588,0.146c-0.516,0.097-0.982,0.262-1.391,0.506
		c-0.418,0.244-0.75,0.565-0.992,0.974c-0.254,0.408-0.381,0.944-0.381,1.586c0,0.438,0.088,0.809,0.273,1.11
		c0.175,0.301,0.418,0.555,0.71,0.759c0.302,0.194,0.634,0.36,1.013,0.487c0.379,0.126,0.768,0.232,1.168,0.32
		c0.982,0.205,1.742,0.409,2.297,0.613c0.545,0.205,0.818,0.516,0.818,0.925c0,0.243-0.059,0.448-0.176,0.613
		s-0.262,0.292-0.438,0.39c-0.176,0.097-0.371,0.165-0.584,0.213c-0.215,0.05-0.42,0.068-0.613,0.068
		c-0.273,0-0.535-0.029-0.779-0.097c-0.254-0.068-0.477-0.167-0.672-0.302c-0.193-0.137-0.35-0.312-0.477-0.525
		c-0.127-0.215-0.186-0.468-0.186-0.76h-2.608c0.029,0.672,0.176,1.227,0.458,1.674c0.272,0.448,0.633,0.799,1.061,1.071
		c0.429,0.272,0.926,0.467,1.48,0.583c0.555,0.117,1.119,0.176,1.703,0.176c0.564,0,1.129-0.059,1.674-0.166
		c0.545-0.106,1.033-0.301,1.461-0.574c0.428-0.271,0.77-0.633,1.031-1.07c0.262-0.447,0.398-0.992,0.398-1.654
		c0-0.467-0.086-0.856-0.271-1.168L59.967,10.432z M48.608,1.818h-2.746v2.998h-1.664v1.839h1.664v5.899
		c0,0.506,0.088,0.905,0.253,1.216c0.166,0.312,0.399,0.546,0.691,0.721c0.292,0.165,0.624,0.282,1.003,0.341
		c0.38,0.059,0.788,0.088,1.207,0.088c0.272,0,0.545-0.01,0.837-0.02c0.282-0.01,0.544-0.039,0.769-0.078V12.69
		c-0.126,0.029-0.263,0.049-0.408,0.058c-0.146,0.01-0.292,0.02-0.448,0.02c-0.467,0-0.769-0.077-0.924-0.233
		c-0.156-0.155-0.234-0.468-0.234-0.925V6.655h2.015V4.816h-2.015V1.818L48.608,1.818z M40.733,10.947
		c0,0.156-0.019,0.361-0.049,0.623c-0.029,0.254-0.117,0.517-0.263,0.76c-0.146,0.254-0.359,0.467-0.662,0.652
		c-0.292,0.185-0.72,0.272-1.255,0.272c-0.214,0-0.428-0.02-0.643-0.058c-0.204-0.04-0.389-0.107-0.545-0.205
		c-0.155-0.098-0.272-0.224-0.37-0.398c-0.087-0.166-0.136-0.371-0.136-0.623c0-0.264,0.049-0.469,0.136-0.643
		c0.088-0.166,0.214-0.303,0.361-0.419c0.146-0.106,0.321-0.194,0.525-0.263c0.204-0.068,0.399-0.117,0.613-0.156
		c0.214-0.038,0.438-0.068,0.662-0.098s0.428-0.058,0.633-0.097c0.204-0.038,0.389-0.087,0.564-0.146s0.321-0.137,0.438-0.244v1.023
		L40.733,10.947z M43.478,12.593V7.385c0-0.603-0.136-1.089-0.408-1.459c-0.272-0.371-0.624-0.653-1.042-0.857
		C41.6,4.865,41.132,4.728,40.617,4.65c-0.516-0.068-1.022-0.107-1.528-0.107c-0.555,0-1.11,0.059-1.655,0.165
		C36.889,4.816,36.393,5,35.954,5.264c-0.438,0.263-0.798,0.603-1.081,1.022c-0.282,0.429-0.447,0.963-0.486,1.606h2.745
		c0.049-0.545,0.233-0.924,0.545-1.158s0.73-0.35,1.275-0.35c0.243,0,0.477,0.019,0.691,0.048c0.214,0.029,0.399,0.097,0.564,0.195
		c0.166,0.097,0.292,0.233,0.389,0.409c0.098,0.175,0.146,0.408,0.146,0.71c0.01,0.282-0.068,0.497-0.253,0.652
		c-0.185,0.146-0.428,0.264-0.739,0.34c-0.312,0.078-0.662,0.137-1.061,0.176c-0.399,0.039-0.808,0.088-1.217,0.156
		s-0.818,0.155-1.227,0.262c-0.409,0.107-0.77,0.273-1.081,0.497c-0.321,0.224-0.574,0.516-0.779,0.876
		c-0.204,0.37-0.302,0.838-0.302,1.402c0,0.516,0.087,0.963,0.263,1.333c0.175,0.38,0.418,0.681,0.72,0.925
		c0.312,0.243,0.672,0.428,1.081,0.545s0.856,0.176,1.333,0.176c0.623,0,1.227-0.088,1.82-0.273c0.593-0.184,1.11-0.496,1.548-0.943
		c0.009,0.165,0.039,0.33,0.068,0.496c0.029,0.156,0.078,0.32,0.126,0.477h2.784c-0.127-0.204-0.224-0.516-0.273-0.925
		c-0.048-0.409-0.078-0.847-0.078-1.294L43.478,12.593L43.478,12.593z M32.168,5.682c-0.272-0.35-0.643-0.632-1.11-0.827
		c-0.467-0.205-1.07-0.302-1.81-0.302c-0.516,0-1.042,0.136-1.586,0.399c-0.545,0.263-0.983,0.691-1.333,1.266H26.27V1.009h-2.745
		v13.813h2.745V9.576c0-1.023,0.166-1.753,0.506-2.201c0.331-0.448,0.876-0.662,1.625-0.662c0.652,0,1.12,0.204,1.373,0.613
		c0.253,0.409,0.39,1.022,0.39,1.849v5.646h2.745V8.67c0-0.623-0.059-1.187-0.166-1.693C32.635,6.47,32.44,6.032,32.168,5.682z
		 M17.655,10.529h-0.039l-2.355-9.52h-2.843l-2.395,9.403H9.984L7.794,1.01H4.757l3.66,13.812h3.076l2.297-9.403h0.039l2.336,9.403
		h3.017l1.654-6.133l2.064-7.68h-2.979L17.655,10.529z"/>
</g>
<g id="Capa_11" display="none">
	<g display="inline">
		<path d="M76.809,3.07h-3.757V0h-6.489l-3.069,3.07h-3.418L58.37,4.775V3.07H55.3V0h-11.61v3.07H29.688L26.617,0h-6.488v13.655
			l3.071,3.069l5.122,3.071h4.437v-0.687l1.705,0.687h8.275l1.464-1.705l0.188,1.705h5.417l0.113-1.705l1.954,1.705h4.783
			l0.34-1.705l1.704,1.705h5.462l1.705-1.705v1.705h3.071l2.391-1.705v1.705h3.417l5.123-3.418V6.149L76.809,3.07z M28.322,8.193
			h-3.07v3.417h3.07v3.757h-4.436l-2.391-2.391V1.366h3.757v3.07h3.07V8.193z M43.689,12.977l-2.392,2.391h-11.61V4.436h3.757v7.167
			h1.366V4.436h3.757v7.167h1.365V4.436h3.757V12.977z M48.812,15.367h-3.757V4.436h3.757V15.367z M48.812,3.07h-3.757V1.366h3.757
			V3.07z M57.004,8.193h-3.077v3.417h3.071v3.757h-4.438l-2.383-2.391V1.366h3.75v3.07h3.071v3.757H57.004z M66.562,8.193h-4.436
			v3.417h4.436v3.757h-5.801l-2.392-2.391V6.828l2.392-2.392h5.801V8.193z M78.513,15.367h-3.757V8.201h-3.07v7.166h-3.757V1.366
			h3.757v3.07h4.436l2.392,2.392V15.367z"/>
	</g>
</g>
<g id="Capa_12">
	<g>
		<path fill="#2EBD59" d="M23.855,7.616c-2.746-0.655-3.235-1.115-3.235-2.08c0-0.912,0.859-1.526,2.136-1.526
			c1.238,0,2.466,0.466,3.753,1.425c0.039,0.029,0.088,0.041,0.136,0.034c0.048-0.008,0.09-0.034,0.119-0.074l1.34-1.889
			c0.055-0.078,0.041-0.186-0.034-0.245c-1.532-1.229-3.257-1.826-5.274-1.826c-2.964,0-5.035,1.779-5.035,4.324
			c0,2.73,1.787,3.696,4.874,4.443c2.627,0.604,3.071,1.112,3.071,2.018c0,1.004-0.897,1.629-2.34,1.629
			c-1.602,0-2.91-0.54-4.372-1.806c-0.037-0.032-0.086-0.047-0.132-0.044c-0.048,0.004-0.093,0.028-0.124,0.064l-1.503,1.789
			c-0.063,0.074-0.055,0.185,0.017,0.248c1.702,1.52,3.794,2.322,6.053,2.322c3.195,0,5.259-1.746,5.259-4.447
			c0.006-2.281-1.359-3.543-4.704-4.357L23.855,7.616z"/>
		<path fill="#2EBD59" d="M35.792,4.908c-1.385,0-2.52,0.545-3.457,1.663V5.312c0-0.099-0.08-0.18-0.18-0.18h-2.458
			c-0.099,0-0.18,0.081-0.18,0.18V19.29c0,0.099,0.081,0.18,0.18,0.18h2.458c0.1,0,0.18-0.081,0.18-0.18v-4.412
			c0.937,1.051,2.073,1.564,3.457,1.564c2.573,0,5.178-1.979,5.178-5.766c0.004-3.787-2.601-5.769-5.175-5.769H35.792z
			 M38.111,10.676c0,1.928-1.188,3.274-2.889,3.274c-1.681,0-2.949-1.407-2.949-3.274c0-1.867,1.268-3.274,2.949-3.274
			C36.896,7.402,38.111,8.779,38.111,10.676L38.111,10.676z"/>
		<path fill="#2EBD59" d="M47.646,4.908c-3.313,0-5.91,2.551-5.91,5.81c0,3.222,2.579,5.748,5.869,5.748
			c3.326,0,5.93-2.542,5.93-5.789C53.534,7.442,50.948,4.908,47.646,4.908L47.646,4.908z M47.646,13.969
			c-1.763,0-3.091-1.416-3.091-3.293c0-1.886,1.283-3.254,3.05-3.254c1.773,0,3.112,1.416,3.112,3.295
			C50.717,12.603,49.425,13.969,47.646,13.969L47.646,13.969z"/>
		<path fill="#2EBD59" d="M60.609,5.133h-2.706V2.367c0-0.1-0.079-0.181-0.179-0.181h-2.459c-0.098,0-0.179,0.081-0.179,0.181v2.766
			h-1.182c-0.1,0-0.18,0.081-0.18,0.18v2.114c0,0.099,0.08,0.18,0.18,0.18h1.182v5.467c0,2.209,1.1,3.33,3.269,3.33
			c0.882,0,1.613-0.182,2.302-0.573c0.056-0.031,0.091-0.092,0.091-0.156v-2.012c0-0.062-0.032-0.121-0.084-0.152
			c-0.055-0.035-0.121-0.035-0.176-0.01c-0.475,0.239-0.932,0.35-1.443,0.35c-0.788,0-1.142-0.358-1.142-1.161V7.607h2.706
			c0.1,0,0.18-0.081,0.18-0.181V5.314c0.003-0.1-0.076-0.181-0.177-0.181L60.609,5.133z"/>
		<path fill="#2EBD59" d="M70.036,5.143V4.804c0-1,0.384-1.445,1.243-1.445c0.513,0,0.924,0.103,1.386,0.256
			c0.057,0.018,0.116,0.009,0.161-0.025C72.874,3.555,72.9,3.501,72.9,3.443V1.371c0-0.079-0.052-0.149-0.126-0.172
			c-0.487-0.146-1.111-0.294-2.044-0.294c-2.271,0-3.472,1.278-3.472,3.696v0.521h-1.182c-0.098,0-0.18,0.081-0.18,0.18v2.124
			c0,0.099,0.082,0.18,0.18,0.18h1.182v8.433c0,0.1,0.08,0.181,0.179,0.181h2.46c0.098,0,0.179-0.081,0.179-0.181V7.607h2.296
			l3.517,8.431c-0.398,0.887-0.791,1.062-1.327,1.062c-0.434,0-0.89-0.13-1.356-0.385c-0.044-0.025-0.096-0.028-0.143-0.015
			c-0.048,0.017-0.087,0.052-0.106,0.098l-0.833,1.828c-0.041,0.086-0.006,0.188,0.076,0.232c0.87,0.472,1.655,0.673,2.627,0.673
			c1.814,0,2.818-0.847,3.704-3.12L82.795,5.39c0.021-0.056,0.015-0.118-0.02-0.167c-0.033-0.049-0.088-0.079-0.147-0.079h-2.56
			c-0.077,0-0.146,0.049-0.171,0.121l-2.621,7.489L74.403,5.26c-0.025-0.07-0.093-0.116-0.166-0.116L70.036,5.143L70.036,5.143z"/>
		<path fill="#2EBD59" d="M64.57,5.133h-2.458c-0.1,0-0.179,0.081-0.179,0.18v10.727c0,0.1,0.079,0.181,0.179,0.181h2.458
			c0.101,0,0.182-0.081,0.182-0.181V5.314C64.752,5.215,64.672,5.133,64.57,5.133L64.57,5.133z"/>
		<path fill="#2EBD59" d="M63.355,0.249c-0.974,0-1.764,0.789-1.764,1.762c0,0.975,0.79,1.764,1.764,1.764s1.764-0.789,1.764-1.764
			c0-0.974-0.79-1.762-1.762-1.762H63.355L63.355,0.249z"/>
	</g>
</g>
</svg>
