<?xml version="1.0" encoding="utf-8"?>
<!-- Generator: Adobe Illustrator 16.0.0, SVG Export Plug-In . SVG Version: 6.00 Build 0)  -->
<!DOCTYPE svg PUBLIC "-//W3C//DTD SVG 1.1//EN" "http://www.w3.org/Graphics/SVG/1.1/DTD/svg11.dtd">
<svg version="1.1" xmlns="http://www.w3.org/2000/svg" xmlns:xlink="http://www.w3.org/1999/xlink" x="0px" y="0px" width="100px"
	 height="20px" viewBox="0 0 100 20" enable-background="new 0 0 100 20" xml:space="preserve">
<g id="Capa_1" display="none">
	<g display="inline">
		<path fill="#3FA4C4" d="M4.25,0.306h5.163c2.655,0,4.61,1.741,4.61,4.504c0,2.783-1.955,4.567-4.61,4.567H5.715v5.864H4.25V0.306
			L4.25,0.306z M9.22,8.06c1.998,0,3.293-1.21,3.293-3.25c0-2.019-1.295-3.187-3.271-3.187H5.715V8.06H9.22z"/>
		<path fill="#3FA4C4" d="M20.735,4.299c2.954,0,4.462,2.273,4.462,4.93c0,0.233-0.022,0.488-0.042,0.722h-8.202
			c0.064,2.718,1.934,4.229,4.144,4.229c1.167,0,2.378-0.49,3.25-1.277l0.658,1.107c-0.998,0.911-2.549,1.484-3.952,1.484
			c-3.186,0-5.608-2.294-5.608-5.585C15.446,6.403,17.846,4.299,20.735,4.299z M23.73,8.804c-0.085-2.231-1.444-3.314-3.037-3.314
			c-1.785,0-3.335,1.168-3.676,3.314H23.73z"/>
		<path fill="#3FA4C4" d="M27.917,4.555h1.424v1.976c0,0.467-0.085,0.849-0.085,0.849h0.042c0.531-1.614,1.763-2.932,3.42-2.932
			c0.191,0,0.403,0.021,0.574,0.063v1.424c-0.064-0.022-0.319-0.043-0.532-0.043c-2.4,0-3.399,2.698-3.399,4.822v4.526h-1.444V4.555
			L27.917,4.555z"/>
		<path fill="#3FA4C4" d="M35.437,0.306h1.571v1.805h-1.571V0.306z M35.5,4.555h1.445v10.687H35.5V4.555z"/>
		<path fill="#3FA4C4" d="M40.217,12.926c0.807,0.827,2.061,1.295,3.229,1.295c1.189,0,2.146-0.594,2.146-1.722
			c0-2.378-5.693-1.72-5.693-5.225c0-1.955,1.678-2.975,3.633-2.975c1.169,0,2.421,0.34,3.292,1.168l-0.68,1.083
			c-0.616-0.616-1.721-0.977-2.676-0.977c-1.126,0-2.146,0.488-2.146,1.657c0,2.443,5.715,1.72,5.715,5.248
			c0,1.764-1.509,3.015-3.612,3.015c-1.424,0-2.953-0.486-3.973-1.551L40.217,12.926z"/>
		<path fill="#3FA4C4" d="M54.578,4.299c1.401,0,2.952,0.488,3.909,1.53l-0.743,1.083C57,6.148,55.812,5.595,54.621,5.595
			c-2.338,0-4.165,1.764-4.165,4.313c0,2.506,1.827,4.271,4.207,4.271c1.232,0,2.57-0.532,3.422-1.467l0.656,1.084
			c-0.934,1.04-2.527,1.697-4.163,1.697c-3.167,0-5.607-2.271-5.607-5.585C48.97,6.615,51.434,4.299,54.578,4.299z"/>
		<path fill="#3FA4C4" d="M65.858,4.299c3.123,0,5.651,2.38,5.651,5.545c0,3.228-2.528,5.65-5.651,5.65
			c-3.122,0-5.629-2.422-5.629-5.65C60.229,6.679,62.736,4.299,65.858,4.299z M65.858,14.18c2.295,0,4.164-1.828,4.164-4.335
			c0-2.422-1.869-4.249-4.164-4.249s-4.143,1.827-4.143,4.249C61.716,12.352,63.563,14.18,65.858,14.18z"/>
		<path fill="#3FA4C4" d="M74.208,4.555h1.38V5.68c0,0.468-0.063,0.829-0.063,0.829h0.044c0.658-1.381,2.06-2.21,3.717-2.21
			c2.89,0,4.653,2.295,4.653,5.587c0,3.399-1.998,5.607-4.78,5.607c-1.508,0-2.826-0.784-3.526-2.124h-0.044
			c0,0,0.064,0.383,0.064,0.937v5.184h-1.444V4.555L74.208,4.555z M79.01,14.199c1.89,0,3.463-1.57,3.463-4.291
			c0-2.613-1.403-4.292-3.399-4.292c-1.785,0-3.463,1.274-3.463,4.313C75.61,12.075,76.822,14.199,79.01,14.199z"/>
		<path fill="#3FA4C4" d="M91.288,4.299c2.954,0,4.462,2.273,4.462,4.93c0,0.233-0.022,0.488-0.042,0.722h-8.201
			c0.064,2.718,1.933,4.229,4.143,4.229c1.169,0,2.38-0.49,3.251-1.277l0.657,1.107c-0.997,0.911-2.548,1.484-3.95,1.484
			c-3.187,0-5.609-2.294-5.609-5.585C85.998,6.403,88.399,4.299,91.288,4.299z M94.284,8.804c-0.086-2.231-1.445-3.314-3.037-3.314
			c-1.785,0-3.336,1.168-3.676,3.314H94.284z"/>
	</g>
</g>
<g id="Capa_2">
	<g>
		<g>
			<path d="M22.242,0.928h2.517l1.622,6.466h0.157l1.546-6.466h2.539l-2.908,9.466v6.714h-2.499v-6.411L22.242,0.928z"/>
			<path d="M30.508,7.9c0-0.925,0.299-1.66,0.896-2.208c0.597-0.548,1.4-0.823,2.409-0.823c0.918,0,1.671,0.29,2.257,0.868
				c0.586,0.577,0.88,1.321,0.88,2.23v6.163c0,1.023-0.289,1.824-0.863,2.405s-1.367,0.872-2.375,0.872c-0.971,0-1.748-0.3-2.33-0.9
				c-0.583-0.6-0.875-1.407-0.875-2.421V7.9z M32.792,14.312c0,0.328,0.079,0.581,0.236,0.76c0.158,0.179,0.384,0.27,0.678,0.27
				c0.301,0,0.539-0.092,0.716-0.275c0.177-0.183,0.265-0.434,0.265-0.754v-6.5c0-0.261-0.09-0.472-0.271-0.632
				c-0.18-0.16-0.417-0.24-0.71-0.24c-0.271,0-0.491,0.08-0.661,0.24c-0.169,0.161-0.253,0.372-0.253,0.632V14.312z"/>
			<path d="M45.167,5.172v11.935h-2.218v-1.318c-0.41,0.485-0.835,0.856-1.277,1.11c-0.443,0.252-0.872,0.379-1.289,0.379
				c-0.513,0-0.899-0.177-1.159-0.532c-0.261-0.355-0.391-0.888-0.391-1.599V5.172h2.219v9.148c0,0.283,0.046,0.488,0.139,0.615
				c0.093,0.127,0.244,0.188,0.452,0.188c0.165,0,0.37-0.083,0.62-0.25c0.249-0.168,0.477-0.382,0.686-0.643V5.172H45.167z"/>
		</g>
		<g>
			<linearGradient id="SVGID_1_" gradientUnits="userSpaceOnUse" x1="62.9521" y1="-0.0317" x2="62.9521" y2="19.9067">
				<stop  offset="0.0056" style="stop-color:#ED2828"/>
				<stop  offset="0.5" style="stop-color:#EF3B39"/>
				<stop  offset="0.9944" style="stop-color:#C02126"/>
			</linearGradient>
			<path fill="url(#SVGID_1_)" d="M77.561,4.393c0-2.334-1.915-4.227-4.275-4.227c-3.369-0.141-6.817-0.204-10.333-0.197
				c-3.516-0.007-6.963,0.057-10.332,0.197c-2.36,0-4.276,1.893-4.276,4.227c-0.141,1.848-0.203,3.696-0.198,5.544
				c-0.005,1.849,0.057,3.696,0.198,5.545c0,2.334,1.916,4.227,4.277,4.227c3.368,0.141,6.815,0.204,10.331,0.197
				c3.516,0.007,6.964-0.057,10.333-0.197c2.36,0,4.275-1.893,4.275-4.227c0.143-1.849,0.203-3.696,0.197-5.545
				C77.764,8.089,77.703,6.241,77.561,4.393z"/>
			<g>
				<path fill="#FFFFFF" d="M56.65,3.2h-6.209v1.901h2.093V16.3h2.023V5.101h2.093V3.2z M59.957,13.972
					c-0.169,0.211-0.354,0.384-0.555,0.521c-0.202,0.134-0.369,0.202-0.502,0.202c-0.168,0-0.289-0.051-0.365-0.153
					c-0.074-0.102-0.112-0.269-0.112-0.497V6.636h-1.797v8.077c0,0.575,0.105,1.006,0.315,1.294
					c0.211,0.288,0.524,0.432,0.939,0.432c0.337,0,0.686-0.102,1.043-0.309c0.358-0.205,0.702-0.505,1.033-0.897V16.3h1.798V6.636
					h-1.798V13.972z M66.918,6.515c-0.278,0-0.554,0.077-0.826,0.23s-0.528,0.377-0.771,0.672V3.2h-1.813v13.1h1.813v-0.742
					c0.236,0.293,0.492,0.511,0.769,0.652c0.273,0.141,0.588,0.211,0.938,0.211c0.531,0,0.938-0.182,1.22-0.547
					c0.282-0.364,0.423-0.89,0.423-1.577V8.936c0-0.789-0.149-1.39-0.45-1.803C67.921,6.721,67.488,6.515,66.918,6.515z
					 M66.82,14.034c0,0.309-0.051,0.53-0.155,0.666s-0.264,0.204-0.483,0.204c-0.153,0-0.299-0.034-0.435-0.104
					c-0.138-0.069-0.279-0.182-0.427-0.339V8.438c0.122-0.132,0.245-0.231,0.371-0.294c0.124-0.063,0.252-0.095,0.38-0.095
					c0.243,0,0.43,0.085,0.558,0.254s0.191,0.416,0.191,0.742V14.034z M75.31,11.694v-2.46c0-0.917-0.219-1.62-0.661-2.108
					c-0.44-0.489-1.073-0.734-1.895-0.734c-0.804,0-1.46,0.264-1.966,0.792c-0.509,0.528-0.763,1.211-0.763,2.05v4.337
					c0,0.93,0.23,1.661,0.692,2.193c0.462,0.53,1.097,0.796,1.9,0.796c0.894,0,1.566-0.25,2.017-0.751s0.675-1.247,0.675-2.238
					v-0.726h-1.849v0.671c0,0.569-0.059,0.937-0.178,1.104c-0.118,0.165-0.327,0.249-0.625,0.249c-0.286,0-0.488-0.098-0.606-0.296
					c-0.119-0.196-0.177-0.547-0.177-1.057v-1.822H75.31z M71.875,9.217c0-0.405,0.062-0.694,0.187-0.87
					c0.124-0.176,0.33-0.263,0.615-0.263c0.273,0,0.474,0.087,0.598,0.263c0.124,0.175,0.187,0.465,0.187,0.87v0.978h-1.586V9.217z"
					/>
			</g>
		</g>
	</g>
</g>
</svg>
