<?xml version="1.0" encoding="utf-8"?>
<!-- Generator: Adobe Illustrator 16.0.0, SVG Export Plug-In . SVG Version: 6.00 Build 0)  -->
<!DOCTYPE svg PUBLIC "-//W3C//DTD SVG 1.1//EN" "http://www.w3.org/Graphics/SVG/1.1/DTD/svg11.dtd">
<svg version="1.1" id="Capa_1" xmlns="http://www.w3.org/2000/svg" xmlns:xlink="http://www.w3.org/1999/xlink" x="0px" y="0px"
	 width="578.971px" height="764.961px" viewBox="0 0 578.971 764.961" enable-background="new 0 0 578.971 764.961"
	 xml:space="preserve">
<g>
	<path fill-rule="evenodd" clip-rule="evenodd" fill="#040404" d="M127.904,84.886c-1.909,11.623,3.6,23.209,13.82,29.065
		c-24.776-10.071-51.929-12.797-78.212-7.852c20.02-0.519,39.996,2.131,59.188,7.852c-9.393-0.253-18.768,0.97-27.782,3.624
		c-23.333,1.938-44.793,13.543-59.188,32.01c-7.921,9.552-9.789,22.749-4.832,34.124c-2.76,3.261-5.001,6.927-6.644,10.871
		c-1.496,8.436,1.75,17.014,8.456,22.347c0.767,17.344,3.399,34.555,7.852,51.336c-1.238,3.725-1.238,7.75,0,11.475
		c-0.184-2.333,0.021-4.679,0.604-6.945c0.73,2.38,1.639,4.702,2.718,6.945c0.116-3.646-0.188-7.294-0.906-10.871
		c3.538-9.276,7.989-18.178,13.287-26.574c0.147,4.72-0.569,9.428-2.114,13.891c-4.079,21.651-8.206,43.293-12.381,64.925
		c-3.693,19.786-2.131,40.194,4.53,59.188c-4.503-16.483-4.711-33.844-0.604-50.431c1.274,10.875,2.583,21.747,3.926,32.614
		c1.532,6.88,6.979,12.209,13.891,13.589c-3.932-2.993-6.877-7.095-8.456-11.777c-4.953-24.37-4.438-49.536,1.51-73.683
		c4.899-11.944,10.968-23.375,18.119-34.124c4.338,20.102,4.338,40.897,0,61c-3.633,17.927-2.908,36.465,2.114,54.054
		c-0.034-2.218-0.343-4.423-0.92-6.564c-0.879-14.805,1.121-29.641,5.89-43.684c3.075-1.912,5.77-4.374,7.951-7.264
		c0.952,5.926,2.098,11.819,3.436,17.67c-8.359,14.703-12.598,31.388-12.271,48.297c2.022-14.992,6.745-29.493,13.939-42.8
		c1.806,7.154,4.441,14.073,7.854,20.615c-0.113,4.472,0.216,8.944,0.981,13.351c3.395,10.401,6.261,20.968,8.59,31.658
		c-2.144,2.326-4.53,4.415-7.117,6.234c2.738-0.918,5.214-2.483,7.215-4.565c0.922,2.926,1.644,5.91,2.16,8.934
		c0.168-3.373-0.096-6.753-0.786-10.059c2.762-1.77,5.556-3.489,8.381-5.157c1.985,4.734,3.288,9.727,3.868,14.827
		c-7.638,1.51-14.881,4.582-21.274,9.026c-20.148,17.374-33.412,41.387-37.392,67.691c-17.19,35.858-6.024,78.886,26.432,101.86
		c-25.601,4.274-44.854,25.667-46.417,51.575c0.163,39.413,21.615,75.661,56.087,94.769c42.871,24.503,96.392,20.149,134.739-10.96
		c20.75-16.97,34.333-41.144,38.037-67.691c15.007,37.089,44.974,66.118,82.52,79.94c30.086,12.114,63.565,12.803,94.124,1.935
		c9.204-3.954,18.048-8.7,26.433-14.184c2.578,7.94,8.386,14.426,15.994,17.862c7.608,3.436,16.313,3.505,23.976,0.189
		c21.994-7.975,33.894-31.774,27.077-54.154c-5.439-21.257-6.753-43.36-3.868-65.112c8.344-2.44,15.22-8.377,18.849-16.275
		c3.63-7.899,3.657-16.983,0.074-24.903s-10.424-13.897-18.753-16.387c-8.328-2.488-17.327-1.244-24.668,3.411
		c-26.537,17.276-51.946,36.226-76.073,56.732c-7.641,5.841-11.846,15.123-11.197,24.719c0.648,9.597,6.063,18.229,14.421,22.988
		c-22.785,3.117-45.819-3.624-63.329-18.534c-17.51-14.909-27.836-36.575-28.39-59.565c-0.554-22.991,8.716-45.129,25.487-60.865
		c16.771-15.735,39.454-23.578,62.363-21.562c-6.096,12.026-4,26.584,5.241,36.403c9.241,9.818,23.645,12.792,36.019,7.435
		c20.312-11.855,39.707-25.217,58.021-39.97c10.327-6.935,13.913-20.449,8.381-31.59c-0.518-27.512-9.276-54.236-25.143-76.718
		c-8.624-16.233-24.388-27.459-42.549-30.3c2.492-1.068,3.646-3.955,2.579-6.447c13.095-10.484,22.381-24.981,26.432-41.26
		c-1.581-25.685-8.613-50.739-20.63-73.494c5.717-13.265,3.739-28.592-5.157-39.971c-9.729-6.638-21.114-10.434-32.879-10.959
		c-5.691-1.387-11.573-1.823-17.407-1.29c0.617-9.322,1.91-18.586,3.868-27.721c0.757,2.252,2.382,4.109,4.513,5.157
		c5.301-41.846-5.787-84.12-30.944-117.977c0.772-5.22-1.621-10.401-6.096-13.198s-10.181-2.677-14.534,0.305
		c-1.306-7.356-6.118-13.613-12.894-16.762c-12.09-15.314-31.895-22.334-50.931-18.051c-9.733-0.501-19.328,2.469-27.076,8.381
		c-2.699,0.899-5.577,1.121-8.381,0.645c-32.083,8.002-62.445,21.764-89.611,40.615c-17.473,9.708-29.224,27.213-31.589,47.062
		c8.171-15.949,19.854-29.836,34.168-40.615c-11.901,14.569-21.074,31.167-27.077,48.996
		C155.015,121.253,135.939,106.142,127.904,84.886L127.904,84.886z M73.174,134.184c-14.22,14.007-27.726,28.722-40.465,44.089
		c-0.591-8.411,1.299-16.811,5.436-24.158C48.191,144.945,60.159,138.135,73.174,134.184L73.174,134.184z M48.412,169.515
		c-3.584,9.005-7.513,17.87-11.777,26.574c-0.982-2.895-1.889-5.815-2.718-8.758C37.382,180.4,42.331,174.317,48.412,169.515
		L48.412,169.515z M62.001,174.045c-10.093,15.884-18.015,33.048-23.554,51.034C37.634,205.27,46.399,186.278,62.001,174.045
		L62.001,174.045z M32.407,189.446c0.041,3.545,1.323,6.965,3.624,9.663c-2.124,4.843-3.056,10.124-2.718,15.401
		C27.221,207.382,26.845,196.995,32.407,189.446L32.407,189.446z M61.539,217.705c1.285-2.514,3.086-4.736,5.294-6.517
		c-1.92,5.06-4.138,10-6.644,14.797c-3.417-11.188,0.005-23.341,8.757-31.104C67.292,202.731,64.808,210.382,61.539,217.705
		L61.539,217.705z M54.15,212.698c-1.574,8.494-1.471,17.214,0.302,25.668l-2.114,2.718
		C50.165,231.647,50.795,221.782,54.15,212.698L54.15,212.698z M46.902,224.777c-0.325,6.165,1.256,12.281,4.53,17.515
		c-3.782,6.27-6.822,12.958-9.06,19.93C39.902,249.575,41.487,236.471,46.902,224.777L46.902,224.777z M87.368,258.296
		c2.191,1.125,4.062,2.787,5.436,4.832c-4.651,15.675-5.581,32.219-2.718,48.316c-2.503,3.208-5.337,6.143-8.456,8.757
		C86.791,299.998,88.727,279.105,87.368,258.296L87.368,258.296z M94.615,283.361c0.566,6.325,1.678,12.589,3.322,18.723
		l-4.529,4.53C91.47,298.917,91.891,290.815,94.615,283.361L94.615,283.361z M98.843,304.801l3.624,15.099l-6.644,9.06
		c-0.124-6.478-0.729-12.938-1.812-19.327C95.22,307.666,96.875,306.01,98.843,304.801L98.843,304.801z M103.372,324.128
		c1.427,5.003,2.039,10.203,1.812,15.401c-0.869,4.795-1.474,9.634-1.812,14.495c-2.729-6.821-4.753-13.904-6.039-21.138
		C99.924,330.41,101.98,327.43,103.372,324.128L103.372,324.128z M119.679,318.994c2.708,8.891,4.727,17.977,6.04,27.178
		c-6.032,16.099-7.496,33.552-4.228,50.431l-7.248,5.133c-5.042-16.717-6.786-34.255-5.134-51.638
		C112.352,339.637,115.876,329.265,119.679,318.994L119.679,318.994z M129.342,357.949c2.782,10.926,2.573,22.4-0.604,33.217
		C126.74,380.164,126.945,368.873,129.342,357.949L129.342,357.949z M165.278,295.138c0.946,9.03,1.047,18.129,0.302,27.178
		c-1.923,5.107-4.246,10.055-6.945,14.797C159.853,322.981,162.072,308.955,165.278,295.138L165.278,295.138z M177.055,286.38
		c2.236,29.084-6.489,57.953-24.46,80.93c2.542-9.938,6.188-19.561,10.871-28.688C170.897,322.095,175.491,304.434,177.055,286.38
		L177.055,286.38z M192.916,247.236c0.817,8.797,1.522,17.604,2.114,26.418c1.876,8.787,1.329,17.918-1.585,26.418
		c-1.378-9.477-4.044-18.72-7.925-27.475c0.253-4.957,0.782-9.896,1.585-14.794C189.688,254.677,191.66,251.092,192.916,247.236
		L192.916,247.236z M199.256,291.619c0.311-0.533,0.575-1.326,0.529-1.585c1.808,10.176,1.448,20.619-1.057,30.646
		c-0.875-5.535-2.111-11.006-3.698-16.379C195.551,299.827,196.99,295.51,199.256,291.619L199.256,291.619z M204.012,301.129
		c6.073,22.089,9.792,44.759,11.096,67.631c-4.521,15.774-16.003,28.617-31.173,34.872c-11.628,5.059-24.406,6.884-36.986,5.283
		c-2.171-12.872-0.518-26.1,4.755-38.042c19.177-22.403,30.659-50.368,32.759-79.783c4.622,11.954,8.677,24.12,12.152,36.457
		c2.777,7.822,4.38,16.013,4.755,24.305c3.612-8.934,3.031-19.016-1.585-27.475C204.071,317.437,205.581,309.135,204.012,301.129
		L204.012,301.129z M364.635,339.172c-3.565,6.323-3.956,13.952-1.057,20.606c-4.137,1.362-8.053,3.32-11.624,5.812
		c-2.608-6.196-2.982-13.107-1.057-19.549C355.775,344.406,360.4,342.094,364.635,339.172L364.635,339.172z M383.128,332.303
		c-4.561,5.818-7.479,12.75-8.454,20.078c-2.318,0.842-4.467,2.095-6.341,3.699C368.197,345.945,373.976,336.659,383.128,332.303
		L383.128,332.303z M376.259,370.874c-1.215,4.101-2.993,8.013-5.283,11.624c-3.229-2.134-6.581-4.075-10.039-5.812
		c0.663-1.388,1.782-2.506,3.17-3.17C368.095,372.369,372.154,371.486,376.259,370.874L376.259,370.874z M397.922,360.306
		c0.396,10.899-5.881,20.942-15.851,25.362C388.441,377.944,393.771,369.417,397.922,360.306L397.922,360.306z M427.51,352.381
		c-4.779,14.779-13.558,27.946-25.361,38.042c-3.379,1.423-7.188,1.423-10.567,0c4.793-5.58,9.909-10.872,15.323-15.851
		C415.195,368.637,422.204,361.089,427.51,352.381L427.51,352.381z M477.177,313.282c5.304,22.973-8.444,46.043-31.174,52.308
		C461.267,351.562,472.101,333.382,477.177,313.282L477.177,313.282z M487.216,336.53c-2.005,14.108-5.007,28.057-8.982,41.741
		c-5.695,0.092-11.364,0.801-16.908,2.113c-0.349-5.892,0.367-11.798,2.114-17.436C473.319,356.12,481.462,347.072,487.216,336.53
		L487.216,336.53z M485.631,369.289c6.006-31.387,6.363-63.593,1.057-95.105c11.023,17.125,17.564,36.748,19.021,57.063
		C502.029,345.302,495.158,358.32,485.631,369.289L485.631,369.289z M478.762,231.914c3.236,2.366,6.088,5.218,8.454,8.454
		c-0.768,1.864-1.301,3.816-1.585,5.812C484.404,240.981,482.061,236.113,478.762,231.914L478.762,231.914z M473.478,218.176
		c7.254,1.574,12.491,7.903,12.681,15.323C482.837,227.705,478.548,222.523,473.478,218.176L473.478,218.176z M61.539,217.705
		c-0.272,0.533-0.521,1.079-0.746,1.636C61.046,218.798,61.295,218.252,61.539,217.705L61.539,217.705z M189.233,246.966
		c-1.208,0.173-2.438,0.104-3.621-0.201c0.564,1.785,1.034,3.597,1.408,5.431C188.469,250.848,189.274,248.945,189.233,246.966
		L189.233,246.966z M310.979,26.961l5.264,0.123c0,0,1.774-2.142,1.53-2.203C315.35,24.869,312.98,25.595,310.979,26.961
		L310.979,26.961z M320.527,26.656c1.103-2.468,3.786-3.823,6.426-3.244c3.35,0.6,6.429,2.226,8.813,4.651
		C330.769,26.942,325.646,26.469,320.527,26.656L320.527,26.656z M353.883,26.778c7.288,2.63,14,6.641,19.769,11.812
		c-3.508-7.702-11.38-12.464-19.829-11.996C353.628,26.605,353.658,26.697,353.883,26.778L353.883,26.778z M150.317,623.968
		c6.491,18.915,2.253,39.86-11.08,54.765c4.91,5.992,12.209,9.519,19.955,9.641s15.152-3.173,20.248-9.008
		c6.191-11.854,6.426-25.934,0.633-37.986C171.911,632.993,161.627,626.975,150.317,623.968L150.317,623.968z"/>
	<path fill-rule="evenodd" clip-rule="evenodd" fill="#DDDBDB" d="M258.044,126.199c-9.031,8.768-17.461,18.134-25.232,28.036
		c5.619-11.491,13.483-21.739,23.13-30.139c-13.678,7.798-24.119,20.227-29.438,35.045c-1.459-3.968-0.938-8.394,1.402-11.916
		c-5.881,5.008-8.791,12.678-7.71,20.326c-1.014-5.797-1.014-11.726,0-17.522c-10.809,18.813-16.826,39.994-17.523,61.68
		c-6.245,24.134-6.245,49.461,0,73.595c2.32,7.891,6.126,15.266,11.214,21.729c2.196,46.96,9.72,93.519,22.429,138.78
		c-9.089-14.818-15.273-31.231-18.224-48.363c-17.592,6.979-35.354,13.523-53.269,19.626c-21.082-4.604-43.081,1.419-58.876,16.121
		c-6.812,10.58-13.356,21.331-19.625,32.241c39.991-28.139,94.433-23.404,128.967,11.215c1.365-1.062,2.349-2.537,2.804-4.206
		c-6.032-5.421-12.107-10.794-18.224-16.12c-6.128-10.983-13.668-21.115-22.429-30.14c4.174-0.637,8.321,1.299,10.514,4.906
		c4.937,7.786,9.612,15.734,14.019,23.831c4.556,7.272,11.909,12.345,20.326,14.019c19.042-5.125,38.978,4.396,46.961,22.429
		c3.995,11.61-1.062,24.399-11.916,30.14c-14.987,11.254-30.175,22.236-45.559,32.942c20.007,7.753,36.972,21.768,48.363,39.951
		c-3.895-50.997,23.561-99.252,69.39-121.958c13.25-8.696,21.975-22.81,23.83-38.55c-0.098-0.445-0.508-0.753-0.963-0.721
		s-0.818,0.394-0.853,0.85c-0.856,2.563-1.529,5.185-2.011,7.844c-1.366-8.203,0.05-16.629,4.022-23.936
		c-7.067,6.45-9.939,16.309-7.442,25.545c-1.517-2.574-2.412-5.467-2.614-8.447c-2.52,6.909-2.376,14.51,0.402,21.32
		c-4.4-6.782-5.785-15.088-3.822-22.93c-5.448,9.276-7.174,20.274-4.827,30.774c-4.141-8.963-4.786-19.148-1.811-28.562
		c3.909-7.721,8.205-15.239,12.873-22.527c-0.455-2.929-1.127-5.819-2.011-8.648c-2.133,3.939-3.949,8.042-5.431,12.27
		c0.118-5.662,1.492-11.227,4.022-16.293c-3.115-3.218-5.032-7.406-5.431-11.867c-0.879-7.343,2.18-14.604,8.045-19.108
		c-2.448-5.357-4.075-11.053-4.827-16.896c-10.682,5.997-21.934,10.915-33.59,14.683c-11.398,1.477-22.976-0.559-33.188-5.833
		c-21.42-13.287-40.741-29.692-57.325-48.676c-0.034-0.681,0.453-1.276,1.126-1.38c0.674-0.104,1.316,0.319,1.489,0.978
		c14.213,20.162,33.696,36.026,56.319,45.86c11.282,5.075,23.854,6.55,36.004,4.224c15.619-8.33,31.174-16.778,46.664-25.343
		c14.568-14.216,26.188-31.168,34.194-49.882c-3.256,1.354-6.62,2.431-10.058,3.218c10.931-10.664,17.279-25.165,17.7-40.429
		c-5.491,6.066-11.553,11.589-18.103,16.494c4.164-5.045,7.307-10.852,9.253-17.097c-13.293-5.348-25.702-12.671-36.809-21.723
		c1.424,6.734,6.587,12.053,13.275,13.677c-8.415,0.385-16.06-4.875-18.706-12.873c-1.713,6.008,0.254,12.463,5.028,16.494
		c-10.091-7.405-15.211-19.817-13.275-32.182c2.789-5.716,4.947-11.718,6.437-17.902c11.776-4.254,24.429-5.499,36.809-3.62
		c7.346,2.864,12.879,9.069,14.885,16.694c2.454-11.105,2.728-22.582,0.804-33.792c0.558-4.314,0.216-8.697-1.005-12.873
		c-4.004-6.198-6.294-13.347-6.638-20.717c-2.196,4.229-2.561,9.173-1.006,13.677c-4.293-9.51-5.894-20.015-4.626-30.372
		c-4.439,5.108-7.487,11.273-8.851,17.901c-2.828-8.801-3.037-18.235-0.604-27.154c-22.718,10.236-48.209,12.572-72.41,6.638
		c13.237,2.091,26.744-1.486,37.211-9.855c-15.424,2.95-30.78,6.236-46.061,9.855c-12.446,3.412-25.313,5.037-38.217,4.827
		C257.786,126.088,258.098,126.146,258.044,126.199L258.044,126.199z M341.527,464.467c45.068-20.584,96.967-20.004,141.564,1.582
		c7.236,5.545,16.63,7.433,25.446,5.112c8.815-2.32,16.063-8.587,19.633-16.976c1.662-7.591,1.39-15.477-0.791-22.935
		c-8.46-22.118-26.973-38.867-49.824-45.08c0.645,4.277-1.611,8.466-5.536,10.281c1.039-4.434,1.831-8.922,2.373-13.444
		c-22.618,0.038-44.273,9.156-60.106,25.308c-10.716,11.32-20.501,23.486-29.262,36.38c1.974-10.98,7.537-20.994,15.817-28.471
		c-9.677,2.495-18.798,6.788-26.89,12.653C362.334,439.977,351.499,451.869,341.527,464.467L341.527,464.467z M177.62,211.829
		c-0.988-2.061-0.879-4.513,0.349-6.499c-0.118-0.505-0.445-0.937-0.9-1.186s-0.995-0.293-1.484-0.121
		c-0.489,0.172-0.882,0.545-1.08,1.025c-0.198,0.479-0.182,1.021,0.044,1.488c0.171,5.567,1.472,11.041,3.822,16.091
		c2.289-1.529,5.207-1.761,7.708-0.613c2.502,1.148,4.229,3.513,4.561,6.245c1.422,4.681,0.19,9.765-3.218,13.275
		c1.1,0.806,2.516,1.048,3.821,0.652c1.305-0.396,2.349-1.382,2.816-2.664c0.846-5.074,0.71-10.264-0.402-15.286
		c-0.855-5.12-1.326-10.297-1.408-15.488c0.19-1.148-0.085-2.325-0.764-3.271c-0.679-0.945-1.706-1.582-2.855-1.769
		s-2.325,0.091-3.269,0.772c-0.943,0.681-1.578,1.71-1.762,2.859c0.412,1.323,0.951,2.603,1.609,3.822
		c0.241,2.212-0.869,4.353-2.816,5.431c-1.418,0.722-3.143,0.411-4.22-0.76C177.166,214.738,176.956,213.139,177.62,211.829
		L177.62,211.829z M178.774,225.243c-0.206,3.717,0.133,7.444,1.005,11.063c0.309,1.882,1.603,3.455,3.39,4.12
		c1.788,0.666,3.795,0.321,5.259-0.902c2.228-3.971,2.073-8.85-0.402-12.671c-0.422-2.027-2.04-3.592-4.08-3.947
		C181.906,222.551,179.856,223.478,178.774,225.243L178.774,225.243z M160.447,533.117c-1.893-8.203,1.206-16.754,7.914-21.842
		c-2.073-2.208-5.076-3.292-8.081-2.917c-3.005,0.376-5.649,2.166-7.114,4.816C150.701,520.706,153.709,528.946,160.447,533.117
		L160.447,533.117z M367.132,201.274c8.081-3.083,17.124-2.341,24.594,2.019c2.967,2.238,5.099,5.404,6.058,8.993
		c-0.957,4.091-2.703,7.957-5.14,11.379C388.645,212.251,378.969,203.759,367.132,201.274L367.132,201.274z"/>
	<path fill-rule="evenodd" clip-rule="evenodd" fill="#494949" d="M264.459,118.841c14.138-8.395,29.788-13.931,46.061-16.292
		c-3.473,3.604-7.964,6.061-12.873,7.04c-10.513,5.526-21.979,9.007-33.791,10.258C263.192,119.917,263.494,119.414,264.459,118.841
		L264.459,118.841z M177.62,211.829c0.156,0.325,0.34,0.641,0.55,0.944c-0.304-0.437-0.505-1.041-0.402-1.207
		C177.715,211.652,177.666,211.74,177.62,211.829L177.62,211.829z M164.214,137.711c-3.506-7.55-10.765-12.664-19.055-13.425
		l1.732,4.331c-18.58-5.089-38.448,0.587-51.535,14.724c-4.282,6.452-9.893,11.915-16.457,16.023
		c-16.507,14.268-26.639,34.532-28.149,56.298c1.811-14.84,10.251-28.059,22.952-35.944c4.054-15.836,15.506-28.739,30.748-34.645
		c19.286-8.039,40.419-10.587,61.062-7.362C164.812,137.602,164.163,137.602,164.214,137.711L164.214,137.711z M155.985,141.175
		c-12.373-1.918-25.037-0.109-36.377,5.197c-22.282,16.935-37.297,41.702-42.007,69.29c-1.717,9.939-3.305,19.901-4.764,29.881
		c3.259,4.911,5.197,10.579,5.63,16.457c0.768,25.803-0.973,51.619-5.197,77.085c9.402-27.543,12.509-56.844,9.095-85.747
		c-2.607-23.548,4.776-47.11,20.354-64.96C115.121,167.478,133.744,150.974,155.985,141.175L155.985,141.175z M174.174,145.939
		c-8.046-2.28-16.665,0.65-21.653,7.362c-5.675,12.788-10.45,25.956-14.291,39.409c-3.554,8.174-6.591,16.563-9.094,25.118
		c-1.835,26.896-6.776,53.49-14.725,79.25c-3.986,18.417-6.734,37.081-8.228,55.865c5.425-19.493,11.784-38.715,19.055-57.598
		c5.868-21.407,12.367-42.637,19.488-63.66c6.054-25.086,12.551-50.063,19.488-74.92
		C166.826,152.565,170.205,148.892,174.174,145.939L174.174,145.939z M134.333,162.829c-5.864,4.47-11.235,9.551-16.023,15.157
		c-2.907,7.084-6.689,13.777-11.26,19.921c-6.803,12.036-13.444,24.163-19.921,36.377c0.857,1.084,2.283,1.544,3.611,1.164
		c1.329-0.379,2.296-1.523,2.452-2.896C104.518,207.983,118.302,184.623,134.333,162.829L134.333,162.829z M128.27,183.616
		c-7.168,6.717-12.656,15.024-16.023,24.251C119.392,201.132,124.877,192.831,128.27,183.616L128.27,183.616z M129.568,194.875
		c-9.749,9.925-17.407,21.706-22.519,34.645c9.539-9.339,16.8-20.75,21.22-33.346C128.263,196.193,128.913,195.543,129.568,194.875
		L129.568,194.875z M120.474,233.851c-2.22,8.182-3.241,16.643-3.031,25.118c-6.318,4.768-10.64,11.713-12.126,19.488
		C106.221,262.487,111.461,247.065,120.474,233.851L120.474,233.851z M116.144,268.063c-3.03,6.868-5.918,13.799-8.661,20.787
		c6.109-5.683,9.431-13.75,9.094-22.086C116.583,266.91,116.366,267.559,116.144,268.063L116.144,268.063z M166.812,184.049
		c2.335,2.986,4.791,5.876,7.362,8.661c-3.627,9.47-2.996,20.044,1.732,29.016c-0.82,7.214,0.698,14.5,4.331,20.787
		c0.582,10.431,1.593,20.833,3.031,31.181c4.181,9.744,7.796,19.721,10.827,29.881c-8.102-12.718-14.92-26.209-20.354-40.275
		C168.609,237.206,166.287,210.637,166.812,184.049L166.812,184.049z M153.82,219.127c-8.05,18.446-14.427,37.578-19.055,57.165
		c2.464,24.172,3.62,48.458,3.464,72.755c1.007-32.512,4.189-64.92,9.527-97.006C149.01,240.941,151.036,229.944,153.82,219.127
		L153.82,219.127z M155.985,232.985c-4.858,12.231-6.354,25.539-4.331,38.543C153.856,258.777,155.303,245.907,155.985,232.985
		L155.985,232.985z M162.048,242.513c3.427,6.977,4.636,14.835,3.465,22.519c4.005,8.242,4.626,17.723,1.732,26.417
		c-1.583-10.014-3.46-19.979-5.63-29.881C163.196,255.33,163.345,248.815,162.048,242.513L162.048,242.513z M156.852,261.567
		c-0.328,13.036-1.34,26.046-3.031,38.976C158.403,288.079,159.452,274.59,156.852,261.567L156.852,261.567z M158.151,309.638
		c-6.752,18.078-10.837,37.043-12.126,56.298c2.882-8.743,6.354-17.279,10.394-25.551
		C155.583,330.105,156.166,319.759,158.151,309.638L158.151,309.638z M98.388,274.126c-0.231,6.995,0.497,13.989,2.165,20.787
		c-0.087,1.341-0.712,2.59-1.732,3.464C95.944,290.575,95.791,282.027,98.388,274.126L98.388,274.126z M102.719,298.811
		l5.197,15.157L104.018,317l-3.464-16.456l2.599-3.032L102.719,298.811L102.719,298.811z M124.805,305.74l4.331,22.086
		c-3.209-6.343-5.124-13.263-5.63-20.354c0.402-0.057,0.765-0.272,1.008-0.597C124.758,306.55,124.862,306.142,124.805,305.74
		L124.805,305.74z M122.64,313.968l5.63,23.818l-6.496-21.653L122.64,313.968L122.64,313.968z M172.442,167.159
		c0.112,9.571,4.189,18.667,11.26,25.118c-5.154-1.822-9.329-5.688-11.542-10.688c-2.212-4.999-2.267-10.689-0.151-15.729
		C172.212,165.376,172.429,166.025,172.442,167.159L172.442,167.159z M183.269,160.23c-1.765,5.744-2.498,11.755-2.165,17.755
		C177.54,172.299,178.443,164.894,183.269,160.23L183.269,160.23z M181.536,152.868l10.827-19.488
		c-0.517-11.604,3.524-22.949,11.26-31.614c11.087-11.218,22.954-21.638,35.511-31.181c-19.755,5.092-36.433,18.308-45.905,36.377
		c-1.798,9.515-3.531,19.043-5.197,28.582l-9.094,14.725L181.536,152.868L181.536,152.868z M200.591,119.522
		c16.289-19.966,36.667-36.21,59.763-47.637l-22.519,21.22c-13.427,7.962-25.92,17.404-37.244,28.149
		C197.463,124.222,197.463,123.356,200.591,119.522L200.591,119.522z M191.497,101.767c13.297-12.838,26.152-26.126,38.542-39.842
		C213.512,71.072,200.092,84.945,191.497,101.767L191.497,101.767z M247.362,108.263c14.903-15.649,33.526-27.27,54.133-33.779
		c-4.859,2.745-9.128,6.424-12.559,10.827c21.767-7.875,44.05-14.242,66.691-19.055c-9.523-6.674-20.85-10.299-32.479-10.394
		c5.064-0.792,10.118-1.658,15.157-2.599c-3.382-5.634-10.332-8.011-16.456-5.63c-32.665,6.553-61.267,26.09-79.251,54.133
		c11.498-11.836,24.799-21.776,39.409-29.448l-9.96,10.394l9.527-3.032c-13.303,6.418-24.995,15.742-34.212,27.283
		C244.149,110.987,244.149,111.636,247.362,108.263L247.362,108.263z M211.418,98.302c15.457-15.165,33.889-26.961,54.133-34.646
		l1.732,2.599l17.323-11.693l2.165,2.599c12.336-6.804,25.061-12.878,38.11-18.189c-28.955-4.817-58.69,0.215-84.448,14.291
		c12.092-6.376,25.831-8.943,39.409-7.362c-16.412,0.259-32.147,6.583-44.172,17.755c2.826,0.784,5.473,2.107,7.795,3.898
		c8.836-11.181,22.586-17.328,36.81-16.457c-8.547,1.621-16.661,5.014-23.818,9.96l2.598,1.299
		C240.545,70.383,224.215,82.706,211.418,98.302L211.418,98.302z M282.874,34.208c15.157-0.515,30.328-0.37,45.472,0.433
		C313.511,30.357,297.787,30.208,282.874,34.208L282.874,34.208z M377.281,47.201c-14.431-9.874-29.638-18.564-45.472-25.984
		c16.704,3.766,32.376,11.158,45.905,21.653L377.281,47.201L377.281,47.201z M261.219,124.287
		c36.595-3.184,72.447-12.183,106.208-26.657c9.299-4.792,16.481-12.873,20.15-22.669c1.085-5.812-0.282-11.814-3.778-16.582
		c-8.376,12.08-18.738,22.654-30.645,31.275c-9.059,6.261-19.147,10.879-29.806,13.643l-1.68-3.148
		c-18.374,11.953-39.03,19.958-60.66,23.509C256.809,124.347,256.914,124.662,261.219,124.287L261.219,124.287z M326.077,121.769
		c8.683-2.043,16.746-6.147,23.509-11.964c24.141-1.586,42.694-21.995,41.979-46.177c8.453,9.07,10.065,22.567,3.987,33.374
		c-12.717,10.682-27.847,18.103-44.078,21.62C343.213,120.926,334.652,121.988,326.077,121.769L326.077,121.769z M309.285,92.593
		l-37.571,15.742c10.452-9.749,23.941-15.604,38.201-16.582L309.285,92.593L309.285,92.593z M373.724,65.306
		c-8.09-6.488-18.177-9.974-28.546-9.865c11.062-0.917,22.119,1.811,31.484,7.766l-2.099,2.938L373.724,65.306L373.724,65.306z
		 M332.164,45.156c6.715-0.313,13.438,0.395,19.94,2.099C346.396,42.824,338.67,42.011,332.164,45.156L332.164,45.156z
		 M343.918,35.081c5.87,1.966,11.617,4.279,17.212,6.927C358.16,35.476,350.585,32.427,343.918,35.081L343.918,35.081z
		 M391.775,57.12c6.103-1.052,12.236,1.684,15.532,6.926c-0.203-3.575-2.385-6.738-5.655-8.196S394.57,54.881,391.775,57.12
		L391.775,57.12z M377.502,134.782l7.977-14.483l2.309,0.21c-0.57,7.841,0.21,15.722,2.309,23.298l1.89-7.556l-2.31,0.21
		c-0.85-7.386-0.99-14.836-0.42-22.249c-4.54,5.031-8.55,10.518-11.964,16.372C378.056,131.862,378.135,133.435,377.502,134.782
		L377.502,134.782z M397.232,123.238c3.988,10.705,3.09,21.897,2.938,32.954C400.021,167.248,393.244,112.533,397.232,123.238
		L397.232,123.238z M418.012,89.234c9.503,20.043,14.107,42.057,13.434,64.229c1.157-6.156,1.65-12.419,1.47-18.681
		c3.096,10.338,4.443,21.122,3.988,31.904c-1.94,24.595-6.946,48.852-14.903,72.205c-5.655,18.121-17.08,33.895-32.534,44.918
		c9.588-14.354,17.146-29.964,22.459-46.388c6.615-15.082,10.523-31.21,11.545-47.646c1.618-31.909,0.071-63.899-4.618-95.503
		L418.012,89.234L418.012,89.234z M444.808,252.946c-1.354,18.271,4.736,34.511,6.09,25.037S446.16,234.676,444.808,252.946
		L444.808,252.946z M458.979,278.092c3.795,7.427,4.219,16.125,1.165,23.885C460.213,294,459.823,286.025,458.979,278.092
		L458.979,278.092z M445.871,281.879c3.515,10.491,3.515,21.841,0,32.332C441.298,303.919,441.298,292.171,445.871,281.879
		L445.871,281.879z M427.229,320.037c-1.088,10.557-5.013,20.622-11.36,29.128c3.578-9.436,5.737-19.35,6.408-29.419
		C423.916,319.304,425.654,319.406,427.229,320.037L427.229,320.037z M377.13,329.357c12.179-4.57,23.966-10.123,35.244-16.603
		c-5.369,6.992-12.509,12.422-20.681,15.729c-3.169,8.359-8.142,15.918-14.563,22.137c3.654-6.975,6.865-14.174,9.612-21.554
		C383.546,329.341,380.337,329.438,377.13,329.357L377.13,329.357z M394.606,359.359c-7.337,13.811-16.66,26.47-27.672,37.575
		c-9.717,11.108-19.139,22.473-28.254,34.08c8.791-18.054,21.065-34.189,36.118-47.479
		C380.267,374.61,386.932,366.476,394.606,359.359L394.606,359.359z M453.736,330.231c-4.882,13.076-12.308,25.055-21.847,35.245
		c6.853-2.368,12.906-6.605,17.477-12.234c-1.265-1.879-1.146-4.366,0.292-6.117C451.208,341.542,452.567,335.907,453.736,330.231
		L453.736,330.231z M341.885,380.914c8.775-12.162,20.93-21.48,34.953-26.797c-13.422,8.144-24.943,19.069-33.788,32.041
		c-1.244,2.474-1.244,5.391,0,7.864C339.845,390.374,339.373,385.07,341.885,380.914L341.885,380.914z"/>
	<path fill-rule="evenodd" clip-rule="evenodd" fill="#E7E8E9" d="M201.531,484.786c-4.915-5.016-10.077-9.784-15.465-14.288
		c-0.415-0.347-0.86-0.657-1.329-0.928c-18.3-10.547-40.018-13.463-60.453-8.117c-23.714,5.002-42.515,23.064-48.462,46.561
		c-6.777,22.471-1.178,46.851,14.725,64.113c0.28,0.303,0.579,0.588,0.896,0.852c17.747,14.771,37.452,27.015,58.555,36.384
		c0.368,0.163,0.746,0.303,1.131,0.417c14.793,4.397,28.157,12.638,38.729,23.88c8.16,10.898,10.893,24.927,7.421,38.091
		c-0.039,0.146-0.073,0.294-0.105,0.442c-3.518,16.562-17.226,29.023-34.047,30.951c-0.344,0.04-0.686,0.099-1.023,0.176
		c-18.812,4.307-37.552-7.452-41.858-26.264c-0.085-0.37-0.164-0.742-0.236-1.115c17.63-10.492,23.416-33.29,12.924-50.92
		c-4.909-8.249-12.821-14.277-22.078-16.821c-0.031-0.009-0.062-0.017-0.092-0.024c-21.066-5.56-42.649,7.012-48.208,28.077
		c-0.762,2.889-1.194,5.854-1.287,8.841c-2.292,23.632,6.911,46.926,24.737,62.608c15.587,16.461,36.06,27.467,58.389,31.388
		c24.854,4.393,50.458-0.262,72.177-13.119c0.271-0.161,0.535-0.335,0.788-0.522c27.574-20.342,43.494-52.854,42.654-87.11
		c-0.007-0.302-0.029-0.604-0.066-0.903c-3.313-27.162-19.17-51.198-42.836-64.933c-16.775-10.094-34.797-17.951-53.609-23.372
		c-0.706-0.203-1.433-0.322-2.166-0.355c-15.613-0.711-28.235-12.972-29.398-28.558c-0.028-0.376-0.079-0.75-0.152-1.119
		c-2.246-11.361,5.143-22.393,16.504-24.639c0.797-0.157,1.603-0.269,2.413-0.333c0.379-0.03,0.757-0.083,1.13-0.159
		c11.634-2.369,23.174,4.449,26.712,15.782c0.321,2.885-0.313,5.796-1.805,8.285c-1.706,1.632-3.119,3.544-4.179,5.653
		c-5.449,7.658-3.658,18.284,4.001,23.733c5.582,3.971,13,4.209,18.824,0.604c0.147-0.092,0.293-0.188,0.435-0.287l50.893-35.57
		c0.389-0.271,0.757-0.573,1.101-0.9c7.064-6.743,7.324-17.936,0.581-24.999c-4.043-4.236-9.921-6.195-15.697-5.232
		c-1.34,0.223-2.616,0.735-3.738,1.502C220.855,488.07,210.432,488.924,201.531,484.786L201.531,484.786z"/>
	<path fill-rule="evenodd" clip-rule="evenodd" fill="#E7E8E9" d="M509.442,483.863c-12.155,4.968-26.088,2.438-35.722-6.483
		c-0.818-0.758-1.766-1.364-2.798-1.788c-45.093-18.562-96.312-14.671-138.085,10.487c-0.06,0.035-0.118,0.072-0.177,0.109
		c-44.944,28.443-67.022,82.171-55.063,133.997c9.12,51.728,47.119,93.629,97.711,107.746c32.912,11.881,69.492,7.631,98.805-11.479
		c0.406-0.265,0.792-0.562,1.153-0.887c1.977-1.781,4.954-1.866,7.03-0.201c0.396,0.318,0.817,0.604,1.259,0.853
		c1.327,0.748,2.231,2.07,2.448,3.577c0.28,1.946,1.165,3.755,2.531,5.169c4.984,5.162,11.585,8.463,18.706,9.354
		c1.271,0.159,2.562,0.055,3.793-0.306c14.176-4.153,22.773-18.51,19.744-32.967c-2.371-20.339-3.978-40.76-4.815-61.22
		c-0.006-0.149-0.016-0.298-0.029-0.447c-0.454-5.102,0.859-10.204,3.72-14.453c3.125-3.996,7.027-7.317,11.473-9.764
		c8.543-4.182,12.079-14.497,7.897-23.041c-0.14-0.285-0.287-0.566-0.442-0.844c-4.647-8.299-15.144-11.259-23.442-6.611
		c-0.385,0.215-0.761,0.445-1.128,0.689c-0.053,0.035-0.105,0.071-0.158,0.107c-23.761,16.525-46.866,33.974-69.264,52.305
		c-8.146,4.431-11.156,14.626-6.726,22.771c2.634,4.842,7.476,8.082,12.956,8.671c1.174,0.154,2.308,0.532,3.339,1.115
		c3.369,2.913,3.739,8.006,0.826,11.375c-0.588,0.68-1.284,1.256-2.062,1.706c-26.817,13.668-59.259,9.595-81.865-10.278
		c-0.28-0.246-0.575-0.475-0.882-0.686c-16.207-11.128-28.507-26.948-35.341-45.377c-7.549-20.344-7.912-42.657-1.029-63.235
		c0.009-0.025,0.018-0.052,0.026-0.078c9.857-30.356,34.9-53.328,65.993-60.534c0.19-0.045,0.38-0.095,0.567-0.15
		c16.988-5.079,35.349-2.481,50.262,7.112c0.413,0.266,0.847,0.498,1.296,0.696c-0.358,0.898-0.576,1.848-0.645,2.813
		c-0.038,0.545-0.344,1.035-0.817,1.309c-1.374,0.793-2.523,1.924-3.341,3.283c-5.125,8.529-2.365,19.598,6.164,24.723
		c4.67,2.806,10.36,3.348,15.477,1.474c0.997-0.365,1.925-0.897,2.743-1.574c14.769-12.207,30.605-23.062,47.318-32.432
		c0.62-0.348,1.198-0.765,1.724-1.243c6.747-6.144,7.237-16.594,1.094-23.341c-0.073-0.081-0.147-0.16-0.223-0.239
		C525.643,479.52,516.156,478.751,509.442,483.863L509.442,483.863z"/>
	<path fill-rule="evenodd" clip-rule="evenodd" fill="#FF007F" d="M190.461,540.064l50.893-35.57
		c2.643-2.522,3.331-6.473,1.697-9.74s-5.208-5.088-8.812-4.487c-11.378,7.767-26.117,8.609-38.306,2.188
		c-5.022-5.204-10.32-10.137-15.87-14.774c-16.236-9.358-35.515-11.915-53.629-7.114c-20.39,4.213-36.559,19.744-41.59,39.947
		c-5.915,19.352-1.124,40.389,12.586,55.271c17.083,14.218,36.051,26.004,56.365,35.022c16.546,4.918,31.473,14.177,43.231,26.814
		c10.117,13.236,13.551,30.405,9.303,46.515c-4.354,20.497-21.318,35.92-42.137,38.307c-12.968,2.969-26.584-0.048-37.085-8.215
		c-10.501-8.168-16.776-20.622-17.091-33.923c11.534-3.951,19.146-14.96,18.769-27.146s-8.654-22.704-20.41-25.935
		c-8.917-2.354-18.421-0.487-25.786,5.063s-11.778,14.172-11.973,23.393c-2.13,20.888,6.035,41.506,21.89,55.271
		c30.894,32.878,80.461,39.927,119.296,16.964c25.118-18.529,39.619-48.146,38.854-79.349
		c-2.961-24.274-17.144-45.751-38.306-58.007c-16.094-9.691-33.387-17.234-51.44-22.437c-20.344-0.926-36.792-16.902-38.306-37.212
		c-1.679-8.491,0.351-17.297,5.578-24.196c5.228-6.9,13.154-11.238,21.784-11.921c16.66-3.393,33.12,6.627,37.759,22.984
		c0.886,5.761-0.486,11.643-3.831,16.417c-1.437,1.167-2.565,2.671-3.283,4.378c-2.455,2.868-2.453,7.098,0.003,9.964
		C183.071,541.403,187.251,542.051,190.461,540.064L190.461,540.064z"/>
	<path fill-rule="evenodd" clip-rule="evenodd" fill="#FF007F" d="M470.645,514.344c1.025-2.24,1.078-4.806,0.145-7.086
		c-0.933-2.281-2.769-4.074-5.07-4.953c-17.211-11.071-38.399-14.07-58.007-8.208c-34.291,7.948-61.91,33.282-72.781,66.762
		c-14.771,44.225,1.524,92.885,39.947,119.297c25.545,22.455,62.22,27.013,92.482,11.492c5.115-2.849,8.459-8.075,8.899-13.913
		s-2.08-11.507-6.71-15.091c-2.32-1.467-4.937-2.401-7.661-2.736c-3.379-0.33-6.103-2.909-6.619-6.264
		c-0.516-3.354,1.308-6.633,4.43-7.964c22.464-18.422,45.648-35.946,69.499-52.534c1.823-1.214,4.069-1.612,6.199-1.099
		c2.129,0.514,3.948,1.892,5.018,3.803c1.07,1.91,1.295,4.182,0.62,6.265c-0.675,2.084-2.188,3.791-4.176,4.712
		c-5.749,3.119-10.782,7.406-14.775,12.586c-4.192,6.082-6.128,13.438-5.473,20.795c0.854,20.85,2.497,41.659,4.926,62.385
		c2.254,9.776-3.506,19.616-13.134,22.437c-4.999-0.625-9.634-2.942-13.134-6.566c-0.631-4.382-3.259-8.223-7.114-10.397
		c-5.655-4.538-13.766-4.306-19.153,0.547c-26.955,17.572-60.611,21.425-90.84,10.397c-47.365-13.076-82.95-52.283-91.388-100.69
		c-11.187-48.018,9.231-97.856,50.892-124.222c39.234-23.63,87.342-27.283,129.694-9.851c12.722,11.781,31.261,14.8,47.062,7.661
		c1.37-1.351,3.227-2.094,5.15-2.061s3.754,0.839,5.077,2.235c1.323,1.397,2.029,3.268,1.958,5.19s-0.913,3.736-2.336,5.032
		c-17.202,9.645-33.502,20.816-48.703,33.381c-3.446,1.263-7.314,0.215-9.651-2.614c-2.338-2.83-2.637-6.826-0.746-9.972
		C468.337,521.272,470.388,517.991,470.645,514.344L470.645,514.344z"/>
	<path fill-rule="evenodd" clip-rule="evenodd" fill="#DDDBDB" d="M375.086,220.617c4.19,1.621,7.774,4.502,10.258,8.247
		c0.011,2.407-1.826,4.419-4.225,4.626c-5.625,1.754-11.756,0.543-16.292-3.218c2.847,0.406,5.715-0.582,7.707-2.654
		c1.993-2.072,2.868-4.977,2.351-7.805C374.956,220.204,375.057,220.606,375.086,220.617L375.086,220.617z"/>
	<path fill-rule="evenodd" clip-rule="evenodd" d="M322.387,262.856c0.604-1.664,1.565-3.174,2.816-4.425
		c0.803-0.506,1.8-0.593,2.678-0.233c0.879,0.359,1.529,1.121,1.747,2.044c0.788,1.852,0.859,3.931,0.201,5.833
		c-0.569,0.577-1.433,0.752-2.183,0.444c-0.75-0.309-1.238-1.041-1.236-1.852c-0.256-1.332-0.457-2.674-0.604-4.022
		c-1.367,0.817-2.264,2.236-2.414,3.821c-0.213,0.173-0.489,0.247-0.76,0.202s-0.509-0.204-0.654-0.437s-0.184-0.516-0.105-0.779
		C321.951,263.188,322.139,262.972,322.387,262.856L322.387,262.856z"/>
	<path fill-rule="evenodd" clip-rule="evenodd" d="M308.71,254.811c0.402-0.909,0.156-1.974-0.604-2.615
		c-1.153-0.468-2.378-0.74-3.621-0.804c-2.463,0.452-4.757,1.564-6.638,3.218c-0.327,0.453-0.454,1.021-0.351,1.57
		c0.103,0.549,0.427,1.032,0.896,1.336c0.469,0.304,1.042,0.401,1.586,0.27c0.543-0.131,1.009-0.479,1.288-0.963
		c1.916-1.394,4.112-2.354,6.437-2.816C308.075,254.226,308.414,254.496,308.71,254.811L308.71,254.811z"/>
	<path fill-rule="evenodd" clip-rule="evenodd" d="M296.642,202.917c-5.354,5.283-12.412,8.491-19.913,9.051
		c4.667-1.487,9.028-3.804,12.873-6.839c-1.597,0.002-3.175-0.341-4.626-1.006c2.252,0.167,4.414-0.915,5.632-2.816
		c-2.875-6.164-7.581-11.291-13.476-14.683c0.095,6.563-4.448,12.284-10.862,13.678c3.29,1.683,6.973,2.448,10.661,2.212
		c-3.586,1.436-7.545,1.648-11.264,0.604l-0.201,1.81l-0.805-3.419c-1.403,0.012-2.762-0.489-3.822-1.408l-1.005,5.431l-0.604-5.632
		c-1.44-0.16-2.786-0.797-3.822-1.811l-0.805,4.425L254,197.486c-1.052-0.056-2.05-0.483-2.816-1.207l-2.011,3.621l0.402-4.626
		l-3.218,1.811l1.609-3.218c-0.168-1.117-0.943-2.047-2.012-2.414l-3.017,2.212l2.212-3.621c-0.565-1.044-0.777-2.244-0.603-3.419
		c-2.093,1.101-4.326,1.913-6.638,2.414c0.557-1.519,1.843-2.653,3.419-3.017c-1.272,0.219-2.566-0.238-3.419-1.207
		c1.678,0.438,3.464,0.065,4.827-1.006c-5.163,0.238-10.007-2.497-12.47-7.04c1.963,3.215,5.99,4.5,9.453,3.017
		c-1.983-0.938-3.124-3.058-2.816-5.23c1.624,3.174,5.148,4.895,8.649,4.224c-1.744-1.388-2.462-3.702-1.81-5.833
		c0.756,2.696,3.055,4.678,5.833,5.028c-1.229-1.59-2.056-3.453-2.414-5.431l-1.811-0.201c2.611-0.557,5.226-1.094,7.845-1.609
		l-4.626-1.408c5.832,0.761,11.76-0.146,17.097-2.615c11.696,0.323,22.471,6.426,28.763,16.292c3.09,4.482,4.643,9.846,4.425,15.286
		c-1.114-0.16-1.958-1.088-2.011-2.212c-3.012-11.883-11.77-21.472-23.333-25.544c-6.817-0.136-13.629,0.471-20.315,1.81
		c-1.444-0.108-2.877,0.321-4.023,1.207c0.548,1.993,2.059,3.579,4.023,4.224c-0.495-1.139-0.703-2.382-0.604-3.621
		c1.357,2.168,3.952,3.222,6.437,2.615c-0.797-1.105-1.155-2.467-1.006-3.822c1.512,2.063,3.732,3.495,6.235,4.023l-0.604-4.023
		l2.012,3.621l1.81-3.419l1.006,2.615c1.218,1.509,3.092,2.334,5.028,2.212l0.402-4.425c-0.28,2.642,1.073,5.189,3.419,6.436
		C286.518,184.813,293.449,193.044,296.642,202.917L296.642,202.917z"/>
	<path fill-rule="evenodd" clip-rule="evenodd" fill="#FFFFFF" d="M257.218,182.602c-1.111-0.167-2.146,0.599-2.313,1.709
		s0.599,2.146,1.71,2.313s2.146-0.599,2.313-1.709S258.329,182.769,257.218,182.602L257.218,182.602z"/>
	<path fill-rule="evenodd" clip-rule="evenodd" fill="#FFFFFF" d="M360.805,215.991c-1,0.055-1.766,0.911-1.71,1.911
		c0.056,1,0.911,1.765,1.911,1.709c1-0.055,1.765-0.911,1.709-1.911C362.66,216.701,361.805,215.936,360.805,215.991
		L360.805,215.991z"/>
	<path fill-rule="evenodd" clip-rule="evenodd" fill="#7F7F7F" d="M268.683,186.021c0.833,3.201-1.059,6.478-4.248,7.357
		c-3.188,0.88-6.493-0.964-7.419-4.14c-0.972-0.361-2.064-0.007-2.639,0.855c-0.575,0.862-0.481,2.007,0.226,2.765
		c2.057,4.27,6.861,6.471,11.438,5.241c4.577-1.23,7.63-5.544,7.269-10.269C272.455,186.136,270.461,185.356,268.683,186.021
		L268.683,186.021z M372.068,218.002c1.326,3.823-0.403,8.035-4.032,9.824c-3.63,1.789-8.023,0.595-10.249-2.785
		c1.021,0.148,2.059-0.136,2.86-0.786c0.802-0.649,1.297-1.604,1.364-2.633c1.465,0.768,3.24,0.629,4.569-0.356
		c1.328-0.986,1.976-2.645,1.666-4.27C369.601,216.418,371.175,216.833,372.068,218.002L372.068,218.002z"/>
	<path fill-rule="evenodd" clip-rule="evenodd" fill="#FF007F" d="M293.825,305.9c7.516,1.291,14.823,3.591,21.723,6.839
		c0.04,0.772,0.245,1.527,0.604,2.212c4.37-0.06,8.676,1.052,12.471,3.218c-0.387,0.594-0.531,1.314-0.402,2.012
		c3.627,1.314,7.417,2.126,11.265,2.414c0.239,0.494,0.077,1.088-0.379,1.393c-0.457,0.305-1.068,0.225-1.432-0.186
		c-5.66-0.211-11.184-1.799-16.092-4.626c-0.64,0.871-0.791,2.008-0.401,3.017c2.028,0.96,4.204,1.572,6.436,1.81
		c0.048,0.544-0.253,1.06-0.75,1.286s-1.083,0.114-1.462-0.28c-9.519-3.668-19.447-6.167-29.567-7.442
		c0.013-0.973,0.493-1.88,1.29-2.438s1.813-0.699,2.732-0.378c-3.659-1.046-7.348-1.985-11.062-2.816
		c-0.128-0.675,0.154-1.363,0.719-1.755c0.565-0.391,1.308-0.413,1.896-0.055c4.095,1.65,8.458,2.536,12.873,2.615
		c0.599-0.013,1.103-0.45,1.201-1.04c0.098-0.59-0.237-1.167-0.799-1.374c-3.341-1.515-6.997-2.205-10.66-2.011
		c-0.573-0.083-1.013-0.55-1.061-1.127S293.274,306.077,293.825,305.9L293.825,305.9z"/>
	<path fill-rule="evenodd" clip-rule="evenodd" d="M246.361,148.862l25.743,0.243c10.411,7.708,21.653,14.225,33.515,19.429
		c2.73-0.143,5.087,1.893,5.343,4.614c1.564,3.175,2.395,6.661,2.429,10.2c-2.531-1.611-4.821-3.573-6.8-5.829
		c-14.882-2.131-28.096-10.645-36.187-23.315c-8.035-0.575-16-1.876-23.801-3.886c-0.359-0.012-0.66-0.275-0.719-0.629
		C245.826,149.336,246.025,148.99,246.361,148.862L246.361,148.862z"/>
	<path fill-rule="evenodd" clip-rule="evenodd" d="M295.032,321.388c3.771-0.405,7.507,1.015,10.057,3.822
		c0.209,0.217,0.507,0.325,0.806,0.294c0.3-0.032,0.568-0.199,0.728-0.455c0.16-0.255,0.193-0.57,0.09-0.853
		c-0.103-0.283-0.331-0.502-0.617-0.596c-2.361-3.798-7.078-5.399-11.264-3.821c-0.366-0.285-0.868-0.321-1.271-0.092
		s-0.628,0.679-0.571,1.139c0.058,0.46,0.387,0.84,0.833,0.963C294.271,321.913,294.747,321.754,295.032,321.388L295.032,321.388z
		 M309.715,296.849c0,0,15.287-0.201,12.471,0c3.204,6.176,6.289,12.412,9.253,18.706c1.135,1.201,2.882,1.598,4.425,1.006
		c0.147-0.417,0.543-0.695,0.986-0.691c0.442,0.004,0.834,0.289,0.974,0.708s-0.002,0.882-0.354,1.151
		c-0.352,0.269-0.835,0.284-1.203,0.039c-5.566,0.967-11.09-1.918-13.477-7.04c-12.092-0.421-23.641-5.126-32.584-13.275
		c-9.655,0.793-19.375-0.022-28.763-2.414c-0.554-0.232-0.975-0.701-1.145-1.277c-0.169-0.576-0.07-1.198,0.27-1.693
		s0.886-0.811,1.485-0.858c0.599-0.048,1.188,0.176,1.602,0.611c-0.125,0.512-0.019,1.053,0.292,1.479s0.792,0.694,1.318,0.733
		c8.344,1.957,17.111,0.887,24.74-3.017c3.408-0.547,6.828-1.016,10.258-1.408c3.139,2.771,6.661,5.075,10.459,6.839
		L309.715,296.849L309.715,296.849z M294.657,293.43c6.789,5.286,15.394,7.672,23.936,6.637c1.884,2.524,3.251,5.395,4.022,8.448
		c-11.33-0.135-22.295-4.026-31.176-11.063c-1.527-0.468-3.008-1.074-4.425-1.81C289.47,294.617,292.034,293.875,294.657,293.43
		L294.657,293.43z"/>
	<path fill-rule="evenodd" clip-rule="evenodd" fill="#DDDBDB" d="M357.385,210.761c4.172-3.481,9.733-4.807,15.027-3.583
		c5.293,1.225,9.707,4.858,11.926,9.818C376.524,211.453,366.84,209.212,357.385,210.761L357.385,210.761z"/>
</g>
</svg>
