<?xml version="1.0" standalone="no"?>
<!DOCTYPE svg PUBLIC "-//W3C//DTD SVG 1.1//EN" "http://www.w3.org/Graphics/SVG/1.1/DTD/svg11.dtd" >
<svg>
<metadata>
Created by FontForge 20110222 at Thu Sep 25 13:24:01 2014
 By Orthosie Webhosting
Copyright 2010 Adobe Systems Incorporated. All rights reserved.
</metadata>
<defs>
<font id="SatelliteRegular" horiz-adv-x="656" >
  <font-face 
    font-family="SatelliteRegular"
    font-weight="400"
    font-stretch="normal"
    units-per-em="1000"
    panose-1="0 0 0 0 0 0 0 0 0 0"
    ascent="784"
    descent="-216"
    x-height="439"
    cap-height="790"
    bbox="-6 -224 1192 1037"
    underline-thickness="50"
    underline-position="-50"
    unicode-range="U+0020-FB06"
  />
<missing-glyph horiz-adv-x="529" 
 />
    <glyph glyph-name="f_f" unicode="ff" horiz-adv-x="512" 
d="M354 565v-105h129v-23h-129v-437h-31v437h-186v-437h-30v437h-62v23h62q0 15 -0.5 42.5t-0.5 40.5q0 50 9 82q20 72 79 118t135 47v-30q-81 -2 -136.5 -59t-55.5 -136v-105h186q0 15 -0.5 42.5t-0.5 40.5q0 50 9 82q20 72 79.5 118t136.5 47v-30q-81 -2 -137 -59
t-56 -136z" />
    <glyph glyph-name="f_i" unicode="fi" horiz-adv-x="432" 
d="M355 0h-30v437h-192v-437h-30v437h-61v23h61q0 15 -0.5 43t-0.5 41q0 52 9 84q20 72 79 118.5t135 47.5v-30q-81 -3 -136.5 -59.5t-55.5 -136.5v-108h222v-460z" />
    <glyph glyph-name="f_l" unicode="fl" horiz-adv-x="441" 
d="M347 460v299q-80 -1 -135 -58t-55 -136v-105h190zM377 0h-30v437h-190v-437h-30v437h-61v23h61q0 15 -0.5 42.5t-0.5 40.5q0 50 9 82q19 73 78.5 119t133.5 46h30v-790z" />
    <glyph glyph-name="f_f_i" unicode="ffi" horiz-adv-x="627" 
d="M550 0h-30v435h-194v-435h-30v435h-187v-435h-30v435h-62v23h62q0 15 -0.5 42.5t-0.5 41.5q2 58 9 83q20 72 79 118t136 47v-30q-81 -2 -137 -59t-56 -136v-107h187q0 15 -0.5 42.5t-0.5 41.5q2 58 9 83q19 71 77.5 114.5t138.5 50.5v-30q-81 -2 -137.5 -59t-56.5 -136
v-107h224v-458z" />
    <glyph glyph-name="f_f_l" unicode="ffl" horiz-adv-x="648" 
d="M538 459v300q-81 -1 -137.5 -58t-56.5 -136v-106h194zM568 0h-30v436h-194v-436h-30v436h-187v-436h-30v436h-62v23h62q0 15 -0.5 42.5t-0.5 40.5q0 51 9 83q19 72 78.5 118t136.5 47v-30q-81 -2 -137 -59t-56 -136v-106h187q0 15 -0.5 42.5t-0.5 40.5q2 58 9 83
q20 72 80 118.5t136 46.5h30v-790z" />
    <glyph glyph-name=".notdef" horiz-adv-x="529" 
 />
    <glyph glyph-name=".null" horiz-adv-x="0" 
 />
    <glyph glyph-name="nonmarkingreturn" horiz-adv-x="333" 
 />
    <glyph glyph-name="space" unicode=" " horiz-adv-x="300" 
 />
    <glyph glyph-name="exclam" unicode="!" horiz-adv-x="128" 
d="M75 -3q-9 0 -15 6.5t-6 16.5q0 9 6.5 16t15.5 7q10 0 17 -7t7 -16q0 -10 -7 -16.5t-18 -6.5zM94 190h-33v610h33v-610z" />
    <glyph glyph-name="quotedbl" unicode="&#x22;" horiz-adv-x="242" 
d="M92 790l-6 -119h-35l-3 119h44zM185 790l-5 -119h-35l-5 119h45z" />
    <glyph glyph-name="numbersign" unicode="#" horiz-adv-x="333" 
d="M214 587h-94l-17 -92h94zM290 613l-4 -26h-49l-16 -92h49l-5 -26h-49l-8 -49h-24l9 49h-94l-9 -49h-23l8 49h-48l4 26h49l16 92h-49l5 26h49l8 49h24l-9 -49h94l9 49h23l-8 -49h48z" />
    <glyph glyph-name="dollar" unicode="$" horiz-adv-x="427" 
d="M198 10v84q-108 8 -167 85l24 16q50 -65 143 -72v269q-33 8 -52.5 13.5t-46 18t-41 27t-25.5 39t-11 55.5q0 73 50.5 112.5t125.5 41.5v71h30v-71q107 -10 163 -94l-24 -16q-48 72 -139 80v-255q32 -7 52 -13t45.5 -18t40 -27t25 -39t10.5 -55q0 -73 -50 -118.5
t-123 -49.5v-84h-30zM228 385v-262q62 4 103.5 40.5t41.5 98.5q0 55 -37 80.5t-108 42.5zM198 421v249q-63 -2 -105.5 -33t-42.5 -92q0 -56 37.5 -81t110.5 -43z" />
    <glyph glyph-name="percent" unicode="%" horiz-adv-x="671" 
d="M433 174q-28 0 -49 -21.5t-21 -49.5t21 -49t49 -21q29 0 50.5 21t21.5 49t-22 49.5t-50 21.5zM237 768q-28 0 -49.5 -21.5t-21.5 -49.5t21.5 -49t49.5 -21t49.5 21t21.5 49q0 29 -21 50t-50 21zM433 3q-41 0 -70.5 29.5t-29.5 70.5t29.5 70.5t70.5 29.5t71 -29.5
t30 -70.5t-30 -70.5t-71 -29.5zM618 798l-526 -795h-40l527 795h39zM237 598q-41 0 -70.5 29t-29.5 70t29.5 71t70.5 30t71 -30t30 -71t-30 -70t-71 -29z" />
    <glyph glyph-name="ampersand" unicode="&#x26;" horiz-adv-x="786" 
d="M598 257h-29q-4 -105 -76 -178.5t-177 -73.5q-103 0 -177 74.5t-74 177.5q0 82 49.5 148.5t132.5 94.5q-41 24 -63.5 60.5t-22.5 78.5q1 64 46.5 110t108.5 46q64 0 109.5 -45.5t46.5 -112.5h-25q0 55 -41 93t-90 38q-53 0 -90.5 -38t-38.5 -91q0 -52 37 -90t92 -39v-29
q-94 -2 -158.5 -67t-64.5 -157t65.5 -158t157.5 -66q35 0 72 13.5t71 39t57 70.5t25 101h-146v27h203q69 0 124 53l20 -21q-64 -59 -144 -59z" />
    <glyph glyph-name="quotesingle" unicode="'" horiz-adv-x="101" 
d="M73 790l-5 -119h-28l-2 119h35z" />
    <glyph glyph-name="parenleft" unicode="(" horiz-adv-x="309" 
d="M25 361q0 125 59.5 230t164.5 170v-45q-87 -58 -137.5 -152t-50.5 -203t50.5 -203t137.5 -152v-45q-105 65 -164.5 170t-59.5 230z" />
    <glyph glyph-name="parenright" unicode=")" horiz-adv-x="309" 
d="M40 -39v45q87 59 137.5 152.5t50.5 202.5t-50.5 202.5t-137.5 152.5v45q104 -65 164 -170.5t60 -229.5t-60 -229.5t-164 -170.5z" />
    <glyph glyph-name="asterisk" unicode="*" horiz-adv-x="345" 
d="M282 666l-86 -5l63 -55l-25 -25l-53 64l-4 -86h-28l-4 86l-55 -64l-25 25l64 55l-86 5v26l86 4l-64 54l25 25l55 -64l4 87h28l4 -87l53 64l25 -25l-63 -54l86 -4v-26z" />
    <glyph glyph-name="plus" unicode="+" horiz-adv-x="327" 
d="M260 369h-95v-97h-33v97h-94v34h94v97h33v-97h95v-34z" />
    <glyph glyph-name="comma" unicode="," horiz-adv-x="182" 
d="M139 -10l-86 -64l-13 18l60 76z" />
    <glyph glyph-name="hyphen" unicode="-" horiz-adv-x="327" 
d="M36 287v21h243v-21h-243z" />
    <glyph glyph-name="period" unicode="." horiz-adv-x="139" 
d="M64 -1q-11 0 -18.5 8t-7.5 19q0 12 7.5 20.5t18.5 8.5t19 -8t8 -21q0 -11 -8.5 -19t-18.5 -8z" />
    <glyph glyph-name="slash" unicode="/" horiz-adv-x="368" 
d="M316 798l-260 -795h-31l259 795h32z" />
    <glyph glyph-name="zero" unicode="0" horiz-adv-x="674" 
d="M345 762q-102 0 -172 -107t-70 -262q0 -154 70 -261.5t172 -107.5q103 0 172.5 107t69.5 262t-69.5 262t-172.5 107zM345 -10q-114 0 -193.5 118t-79.5 285q0 166 79.5 284.5t193.5 118.5t193 -118.5t79 -284.5q0 -167 -79 -285t-193 -118z" />
    <glyph glyph-name="one" unicode="1" horiz-adv-x="211" 
d="M155 0h-27v761h-79v29h106v-790z" />
    <glyph glyph-name="two" unicode="2" horiz-adv-x="517" 
d="M461 0h-412v32l358 457q26 34 26 93q0 74 -52 126.5t-126 52.5q-72 0 -124 -52t-54 -127h-28q2 88 62 148t144 60q85 0 145 -61t61 -147q0 -47 -23 -95q-17 -36 -166 -221l-189 -233h378v-33z" />
    <glyph glyph-name="three" unicode="3" horiz-adv-x="608" 
d="M312 -10q-104 0 -178.5 74.5t-76.5 182.5h27q3 -96 69.5 -162.5t158.5 -66.5q94 0 161 66.5t67 160.5t-66 161t-162 69v30q57 0 94.5 39.5t37.5 92.5q0 54 -38.5 92.5t-93.5 38.5q-53 0 -91.5 -38t-40.5 -93h-26q2 67 48 113t110 46q65 0 111.5 -46.5t46.5 -110.5
q0 -96 -88 -144q86 -29 136 -96.5t50 -151.5q0 -106 -75 -181.5t-181 -75.5z" />
    <glyph glyph-name="four" unicode="4" horiz-adv-x="552" 
d="M480 409v-28h-98v-381h-28v381h-290v409h28v-381h262v381h28v-381h98z" />
    <glyph glyph-name="five" unicode="5" horiz-adv-x="568" 
d="M256 -10q-109 0 -188 81l22 22q68 -74 166 -74q95 0 162.5 68t67.5 164q0 95 -67.5 163.5t-162.5 68.5q-97 0 -166 -74l-22 19v368h389v-30h-360v-310q77 56 159 56q106 0 182 -77t76 -184q0 -108 -75.5 -184.5t-182.5 -76.5z" />
    <glyph glyph-name="six" unicode="6" horiz-adv-x="514" 
d="M257 386q-75 0 -128.5 -54t-53.5 -130t53.5 -129.5t128.5 -53.5t128.5 53.5t53.5 129.5t-53 130t-129 54zM257 -10q-86 0 -148 62.5t-62 149.5q0 19 3.5 37.5t12 45.5t10.5 36q17 59 29 95l125 380h33l-142 -435q65 54 139 54q87 0 148.5 -62.5t61.5 -150.5
q0 -87 -62 -149.5t-148 -62.5z" />
    <glyph glyph-name="seven" unicode="7" horiz-adv-x="476" 
d="M418 790l-261 -790h-33q166 511 248 757h-320v33h366z" />
    <glyph glyph-name="eight" unicode="8" horiz-adv-x="566" 
d="M540 245q0 -104 -74.5 -179.5t-178.5 -75.5q-105 0 -179.5 75t-74.5 180q0 86 51 152t134 94q-87 49 -87 141h-1q2 66 47 112t110 46t110 -46t47 -112h-1q0 -94 -87 -141q82 -27 133 -93.5t51 -152.5zM157 632q0 -53 38.5 -92t91.5 -39t92 39t39 92t-39 91.5t-92 38.5
t-91.5 -38.5t-38.5 -91.5zM287 471q-93 0 -159.5 -65.5t-66.5 -158.5t66.5 -161t159.5 -68q92 0 158.5 67.5t66.5 159.5q0 94 -65.5 160t-159.5 66z" />
    <glyph glyph-name="nine" unicode="9" horiz-adv-x="531" 
d="M266 761q-74 0 -126 -52.5t-52 -126.5t52.5 -127t125.5 -53t125.5 53t52.5 127t-52 126.5t-126 52.5zM383 267q-21 -64 -51 -156.5t-36 -110.5h-33l140 426q-66 -53 -137 -53q-84 0 -145 61.5t-61 147.5t60.5 147t145.5 61t145.5 -61t60.5 -147q0 -10 -2.5 -25.5
t-8.5 -38t-11 -41t-15 -50.5t-16 -50t-18.5 -56.5t-17.5 -53.5z" />
    <glyph glyph-name="colon" unicode=":" horiz-adv-x="154" 
d="M86 81q-14 0 -23 9.5t-9 22.5t9 22t22 9q12 0 21 -9.5t9 -21.5q0 -13 -8.5 -22.5t-20.5 -9.5zM85 410q-13 0 -22 9t-9 22q0 14 9 23t22 9q12 0 21 -9.5t9 -22.5t-9 -22t-21 -9z" />
    <glyph glyph-name="semicolon" unicode=";" horiz-adv-x="164" 
d="M126 -10l-76 -64l-16 18l50 76zM85 410q-13 0 -22 9t-9 22t9 22.5t23 9.5q12 0 20.5 -9.5t8.5 -22.5t-8.5 -22t-21.5 -9z" />
    <glyph glyph-name="less" unicode="&#x3c;" horiz-adv-x="306" 
d="M259 130l-214 146v21l214 146v-34l-179 -123l179 -122v-34z" />
    <glyph glyph-name="equal" unicode="=" horiz-adv-x="327" 
d="M279 284h-238v32h238v-32zM279 366h-238v32h238v-32z" />
    <glyph glyph-name="greater" unicode="&#x3e;" horiz-adv-x="306" 
d="M258 275l-215 -145v34l179 122l-179 122v35l215 -146v-22z" />
    <glyph glyph-name="question" unicode="?" horiz-adv-x="494" 
d="M270 -1q-12 0 -19.5 6.5t-7.5 17.5t7.5 19t19.5 8q10 0 17.5 -7.5t7.5 -17.5q0 -11 -8 -18.5t-17 -7.5zM286 378v-190h-33v222q74 1 126.5 52t52.5 123q0 74 -52 126.5t-125 52.5q-72 0 -123 -52t-52 -127h-33q1 89 61.5 151t146.5 62t148 -61.5t62 -147.5
q0 -79 -51 -139t-128 -72z" />
    <glyph glyph-name="at" unicode="@" horiz-adv-x="526" 
d="M361 346q-34 -70 -105 -70q-46 0 -79 33t-33 79t32.5 79t79.5 33q54 0 97 -56v56h15v-112q0 -64 57 -93q26 46 26 93q0 80 -57.5 137t-137.5 57t-137 -57t-57 -137t57 -137t137 -57q87 0 138 63q4 -2 30 -13q-65 -80 -168 -80q-93 0 -158.5 65t-65.5 159q0 93 65.5 158.5
t158.5 65.5t159 -65.5t66 -158.5q0 -69 -34 -118q-60 16 -86 76zM347 388q0 37 -27 63.5t-64 26.5t-64 -26.5t-27 -63.5q0 -38 26.5 -64.5t64.5 -26.5t64.5 26.5t26.5 64.5z" />
    <glyph glyph-name="A" unicode="A" horiz-adv-x="638" 
d="M491 213l-162 496l-163 -496h325zM325 790h7l263 -790h-32l-61 189h-347l-61 -189h-32z" />
    <glyph glyph-name="B" unicode="B" horiz-adv-x="573" 
d="M323 378h-229v-344h229q70 0 120 50.5t50 121.5t-49.5 121.5t-120.5 50.5zM303 756h-209v-351h219q68 0 114 52t46 125q0 72 -49.5 123t-120.5 51zM323 0h-262v790h242q83 0 143.5 -60.5t60.5 -145.5q0 -131 -114 -189q62 -18 98 -72.5t36 -116.5q0 -85 -59.5 -145.5
t-144.5 -60.5z" />
    <glyph glyph-name="C" unicode="C" horiz-adv-x="680" 
d="M655 50l-12 -5q-46 -19 -69 -27.5t-62.5 -18t-73.5 -9.5q-168 0 -286.5 118t-118.5 285t118.5 285t286.5 118q96 0 206 -55l10 -7l-17 -23q-45 19 -67 27.5t-60.5 18t-71.5 9.5q-155 0 -264.5 -109t-109.5 -264t109.5 -264.5t264.5 -109.5q33 0 71.5 9.5t60.5 18t67 27.5
z" />
    <glyph glyph-name="D" unicode="D" horiz-adv-x="699" 
d="M252 762h-169v-734h169q151 0 258 107.5t107 259.5t-107 259.5t-258 107.5zM252 0h-197v790h197q162 0 277.5 -116t115.5 -279t-115.5 -279t-277.5 -116z" />
    <glyph glyph-name="E" unicode="E" horiz-adv-x="597" 
d="M522 0h-454v790h454v-25h-423v-354h298v-25h-298v-361h423v-25z" />
    <glyph glyph-name="F" unicode="F" horiz-adv-x="559" 
d="M526 765h-425v-356h300v-25h-300v-384h-31v790h456v-25z" />
    <glyph glyph-name="G" unicode="G" horiz-adv-x="786" 
d="M453 -10q-164 0 -282 118.5t-118 284.5t118 284.5t282 118.5q165 0 291 -126l-23 -23q-116 116 -266 116q-154 0 -262 -107.5t-108 -262.5q0 -154 107.5 -262.5t260.5 -108.5q149 0 257 105v194h-268v26h300v-233q-122 -124 -289 -124z" />
    <glyph glyph-name="H" unicode="H" horiz-adv-x="672" 
d="M587 0h-31v386h-474v-386h-31v790h31v-379h474v379h31v-790z" />
    <glyph glyph-name="I" unicode="I" horiz-adv-x="203" 
d="M114 0h-33v790h33v-790z" />
    <glyph glyph-name="J" unicode="J" horiz-adv-x="520" 
d="M255 -10q-20 0 -31 2q-46 7 -81 31q-55 38 -81 102h34q41 -86 129 -101q9 -2 30 -2q72 0 123 52t51 126v596h32v-596q0 -86 -60.5 -148t-145.5 -62z" />
    <glyph glyph-name="K" unicode="K" horiz-adv-x="576" 
d="M520 0h-37q-92 99 -343 374l-47 -59v-315h-31v790h31v-428l339 428h38l-312 -393z" />
    <glyph glyph-name="L" unicode="L" horiz-adv-x="576" 
d="M517 0h-456v790h31v-758h425v-32z" />
    <glyph glyph-name="M" unicode="M" horiz-adv-x="782" 
d="M693 790l-1 -790h-31v685l-288 -491l-288 491v-685h-31v791h5l314 -539l313 539z" />
    <glyph glyph-name="N" unicode="N" horiz-adv-x="681" 
d="M578 0l-486 738v-738h-29v790l31 2l480 -731v738h29v-799h-25z" />
    <glyph glyph-name="O" unicode="O" horiz-adv-x="836" 
d="M424 763q-145 0 -242.5 -106t-97.5 -264q0 -159 97 -265t243 -106t243 106t97 265q0 158 -97.5 264t-242.5 106zM424 -10q-159 0 -265.5 115t-106.5 288q0 172 106.5 287.5t265.5 115.5t266 -115.5t107 -287.5q0 -173 -107 -288t-266 -115z" />
    <glyph glyph-name="P" unicode="P" horiz-adv-x="556" 
d="M313 758h-221v-349h221q72 0 122 51.5t50 123.5t-50 123t-122 51zM313 377h-221v-377h-31v790h252q84 0 144 -60.5t60 -145.5q0 -86 -59.5 -146.5t-144.5 -60.5z" />
    <glyph glyph-name="Q" unicode="Q" horiz-adv-x="846" 
d="M419 766q-149 0 -242.5 -108t-93.5 -259t94 -259t243 -108q148 0 241.5 108t93.5 259t-94 259t-242 108zM788 0h-369q-162 0 -265.5 117t-103.5 282t103.5 282t265.5 117t265.5 -117t103.5 -282q0 -114 -54 -210.5t-164 -156.5h218v-32z" />
    <glyph glyph-name="R" unicode="R" horiz-adv-x="572" 
d="M314 759h-223v-350h223q71 0 121.5 50.5t50.5 122.5q0 74 -50 125.5t-122 51.5zM523 0h-33q-49 92 -186 378h-213v-378h-29v790h252q83 0 142.5 -61t59.5 -145q0 -75 -51 -133t-129 -72z" />
    <glyph glyph-name="S" unicode="S" horiz-adv-x="596" 
d="M74 594q0 -50 26 -84t67.5 -51t92.5 -29.5t101.5 -25.5t92.5 -32.5t68 -58t26 -94.5q0 -106 -71.5 -167t-175.5 -61q-73 0 -139 28.5t-106 83.5l28 18q36 -48 93 -73t120 -25q92 0 155.5 50.5t63.5 141.5q0 50 -26 84t-68 51t-92 29t-100.5 25.5t-92.5 33t-68 58
t-26 94.5q0 103 70 156t177 53q75 0 139 -31t104 -91l-27 -18q-35 52 -90.5 79.5t-120.5 27.5q-96 0 -158 -41t-63 -131z" />
    <glyph glyph-name="T" unicode="T" horiz-adv-x="617" 
d="M578 765h-248v-765h-32v765h-247v25h527v-25z" />
    <glyph glyph-name="U" unicode="U" horiz-adv-x="653" 
d="M324 -10q-111 0 -191.5 76t-80.5 187v543h31v-531q0 -101 71 -172t170 -71q100 0 170.5 71t70.5 172v531h32v-531q0 -113 -80.5 -194t-192.5 -81z" />
    <glyph glyph-name="V" unicode="V" 
d="M606 790l-262 -790h-21q-56 167 -261 790h33q11 -33 54.5 -162t64.5 -199q11 -35 120 -363l239 724h33z" />
    <glyph glyph-name="W" unicode="W" horiz-adv-x="974" 
d="M946 796l-277 -833l-182 550l-183 -550l-277 833h32l245 -733l183 549l182 -549l244 733h33z" />
    <glyph glyph-name="X" unicode="X" horiz-adv-x="667" 
d="M613 0h-37l-243 367l-243 -367h-37l261 396l-259 394h36l242 -365l241 365h38l-260 -394z" />
    <glyph glyph-name="Y" unicode="Y" 
d="M605 790l-265 -401v-389h-32v389l-265 401h37l244 -368l244 368h37z" />
    <glyph glyph-name="Z" unicode="Z" horiz-adv-x="670" 
d="M611 790l-507 -765h490v-25h-542l508 765h-490v25h541z" />
    <glyph glyph-name="bracketleft" unicode="[" horiz-adv-x="314" 
d="M278 -31h-241v796h241v-28h-213v-740h213v-28z" />
    <glyph glyph-name="backslash" unicode="\" horiz-adv-x="390" 
d="M335 3h-31l-260 795h32z" />
    <glyph glyph-name="bracketright" unicode="]" horiz-adv-x="314" 
d="M268 -31h-241v28h213v740h-213v28h241v-796z" />
    <glyph glyph-name="asciicircum" unicode="^" horiz-adv-x="452" 
d="M386 475h-34l-122 179l-123 -179h-34l146 215h22z" />
    <glyph glyph-name="underscore" unicode="_" horiz-adv-x="327" 
d="M279 -28h-238v25h238v-25z" />
    <glyph glyph-name="grave" unicode="`" horiz-adv-x="182" 
d="M127 716l-14 -13l-63 58l41 25z" />
    <glyph glyph-name="a" unicode="a" horiz-adv-x="576" 
d="M271 416q-80 0 -133.5 -57.5t-53.5 -137.5t53.5 -137.5t133.5 -57.5q78 0 132.5 57t54.5 138q0 80 -54.5 137.5t-132.5 57.5zM490 0h-30v110q-75 -114 -189 -114q-93 0 -155 66t-62 159t62 159t155 66q114 0 189 -114v110h30v-442z" />
    <glyph glyph-name="b" unicode="b" horiz-adv-x="547" 
d="M283 420q-79 0 -126 -57t-47 -141t47 -140.5t126 -56.5q80 0 134 57.5t54 139.5t-54 140t-134 58zM283 -6q-58 0 -104 28t-71 80v-102h-30v788h30v-445q25 50 72 78.5t103 28.5q92 0 155 -66.5t63 -161.5t-63 -161.5t-155 -66.5z" />
    <glyph glyph-name="c" unicode="c" horiz-adv-x="481" 
d="M420 71l-8 -10q-51 -65 -156 -65q-91 0 -152 65.5t-61 160.5t61 161t152 66q104 0 156 -65l8 -10l-22 -21l-7 9q-57 57 -135 57t-130 -57.5t-52 -139.5q0 -81 52 -138.5t130 -57.5q90 0 135 57l7 9z" />
    <glyph glyph-name="d" unicode="d" horiz-adv-x="562" 
d="M266 423q-81 0 -135 -58t-54 -140t54 -140t135 -58q78 0 125 57.5t47 140.5t-47 140.5t-125 57.5zM471 0h-30v106q-55 -110 -175 -110q-94 0 -156.5 66.5t-62.5 162.5q0 94 63 161t156 67q117 0 175 -110v447h30v-790z" />
    <glyph glyph-name="e" unicode="e" horiz-adv-x="533" 
d="M260 410q-73 0 -124 -50.5t-58 -126.5h372q-7 76 -62 126.5t-128 50.5zM481 218l-1 -14h-402q7 -78 58 -128t124 -50q95 0 143 41l22 -22q-60 -49 -165 -49q-89 0 -149 57q-64 61 -64 164q0 94 60 159t153 65q89 0 164 -73v-1q62 -72 57 -149z" />
    <glyph glyph-name="f" unicode="f" horiz-adv-x="328" 
d="M158 565v-106h126v-23h-126v-436h-30v436h-61v23h61q0 15 -0.5 42.5t-0.5 40.5q2 58 9 83q19 72 77.5 118t133.5 47v-30q-79 -2 -134 -59t-55 -136z" />
    <glyph glyph-name="g" unicode="g" horiz-adv-x="541" 
d="M271 414q-80 0 -133.5 -57t-53.5 -138q1 -81 54 -138.5t133 -57.5q78 0 124.5 57t46.5 139q-1 82 -47 138.5t-124 56.5zM254 -214q-92 0 -164 74l22 22q62 -65 142 -65q79 0 134.5 56t55.5 136v89q-46 -105 -173 -105q-92 0 -154.5 66.5t-62.5 159.5q1 94 63 160t154 66
q56 0 102 -28t71 -80v108h30v-436q0 -97 -64 -160t-156 -63z" />
    <glyph glyph-name="h" unicode="h" horiz-adv-x="460" 
d="M400 0h-29v290q0 48 -35 83.5t-83 35.5q-51 0 -99.5 -28.5t-48.5 -75.5v-305h-30v790h30v-410q22 28 64.5 43t83.5 15q64 0 105.5 -41.5t41.5 -106.5v-290zM75 790h30h-30z" />
    <glyph glyph-name="i" unicode="i" horiz-adv-x="206" 
d="M110 600q-11 0 -18.5 7.5t-7.5 18.5t7.5 18t18.5 7q10 0 17.5 -7.5t7.5 -17.5q0 -11 -7.5 -18.5t-17.5 -7.5zM124 0h-30v447h30v-447z" />
    <glyph glyph-name="j" unicode="j" horiz-adv-x="240" 
d="M121 597q-11 0 -19 7t-8 18q2 26 27 26q11 0 18 -7.5t7 -18.5q0 -10 -7 -17.5t-18 -7.5zM136 2q0 -37 -6 -72.5t-20 -71.5t-42.5 -58.5t-67.5 -23.5v30q30 0 52 21t33 53.5t16 63t5 58.5v445h30v-445z" />
    <glyph glyph-name="k" unicode="k" horiz-adv-x="473" 
d="M186 238l201 -238h-39l-183 218l-66 -65v-153h-30v790h30v-594l258 253h39z" />
    <glyph glyph-name="l" unicode="l" horiz-adv-x="194" 
d="M108 0h-30v790h30v-790z" />
    <glyph glyph-name="m" unicode="m" horiz-adv-x="726" 
d="M654 1h-29v286q0 49 -34.5 83.5t-83.5 34.5q-51 0 -88.5 -31.5t-37.5 -79.5v-294h-29v287q0 49 -31.5 83.5t-79.5 34.5q-53 0 -97 -29t-44 -74v-302h-28v432h29v-59q26 30 65 45.5t75 15.5q80 0 126 -84q22 40 60 62t80 22q61 0 104 -43t43 -104v-286z" />
    <glyph glyph-name="n" unicode="n" horiz-adv-x="473" 
d="M410 0h-29v290q0 49 -35 84t-83 35q-54 0 -101 -29t-47 -75v-305h-29v436h29v-56q22 29 66 43.5t82 14.5q62 0 104.5 -40.5t42.5 -107.5v-290z" />
    <glyph glyph-name="o" unicode="o" horiz-adv-x="506" 
d="M250 420q-79 0 -129.5 -58t-50.5 -141q0 -81 50.5 -138t129.5 -57q78 0 128.5 57t50.5 138q0 83 -50.5 141t-128.5 58zM250 -4q-92 0 -151 64.5t-59 160.5q0 95 59.5 162t150.5 67t150.5 -67t59.5 -162q0 -96 -59 -160.5t-151 -64.5z" />
    <glyph glyph-name="p" unicode="p" horiz-adv-x="566" 
d="M285 419q-78 0 -125.5 -56.5t-47.5 -139.5q0 -84 47 -141.5t126 -57.5q81 0 135 57.5t54 139.5q0 83 -54 140.5t-135 57.5zM285 -7q-115 0 -175 112v-321h-30v667h30v-109q24 52 71 80t104 28q92 0 155.5 -67t63.5 -162q0 -94 -63 -161t-156 -67z" />
    <glyph glyph-name="q" unicode="q" horiz-adv-x="575" 
d="M287 419q-80 0 -134.5 -57.5t-54.5 -140.5q0 -82 54.5 -139.5t134.5 -57.5q78 0 125.5 57t47.5 140q0 84 -47.5 141t-125.5 57zM492 -216h-30v319q-26 -52 -72 -81t-103 -29q-93 0 -156 67t-63 161q0 96 62.5 162.5t156.5 66.5q123 0 175 -110v111h30v-667z" />
    <glyph glyph-name="r" unicode="r" horiz-adv-x="333" 
d="M94 222v-222h-30v448h30v-114q73 111 187 114v-30q-79 -2 -133 -59.5t-54 -136.5z" />
    <glyph glyph-name="s" unicode="s" horiz-adv-x="400" 
d="M198 -5q-41 0 -80 19t-63 51l25 17q20 -26 53 -41.5t67 -15.5q47 0 80 23.5t33 71.5q0 36 -26.5 56t-64.5 28.5t-76 18t-64.5 35t-26.5 69.5q0 61 40.5 95t101.5 34q90 0 140 -77l-25 -16q-42 62 -114 62q-48 0 -81 -24t-33 -71q0 -36 26.5 -56t65 -28.5t76.5 -18
t64.5 -35t26.5 -69.5q0 -62 -41.5 -95.5t-103.5 -32.5z" />
    <glyph glyph-name="t" unicode="t" horiz-adv-x="317" 
d="M278 435h-125v-435h-31v435h-65v22h65v128h31v-128h125v-22z" />
    <glyph glyph-name="u" unicode="u" horiz-adv-x="440" 
d="M371 0h-29v56q-44 -62 -137 -62q-60 0 -99.5 44t-39.5 108v294h29v-294q0 -52 31.5 -87.5t78.5 -35.5q52 0 94.5 31t42.5 78v304h29v-436z" />
    <glyph glyph-name="v" unicode="v" horiz-adv-x="456" 
d="M398 439l-161 -439h-23l-160 439h36l136 -383l136 383h36z" />
    <glyph glyph-name="w" unicode="w" horiz-adv-x="640" 
d="M576 440l-122 -440h-25l-114 285l-113 -285h-26l-121 440h32l105 -387l123 315l125 -318l103 390h33z" />
    <glyph glyph-name="x" unicode="x" horiz-adv-x="452" 
d="M390 0h-41l-124 190l-123 -190h-38l142 220l-143 220h39l123 -190l124 190h38l-142 -220z" />
    <glyph glyph-name="y" unicode="y" horiz-adv-x="492" 
d="M100 448l155 -407l141 407h37l-231 -662h-36l73 209l-175 453h36z" />
    <glyph glyph-name="z" unicode="z" horiz-adv-x="440" 
d="M382 442l-276 -416h259v-26h-316l277 416h-260v26h316z" />
    <glyph glyph-name="asciitilde" unicode="~" horiz-adv-x="381" 
d="M241 495q-22 0 -41 8q-29 12 -49 12q-22 0 -47 -14l-20 21q43 19 67 19q32 0 65 -15q9 -5 25 -5q20 0 41 10l18 -23q-31 -13 -59 -13z" />
    <glyph glyph-name="exclamdown" unicode="&#xa1;" horiz-adv-x="128" 
d="M61 580h33v-610h-33v610zM76 773q10 0 17 -6.5t7 -16.5q0 -9 -7 -16t-17 -7q-9 0 -15.5 7t-6.5 16q0 10 6.5 16.5t15.5 6.5z" />
    <glyph glyph-name="cent" unicode="&#xa2;" horiz-adv-x="454" 
d="M391 257l22 -21l-8 -10q-49 -62 -147 -65v-81h-30v82q-83 8 -137 72t-54 153t54 153.5t137 72.5v77h30v-76q98 -3 147 -65l8 -10l-22 -21l-7 9q-52 52 -126 57v-393q72 3 126 57zM228 192v391q-70 -9 -115 -64.5t-45 -131.5t45 -131.5t115 -63.5z" />
    <glyph glyph-name="sterling" unicode="&#xa3;" horiz-adv-x="328" 
d="M307 766q-195 -4 -195 -236q0 -10 0.5 -21t1.5 -24.5t1 -20.5h128v-23h-127q1 -15 5.5 -104t4.5 -137q0 -141 -44 -174h225v-22h-261v22q50 18 50 188q0 24 -8 227h-53l1 23h51q-1 14 -1 43q0 47 5 86t20 77.5t39 64.5t63.5 43t92.5 18z" />
    <glyph glyph-name="yen" unicode="&#xa5;" 
d="M468 240v-25h-160v-215h-33v215h-154v25h154v55h-154v25h154v29l-228 362h38l207 -327l206 327h39l-229 -362v-29h160v-25h-160v-55h160z" />
    <glyph glyph-name="copyright" unicode="&#xa9;" horiz-adv-x="369" 
d="M236 584l-8 -5q-20 -20 -49 -20t-49.5 20.5t-20.5 49.5t20.5 50t49.5 21q28 0 50 -20l6 -7l-14 -12l-5 5q-15 15 -37 15t-37 -15t-15 -37q0 -21 15 -36.5t37 -15.5q21 0 37 16l5 5zM180 741q-46 0 -78.5 -33t-32.5 -79t32.5 -78.5t78.5 -32.5t78.5 32.5t32.5 78.5
t-32.5 79t-78.5 33zM180 496q-56 0 -95 38.5t-39 94.5t39 95.5t95 39.5t95 -39.5t39 -95.5q0 -55 -39 -94t-95 -39z" />
    <glyph glyph-name="guillemotleft" unicode="&#xab;" horiz-adv-x="306" 
d="M149 130l-114 146v21l114 146v-34l-79 -123l79 -122v-34zM259 130l-114 146v21l114 146v-34l-79 -123l79 -122v-34z" />
    <glyph glyph-name="registered" unicode="&#xae;" horiz-adv-x="369" 
d="M183 679h-22v-43q4 -1 12 -1q32 0 32 22q0 9 -6.5 15.5t-15.5 6.5zM229 555h-21l-31 61h-16v-61h-19v143h41q17 0 28.5 -12t11.5 -29q0 -28 -26 -38zM179 741q-47 0 -80.5 -34t-33.5 -81t33.5 -80.5t80.5 -33.5t81 34t34 80q0 47 -34 81t-81 34zM179 489q-57 0 -97.5 40
t-40.5 97t40.5 98t97.5 41q59 0 98.5 -40t39.5 -99q0 -57 -40.5 -97t-97.5 -40z" />
    <glyph glyph-name="degree" unicode="&#xb0;" horiz-adv-x="267" 
d="M136 740q-21 0 -36.5 -15.5t-15.5 -35.5t15.5 -35.5t36.5 -15.5t36.5 15.5t15.5 35.5t-15.5 35.5t-36.5 15.5zM136 610q-32 0 -56 23.5t-24 55.5q0 33 24 56.5t56 23.5t56 -23.5t24 -56.5q0 -32 -24 -55.5t-56 -23.5z" />
    <glyph glyph-name="guillemotright" unicode="&#xbb;" horiz-adv-x="306" 
d="M155 276l-114 -146v34l79 122l-79 123v34l114 -146v-21zM265 276l-114 -146v34l79 122l-79 123v34l114 -146v-21z" />
    <glyph glyph-name="questiondown" unicode="&#xbf;" horiz-adv-x="494" 
d="M230 771q12 0 19.5 -7.5t7.5 -18.5q0 -10 -8 -17.5t-19 -7.5q-10 0 -17.5 7t-7.5 16q0 12 7 20t18 8zM214 392v190h33v-222q-75 -1 -127 -52.5t-52 -124.5q0 -72 52.5 -124.5t124.5 -52.5t123 52t52 127h33q-1 -89 -61.5 -151t-146.5 -62t-148 62t-62 149
q0 78 51.5 137.5t127.5 71.5z" />
    <glyph glyph-name="Agrave" unicode="&#xc0;" horiz-adv-x="638" 
d="M491 213l-162 496l-163 -496h325zM325 790h7l264 -790h-32l-62 189h-347l-60 -189h-32zM362 838l-15 -15l-81 67l42 28z" />
    <glyph glyph-name="Aacute" unicode="&#xc1;" horiz-adv-x="638" 
d="M491 213l-162 496l-163 -496h325zM325 790h7l264 -790h-32l-62 189h-347l-60 -189h-32zM388 890l-79 -67l-15 15l51 80z" />
    <glyph glyph-name="Acircumflex" unicode="&#xc2;" horiz-adv-x="638" 
d="M491 213l-162 496l-163 -496h325zM325 790h8l262 -790h-32l-61 189h-347l-61 -189h-32zM443 780h-28l-86 88l-86 -88h-28l105 117h19z" />
    <glyph glyph-name="Atilde" unicode="&#xc3;" horiz-adv-x="638" 
d="M491 213l-162 496l-163 -496h325zM326 790h7l262 -790h-32l-61 189h-347l-61 -189h-32zM400 808q-19 0 -55 15t-56 15q-35 0 -73 -25l-3 27q48 25 76 25q25 0 63.5 -14.5t47.5 -14.5q31 0 59 20v-31q-44 -17 -59 -17z" />
    <glyph glyph-name="Adieresis" unicode="&#xc4;" horiz-adv-x="649" 
d="M211 832q-9 0 -16.5 7.5t-7.5 18.5t7 18.5t18 7.5t18.5 -7.5t7.5 -18.5t-8 -18.5t-19 -7.5zM450 832q-10 0 -17.5 8t-7.5 18q0 11 7.5 18.5t18.5 7.5t18.5 -7.5t7.5 -18.5t-8 -18.5t-19 -7.5zM491 213l-162 496l-163 -496h325zM325 790h8l262 -790h-32l-61 189h-347
l-61 -189h-32z" />
    <glyph glyph-name="Aring" unicode="&#xc5;" horiz-adv-x="644" 
d="M333 1017q-24 0 -41.5 -17t-17.5 -41t17.5 -41.5t41.5 -17.5t41.5 17.5t17.5 41.5t-17.5 41t-41.5 17zM333 881q-32 0 -55.5 23t-23.5 55t23.5 55t55.5 23t55.5 -23t23.5 -55t-23.5 -55t-55.5 -23zM491 213l-162 496l-163 -496h325zM326 790h7l262 -790h-32l-61 189h-347
l-61 -189h-32z" />
    <glyph glyph-name="AE" unicode="&#xc6;" horiz-adv-x="850" 
d="M146 213h222v494zM368 0v189h-233l-81 -189h-32l346 790h454v-25h-423v-354h298v-25h-298v-361h423v-25h-454z" />
    <glyph glyph-name="Ccedilla" unicode="&#xc7;" horiz-adv-x="696" 
d="M389 -148l-1 18q58 0 58 27q0 30 -47 30h-5l37 63q-166 3 -282 120t-116 283q0 167 119 285t286 118q46 0 116.5 -18.5t99.5 -43.5l-17 -23q-128 55 -199 55q-155 0 -264.5 -109t-109.5 -264t110 -264.5t264 -109.5q71 0 199 55l18 -24q-52 -21 -72 -29t-62 -19t-76 -12
l-18 -51q41 -3 46 -41q0 -18 -21 -32t-63 -14z" />
    <glyph glyph-name="Egrave" unicode="&#xc8;" horiz-adv-x="597" 
d="M523 0h-455v790h454v-25h-423v-354h298v-25h-298v-361h423zM332 838l-15 -15l-81 67l42 28z" />
    <glyph glyph-name="Eacute" unicode="&#xc9;" horiz-adv-x="621" 
d="M533 0h-454v791h454v-25h-423v-355h298v-24h-298v-362h423v-25zM360 881l-82 -67l-15 15l53 80z" />
    <glyph glyph-name="Ecircumflex" unicode="&#xca;" horiz-adv-x="597" 
d="M522 0h-454v790h454v-25h-423v-354h298v-25h-298v-361h423v-25zM423 810h-28l-86 88l-86 -88h-28l105 117h19z" />
    <glyph glyph-name="Edieresis" unicode="&#xcb;" horiz-adv-x="597" 
d="M522 0h-454v790h454v-25h-423v-354h298v-25h-298v-361h423v-25zM181 832q-9 0 -16.5 7.5t-7.5 18.5t7 18.5t18 7.5t18.5 -7.5t7.5 -18.5t-8 -18.5t-19 -7.5zM420 832q-10 0 -17.5 8t-7.5 18q0 11 7.5 18.5t18.5 7.5t18.5 -7.5t7.5 -18.5t-8 -18.5t-19 -7.5z" />
    <glyph glyph-name="Ntilde" unicode="&#xd1;" horiz-adv-x="674" 
d="M578 0l-486 738v-738h-29v790l32 2l479 -731v738h29v-799h-25zM420 808q-19 0 -55 15t-56 15q-35 0 -73 -25l-3 27q48 25 76 25q25 0 63.5 -14.5t47.5 -14.5q31 0 59 20v-31q-44 -17 -59 -17z" />
    <glyph glyph-name="Ograve" unicode="&#xd2;" horiz-adv-x="836" 
d="M424 763q-145 0 -242.5 -106t-97.5 -264q0 -159 97.5 -265t242.5 -106t242.5 105.5t97.5 263.5q0 159 -97 265.5t-243 106.5zM424 -10q-159 0 -265.5 114.5t-106.5 286.5q0 174 106 289.5t266 115.5q159 0 266 -115.5t107 -287.5q0 -173 -107 -288t-266 -115zM451 838
l-15 -15l-79 67l42 28z" />
    <glyph glyph-name="Oacute" unicode="&#xd3;" horiz-adv-x="836" 
d="M424 763q-145 0 -242.5 -106t-97.5 -264q0 -159 97.5 -265t242.5 -106t242.5 105.5t97.5 263.5q0 159 -97 265.5t-243 106.5zM424 -10q-159 0 -265.5 114.5t-106.5 286.5q0 174 106 289.5t266 115.5q159 0 266 -115.5t107 -287.5q0 -173 -107 -288t-266 -115zM479 890
l-81 -67l-15 15l53 80z" />
    <glyph glyph-name="Ocircumflex" unicode="&#xd4;" horiz-adv-x="836" 
d="M424 763q-145 0 -242.5 -106t-97.5 -264q0 -159 97 -265t243 -106t243 106t97 265q0 158 -97.5 264t-242.5 106zM424 -10q-159 0 -265.5 115t-106.5 288q0 172 106.5 287.5t265.5 115.5t266 -115.5t107 -287.5q0 -173 -107 -288t-266 -115zM533 810h-28l-86 88l-86 -88
h-28l105 117h19z" />
    <glyph glyph-name="Otilde" unicode="&#xd5;" horiz-adv-x="836" 
d="M424 763q-145 0 -242.5 -106t-97.5 -264q0 -159 97.5 -265t242.5 -106t242.5 105.5t97.5 263.5q0 159 -97 265.5t-243 106.5zM424 -10q-159 0 -265.5 114.5t-106.5 286.5q0 174 106 289.5t266 115.5q159 0 266 -115.5t107 -287.5q0 -173 -107 -288t-266 -115zM481 818
q-20 0 -55.5 15t-55.5 15q-37 0 -75 -25l-2 27q48 25 77 25q25 0 63 -14.5t48 -14.5q32 0 58 20v-31q-46 -17 -58 -17z" />
    <glyph glyph-name="Odieresis" unicode="&#xd6;" horiz-adv-x="837" 
d="M418 756q-146 0 -243 -106t-97 -266q0 -158 97.5 -264t242.5 -106t242.5 106t97.5 264q0 160 -97 266t-243 106zM418 -19q-159 0 -265.5 115.5t-106.5 287.5q0 173 105.5 288.5t265.5 115.5q159 0 266 -115.5t107 -288.5q0 -172 -106.5 -287.5t-265.5 -115.5zM300 809
q-13 0 -21 7.5t-8 18.5t8 19t20 8q10 0 17.5 -8t7.5 -19t-7.5 -18.5t-16.5 -7.5zM541 809q-9 0 -17 7.5t-8 18.5t7.5 19t17.5 8q12 0 19.5 -8t7.5 -19t-7.5 -18.5t-19.5 -7.5z" />
    <glyph glyph-name="multiply" unicode="&#xd7;" horiz-adv-x="306" 
d="M255 168h-37l-76 118l-75 -118h-36l94 147l-94 146h36l75 -118l76 118h36l-93 -146z" />
    <glyph glyph-name="Oslash" unicode="&#xd8;" horiz-adv-x="840" 
d="M424 -10q-103 0 -190 52l-28 -49h-31l37 64q-75 54 -117.5 142t-42.5 194q0 172 106.5 287.5t265.5 115.5q102 0 185 -50l25 42h32l-34 -57q77 -54 121 -142.5t44 -195.5q0 -173 -106.5 -288t-266.5 -115zM424 763q-145 0 -242.5 -106t-97.5 -264q0 -97 38.5 -177
t105.5 -130l365 631q-75 46 -169 46zM617 702l-367 -632q79 -48 174 -48q146 0 243 106t97 265q0 98 -39 178.5t-108 130.5z" />
    <glyph glyph-name="Ugrave" unicode="&#xd9;" horiz-adv-x="653" 
d="M324 -10q-111 0 -191.5 76t-80.5 187v543h31v-531q0 -101 71 -172t170 -71q100 0 170.5 71t70.5 172v531h32v-531q0 -113 -80.5 -194t-192.5 -81zM361 838l-15 -15l-79 67l42 28z" />
    <glyph glyph-name="Uacute" unicode="&#xda;" horiz-adv-x="653" 
d="M324 -10q-111 0 -191.5 76t-80.5 187v543h31v-531q0 -101 71 -172t170 -71q100 0 170.5 71t70.5 172v531h32v-531q0 -113 -80.5 -194t-192.5 -81zM389 890l-81 -67l-15 15l53 80z" />
    <glyph glyph-name="Ucircumflex" unicode="&#xdb;" horiz-adv-x="653" 
d="M324 -10q-111 0 -191.5 76t-80.5 187v543h31v-531q0 -101 71 -172t170 -71q100 0 170.5 71t70.5 172v531h32v-531q0 -113 -80.5 -194t-192.5 -81zM453 810h-28l-86 88l-86 -88h-28l105 117h19z" />
    <glyph glyph-name="Udieresis" unicode="&#xdc;" horiz-adv-x="659" 
d="M338 -18q-111 0 -191.5 76t-80.5 187v542h31v-530q0 -101 70.5 -172t170.5 -71t170.5 71t70.5 172v530h31v-530q0 -113 -80 -194t-192 -81zM218 783q-11 0 -18.5 7.5t-7.5 18.5t7.5 18.5t18.5 7.5t19 -7.5t8 -18.5t-8 -18.5t-19 -7.5zM461 783q-11 0 -18.5 7.5t-7.5 18.5
t7.5 18.5t18.5 7.5t19 -7.5t8 -18.5t-8.5 -18.5t-18.5 -7.5z" />
    <glyph glyph-name="Yacute" unicode="&#xdd;" 
d="M605 790l-264 -401v-389h-33v389l-265 401h37l244 -368l244 368h37zM388 890l-79 -67l-15 15l47 80z" />
    <glyph glyph-name="Thorn" unicode="&#xde;" horiz-adv-x="503" 
d="M83 119v-119h-31v790h31v-118h110q113 0 193 -81.5t80 -195.5t-79.5 -195t-193.5 -81h-110zM83 642v-494h110q102 0 173.5 72.5t71.5 174.5t-71.5 174.5t-173.5 72.5h-110z" />
    <glyph glyph-name="agrave" unicode="&#xe0;" horiz-adv-x="560" 
d="M271 418q-80 0 -133.5 -57.5t-53.5 -138.5t53.5 -138t133.5 -57q78 0 132.5 57t54.5 138t-54.5 138.5t-132.5 57.5zM490 0h-30v111q-75 -115 -189 -115q-93 0 -155 66t-62 160t62 160.5t155 66.5q113 0 189 -115v111h30v-445zM292 538l-15 -15l-81 67l43 28z" />
    <glyph glyph-name="aacute" unicode="&#xe1;" horiz-adv-x="565" 
d="M271 418q-80 0 -133.5 -57.5t-53.5 -138.5t53.5 -138t133.5 -57q78 0 132.5 57t54.5 138t-54.5 138.5t-132.5 57.5zM490 0h-30v111q-75 -115 -189 -115q-93 0 -155 66t-62 160t62 160.5t155 66.5q113 0 189 -115v111h30v-445zM348 590l-79 -67l-15 15l52 80z" />
    <glyph glyph-name="acircumflex" unicode="&#xe2;" horiz-adv-x="576" 
d="M271 419q-80 0 -133.5 -57.5t-53.5 -138.5t53.5 -138.5t133.5 -57.5q78 0 132.5 57.5t54.5 138.5t-54.5 138.5t-132.5 57.5zM490 0h-30v111q-75 -115 -189 -115q-93 0 -155 66.5t-62 160.5t62 160t155 66q114 0 189 -114v110h30v-445zM392 494h-28l-86 88l-86 -88h-28
l105 117h19z" />
    <glyph glyph-name="atilde" unicode="&#xe3;" horiz-adv-x="540" 
d="M271 418q-80 0 -133.5 -57.5t-53.5 -138.5t53.5 -138.5t133.5 -57.5q78 0 132.5 57.5t54.5 138.5t-54.5 138.5t-132.5 57.5zM490 0h-30v110q-75 -114 -189 -114q-93 0 -155 66t-62 160t62 160t155 66q114 0 189 -114v110h30v-444zM388 533h-237v29h237v-29z" />
    <glyph glyph-name="adieresis" unicode="&#xe4;" horiz-adv-x="559" 
d="M271 418q-80 0 -133.5 -57.5t-53.5 -138.5t53.5 -138.5t133.5 -57.5q78 0 132.5 57.5t54.5 138.5t-54.5 138.5t-132.5 57.5zM490 0h-30v111q-75 -115 -189 -115q-93 0 -155 66t-62 160t62.5 160t154.5 66q114 0 189 -114v110h30v-444zM165 534q-9 0 -17 7.5t-8 17.5
q0 11 8 18.5t17 7.5q11 0 18.5 -7.5t7.5 -18.5t-7.5 -18t-18.5 -7zM403 534q-10 0 -18.5 7.5t-8.5 17.5q0 11 8.5 18.5t18.5 7.5q11 0 18.5 -7.5t7.5 -18.5q0 -10 -7.5 -17.5t-18.5 -7.5z" />
    <glyph glyph-name="aring" unicode="&#xe5;" horiz-adv-x="560" 
d="M271 419q-80 0 -133.5 -57.5t-53.5 -138.5t53.5 -138.5t133.5 -57.5q78 0 132.5 57.5t54.5 138.5t-54.5 138.5t-132.5 57.5zM292 743q-24 0 -41.5 -17t-17.5 -41t17.5 -41t41.5 -17t41.5 17t17.5 41t-17.5 41t-41.5 17zM490 0h-30v111q-75 -115 -189 -115
q-93 0 -155 66.5t-62 160.5t62 160.5t155 66.5q114 0 189 -115v111h30v-446zM292 607q-32 0 -55.5 23.5t-23.5 54.5q0 32 23.5 55.5t55.5 23.5q31 0 54.5 -23.5t23.5 -55.5q0 -31 -23.5 -54.5t-54.5 -23.5z" />
    <glyph glyph-name="ae" unicode="&#xe6;" horiz-adv-x="911" 
d="M881 204h-401q7 -76 56.5 -127t124.5 -51q94 0 144 41l22 -22q-61 -49 -165 -49q-69 0 -123 36t-76 99q-72 -135 -202 -135q-93 0 -155 66t-62 159q0 94 62 159.5t155 65.5q115 0 189 -114v110h30v-101q29 48 77 74t105 26q88 0 163 -73v-1q57 -63 58 -137q0 -10 -2 -26z
M661 410q-74 0 -123 -50.5t-58 -126.5h371q-8 75 -61.5 126t-128.5 51zM261 416q-80 0 -133.5 -57.5t-53.5 -137.5t53.5 -137.5t133.5 -57.5q78 0 132.5 57t54.5 138q0 80 -54.5 137.5t-132.5 57.5z" />
    <glyph glyph-name="ccedilla" unicode="&#xe7;" horiz-adv-x="473" 
d="M249 -4h15l-17 -47q16 -1 31 -10.5t15 -30.5q0 -19 -22.5 -32t-49.5 -13l-1 14q24 0 41 8.5t17 22.5q0 29 -47 29h-5zM398 92l22 -21l-8 -10q-51 -65 -156 -65q-91 0 -152 65.5t-61 160.5t61 161t152 66q103 0 156 -65l8 -10l-22 -21l-7 9q-57 57 -135 57t-130 -57.5
t-52 -139.5q0 -81 52 -138.5t130 -57.5t135 57z" />
    <glyph glyph-name="egrave" unicode="&#xe8;" horiz-adv-x="542" 
d="M261 410q-73 0 -124.5 -50.5t-58.5 -126.5h372q-7 76 -61.5 126.5t-127.5 50.5zM482 218l-2 -14h-402q7 -78 58 -128t124 -50q96 0 143 41l22 -22q-60 -49 -165 -49q-89 0 -149 57q-64 60 -64 164q0 95 60 159.5t153 64.5q89 0 164 -73v-1q59 -66 59 -131q0 -12 -1 -18z
M292 538l-15 -15l-81 67l43 28z" />
    <glyph glyph-name="eacute" unicode="&#xe9;" horiz-adv-x="539" 
d="M261 410q-73 0 -124.5 -50.5t-58.5 -126.5h372q-7 76 -61.5 126.5t-127.5 50.5zM482 218l-2 -14h-402q7 -78 58 -128t124 -50q96 0 143 41l22 -22q-60 -49 -165 -49q-89 0 -149 57q-64 60 -64 164q0 95 60 159.5t153 64.5q89 0 164 -73v-1q59 -66 59 -131q0 -12 -1 -18z
M348 590l-80 -67l-14 15l52 80z" />
    <glyph glyph-name="ecircumflex" unicode="&#xea;" horiz-adv-x="533" 
d="M260 411q-73 0 -124 -50.5t-58 -126.5h372q-7 76 -62 126.5t-128 50.5zM481 218l-1 -14h-402q7 -78 58 -128t124 -50q95 0 143 41l22 -22q-60 -49 -165 -49q-92 0 -152.5 64t-60.5 158t60.5 159t152.5 65q89 0 164 -73v-1q57 -65 57 -138v-12zM372 494h-28l-86 88
l-86 -88h-28l105 117h19z" />
    <glyph glyph-name="edieresis" unicode="&#xeb;" horiz-adv-x="561" 
d="M260 410q-73 0 -124 -50.5t-58 -126.5h372q-7 76 -62 126.5t-128 50.5zM481 218l-1 -15h-402q7 -77 58 -127.5t124 -50.5q94 0 143 42l22 -22q-60 -49 -165 -49q-89 0 -149 57q-64 61 -64 164q0 94 60 158.5t153 64.5q90 0 164 -72v-1q57 -65 57 -137v-12zM157 534
q-9 0 -17 7.5t-8 17.5q0 11 8 18.5t17 7.5q11 0 18.5 -7.5t7.5 -18.5t-7.5 -18t-18.5 -7zM395 534q-11 0 -19 7.5t-8 17.5q0 11 8 18.5t19 7.5t18.5 -7.5t7.5 -18.5q0 -10 -7.5 -17.5t-18.5 -7.5z" />
    <glyph glyph-name="igrave" unicode="&#xec;" horiz-adv-x="185" 
d="M132 538l-15 -15l-80 67l42 28zM124 0h-33v447h33v-447z" />
    <glyph glyph-name="iacute" unicode="&#xed;" horiz-adv-x="188" 
d="M124 0h-33v447h33v-447zM159 590l-80 -67l-15 15l52 80z" />
    <glyph glyph-name="icircumflex" unicode="&#xee;" horiz-adv-x="228" 
d="M124 0h-33v447h33v-447zM222 494h-28l-86 88l-86 -88h-28l105 117h19z" />
    <glyph glyph-name="idieresis" unicode="&#xef;" horiz-adv-x="228" 
d="M25 534q-10 0 -17.5 7.5t-7.5 17.5q0 11 7.5 18.5t17.5 7.5q11 0 19 -7.5t8 -18.5q0 -10 -8 -17.5t-19 -7.5zM183 534q-11 0 -18.5 7.5t-7.5 17.5q0 11 7.5 18.5t18.5 7.5t19 -7.5t8 -18.5q0 -10 -8 -17.5t-19 -7.5zM124 0h-33v447h33v-447z" />
    <glyph glyph-name="ntilde" unicode="&#xf1;" horiz-adv-x="456" 
d="M380 0h-29v292q0 49 -30.5 83.5t-77.5 34.5q-53 0 -95.5 -28.5t-42.5 -75.5v-306h-29v438h29v-59q26 29 64.5 45t73.5 16q59 0 98 -43t39 -105v-292zM300 508q-19 0 -55 15t-56 15q-35 0 -73 -25l-3 27q48 25 76 25q25 0 63.5 -14.5t47.5 -14.5q31 0 59 20v-31
q-44 -17 -59 -17z" />
    <glyph glyph-name="ograve" unicode="&#xf2;" horiz-adv-x="497" 
d="M250 422q-79 0 -129.5 -58.5t-50.5 -141.5q0 -82 50.5 -138.5t129.5 -56.5q78 0 128.5 56.5t50.5 138.5q0 83 -50.5 141.5t-128.5 58.5zM250 -4q-92 0 -151 65t-59 161t59.5 163.5t150.5 67.5t150.5 -67.5t59.5 -163.5t-59 -161t-151 -65zM284 538l-15 -15l-81 67l43 28z
" />
    <glyph glyph-name="oacute" unicode="&#xf3;" horiz-adv-x="508" 
d="M250 422q-79 0 -129.5 -58.5t-50.5 -141.5q0 -82 50.5 -138.5t129.5 -56.5q78 0 128.5 56.5t50.5 138.5q0 83 -50.5 141.5t-128.5 58.5zM250 -4q-92 0 -151 65t-59 161t59.5 163.5t150.5 67.5t150.5 -67.5t59.5 -163.5t-59 -161t-151 -65zM332 590l-80 -67l-14 15l52 80z
" />
    <glyph glyph-name="ocircumflex" unicode="&#xf4;" horiz-adv-x="518" 
d="M250 423q-78 0 -129 -58.5t-51 -141.5t50.5 -139.5t129.5 -56.5q78 0 128.5 57t50.5 139q0 83 -50.5 141.5t-128.5 58.5zM250 -4q-91 0 -150.5 64.5t-59.5 160.5q0 97 59 164.5t151 67.5q91 0 150.5 -67t59.5 -163t-59.5 -161.5t-150.5 -65.5zM372 494h-28l-86 88
l-86 -88h-28l105 117h19z" />
    <glyph glyph-name="otilde" unicode="&#xf5;" horiz-adv-x="505" 
d="M250 422q-78 0 -129 -58t-51 -140q0 -83 50 -140.5t130 -57.5q78 0 128.5 57t50.5 139q0 83 -51 141.5t-128 58.5zM250 -4q-91 0 -150.5 65t-59.5 161t59.5 163t150.5 67t150.5 -67t59.5 -163t-59 -161t-151 -65zM371 539h-237v29h237v-29z" />
    <glyph glyph-name="odieresis" unicode="&#xf6;" horiz-adv-x="517" 
d="M250 422q-78 0 -129 -58.5t-51 -141.5q0 -82 50.5 -139t129.5 -57q78 0 128.5 57t50.5 139q0 83 -50.5 141.5t-128.5 58.5zM250 -4q-91 0 -150.5 65t-59.5 161t59.5 163t150.5 67t150.5 -67t59.5 -163t-59 -161t-151 -65zM126 534q-9 0 -17.5 7.5t-8.5 17.5
q0 11 8.5 18.5t18.5 7.5t17 -7.5t7 -18.5t-7.5 -18t-17.5 -7zM363 534q-11 0 -18 7t-7 18t7.5 18.5t17.5 7.5q11 0 18.5 -7.5t7.5 -18.5t-7.5 -18t-18.5 -7z" />
    <glyph glyph-name="oslash" unicode="&#xf8;" horiz-adv-x="506" 
d="M374 458h32l-30 -51q84 -67 84 -186q0 -96 -59.5 -160.5t-150.5 -64.5q-58 0 -102 26l-12 -19h-31l20 34q-85 64 -85 184q0 95 59.5 162t150.5 67q56 0 103 -28zM141 64l196 332q-40 24 -87 24q-79 0 -129.5 -58t-50.5 -141q0 -99 71 -157zM359 380l-196 -331
q38 -23 87 -23q78 0 128.5 57t50.5 138q0 103 -70 159z" />
    <glyph glyph-name="ugrave" unicode="&#xf9;" horiz-adv-x="448" 
d="M371 0h-29v56q-44 -62 -137 -62q-60 0 -99.5 44.5t-39.5 108.5v296h29v-296q0 -52 31.5 -87.5t78.5 -35.5q53 0 95 31t42 78v306h29v-439zM253 538l-14 -15l-81 67l43 28z" />
    <glyph glyph-name="uacute" unicode="&#xfa;" horiz-adv-x="443" 
d="M371 0h-29v56q-44 -62 -137 -62q-60 0 -99.5 44.5t-39.5 108.5v296h29v-296q0 -52 31.5 -87.5t78.5 -35.5q53 0 95 31t42 78v306h29v-439zM293 590l-78 -67l-16 15l53 80z" />
    <glyph glyph-name="ucircumflex" unicode="&#xfb;" horiz-adv-x="435" 
d="M371 0h-29v56q-44 -62 -137 -62q-60 0 -99.5 44.5t-39.5 108.5v297h29v-297q0 -52 31.5 -87.5t78.5 -35.5q53 0 95 31t42 78v307h29v-440zM332 494h-28l-86 88l-86 -88h-28l105 117h19z" />
    <glyph glyph-name="udieresis" unicode="&#xfc;" horiz-adv-x="434" 
d="M371 0h-29v56q-44 -62 -137 -62q-59 0 -99 44t-40 108v296h29v-296q0 -51 31.5 -87t78.5 -36q52 0 94.5 31.5t42.5 78.5v305h29v-438zM105 534q-9 0 -17.5 7.5t-8.5 17.5q0 11 8 18.5t18 7.5t17.5 -7.5t7.5 -18.5t-7 -18t-18 -7zM340 534q-10 0 -17.5 7.5t-7.5 17.5
q0 11 7 18.5t18 7.5q10 0 17.5 -7.5t7.5 -18.5t-7.5 -18t-17.5 -7z" />
    <glyph glyph-name="yacute" unicode="&#xfd;" horiz-adv-x="492" 
d="M100 448l155 -407l141 407h37l-231 -662h-36l73 209l-175 453h36zM318 590l-81 -67l-13 15l52 80z" />
    <glyph glyph-name="thorn" unicode="&#xfe;" horiz-adv-x="566" 
d="M285 419q-78 0 -125.5 -57t-47.5 -141q0 -83 47.5 -140t125.5 -57q81 0 135 57.5t54 139.5q-1 83 -54.5 140.5t-134.5 57.5zM285 -7q-115 0 -175 112v-321h-30v907h30v-349q24 52 71 80t104 28q93 0 156 -67t63 -162q0 -94 -63 -161t-156 -67z" />
    <glyph glyph-name="ydieresis" unicode="&#xff;" horiz-adv-x="492" 
d="M100 448l155 -407l141 407h37l-231 -662h-36l73 209l-175 453h36zM137 534q-10 0 -17.5 7.5t-7.5 17.5q0 11 7.5 18.5t17.5 7.5q11 0 19 -7.5t8 -18.5q0 -10 -8 -17.5t-19 -7.5zM375 534q-11 0 -18.5 7t-7.5 18t7 18.5t19 7.5q10 0 18.5 -7.5t8.5 -18.5q0 -10 -8 -17.5
t-19 -7.5z" />
    <glyph glyph-name="OE" unicode="&#x152;" horiz-adv-x="1236" 
d="M396 -10q-159 0 -265.5 115t-106.5 288q0 172 106.5 287.5t265.5 115.5q116 0 208 -64t134 -172v230h454v-25h-423v-354h298v-25h-298v-361h423v-25h-454v226q-43 -108 -134.5 -172t-207.5 -64zM396 763q-145 0 -242.5 -106t-97.5 -264q0 -159 97 -265t243 -106t243 106
t97 265q0 158 -97.5 264t-242.5 106z" />
    <glyph glyph-name="oe" unicode="&#x153;" horiz-adv-x="891" 
d="M861 217l-1 -15h-402q7 -76 58 -126.5t124 -50.5q93 0 143 41l22 -21q-60 -49 -165 -49q-69 0 -126.5 39.5t-75.5 104.5q-21 -65 -74 -104.5t-124 -39.5q-92 0 -151 64.5t-59 160.5q0 95 59.5 162t150.5 67q72 0 125.5 -43.5t74.5 -112.5q21 64 75 104t125 40
q90 0 164 -72v-1q57 -65 57 -136v-12zM640 408q-73 0 -124 -50.5t-58 -125.5h372q-7 75 -62 125.5t-128 50.5zM240 420q-79 0 -129.5 -58t-50.5 -141q0 -81 50.5 -138t129.5 -57q78 0 128.5 57t50.5 138q0 83 -50.5 141t-128.5 58z" />
    <glyph glyph-name="Ydieresis" unicode="&#x178;" 
d="M605 790l-265 -401v-389h-32v389l-265 401h37l244 -368l244 368h37zM201 832q-9 0 -16.5 7.5t-7.5 18.5t7 18.5t18 7.5t18.5 -7.5t7.5 -18.5t-8 -18.5t-19 -7.5zM440 832q-10 0 -17.5 8t-7.5 18q0 11 7.5 18.5t18.5 7.5t18.5 -7.5t7.5 -18.5t-8 -18.5t-19 -7.5z" />
    <glyph glyph-name="Zcaron" unicode="&#x17d;" horiz-adv-x="670" 
d="M611 790l-507 -765h490v-25h-542l508 765h-490v25h541zM227 932h28l86 -88l86 88h28l-105 -117h-19z" />
    <glyph glyph-name="zcaron" unicode="&#x17e;" horiz-adv-x="440" 
d="M382 442l-276 -416h259v-26h-316l277 416h-260v26h316zM107 612h28l86 -88l86 88h28l-106 -117h-19z" />
    <glyph glyph-name="Ygrave" unicode="&#x1ef2;" 
d="M605 790l-264 -401v-389h-33v389l-265 401h37l244 -368l244 368h37zM362 838l-15 -15l-81 67l42 28z" />
    <glyph glyph-name="ygrave" unicode="&#x1ef3;" horiz-adv-x="492" 
d="M100 448l155 -407l141 407h37l-231 -662h-36l73 209l-175 453h36zM272 538l-15 -15l-81 67l43 28z" />
    <glyph glyph-name="endash" unicode="&#x2013;" horiz-adv-x="473" 
d="M86 287v21h330v-21h-330z" />
    <glyph glyph-name="emdash" unicode="&#x2014;" horiz-adv-x="726" 
d="M76 287v21h580v-21h-580z" />
    <glyph glyph-name="quotedblleft" unicode="&#x201c;" horiz-adv-x="242" 
d="M82 671l-39 119h45l29 -119h-35zM175 671l-38 119h44l29 -119h-35z" />
    <glyph glyph-name="quotedblright" unicode="&#x201d;" horiz-adv-x="242" 
d="M130 790l-72 -119h-35l63 119h44zM223 790l-71 -119h-35l61 119h45z" />
    <glyph glyph-name="dagger" unicode="&#x2020;" horiz-adv-x="194" 
d="M88 382h-86v20h86v408h20v-408h94v-20h-94v-412h-20v412z" />
    <glyph glyph-name="daggerdbl" unicode="&#x2021;" horiz-adv-x="194" 
d="M88 282h-86v20h86v80h-86v20h86v408h20v-408h94v-20h-94v-80h94v-20h-94v-312h-20v312z" />
    <glyph glyph-name="bullet" unicode="&#x2022;" horiz-adv-x="139" 
d="M71 371q-13 0 -22.5 10t-9.5 23q0 15 9 25.5t23 10.5t23.5 -10t9.5 -26q0 -13 -10 -23t-23 -10z" />
    <glyph glyph-name="guilsinglleft" unicode="&#x2039;" horiz-adv-x="198" 
d="M149 130l-114 146v21l114 146v-34l-79 -123l79 -122v-34z" />
    <glyph glyph-name="guilsinglright" unicode="&#x203a;" horiz-adv-x="192" 
d="M155 276l-114 -146v34l79 122l-79 123v34l114 -146v-21z" />
    <glyph glyph-name="euro" unicode="&#x20ac;" horiz-adv-x="640" 
d="M134 327h-108l10 21h94q-4 20 -4 45q0 12 2 34h-72l10 21h65q20 99 98 163t179 64q35 0 83 -13.5t72 -32.5l-17 -23q-93 39 -137 39q-88 0 -157 -55.5t-89 -141.5h236l-10 -21h-230q-2 -22 -2 -34q0 -25 4 -45h208l-10 -21h-193q23 -83 90 -134.5t152 -51.5q50 0 138 39
l18 -25q-2 -1 -14.5 -6t-15.5 -6.5t-14.5 -6t-16 -6l-15 -5t-16 -5t-15 -4t-16.5 -3t-15.5 -1.5t-16.5 -1q-98 0 -175.5 60.5t-99.5 155.5z" />
    <glyph glyph-name="trademark" unicode="&#x2122;" horiz-adv-x="557" 
d="M233 723h-71v-211h-22v211h-72v19h165v-19zM460 742v-230h-21v181l-81 -132l-80 132v-181h-22v230h16l86 -141l86 141h16z" />
    <glyph glyph-name="arrowleft" unicode="&#x2190;" horiz-adv-x="506" 
d="M465 369h-345l141 -102v-39l-223 158l223 159v-39l-141 -103h345v-34z" />
    <glyph glyph-name="arrowup" unicode="&#x2191;" horiz-adv-x="414" 
d="M362 399h-39l-102 141v-345h-34v345l-103 -141h-39l159 223z" />
    <glyph glyph-name="arrowright" unicode="&#x2192;" horiz-adv-x="506" 
d="M462 386l-223 -158v39l141 102h-345v34h345l-141 103v39z" />
    <glyph glyph-name="arrowdown" unicode="&#x2193;" horiz-adv-x="414" 
d="M362 401l-158 -223l-159 223h39l103 -141v345h34v-345l102 141h39z" />
    <glyph glyph-name="arrowboth" unicode="&#x2194;" horiz-adv-x="800" 
d="M762 386l-224 -158v39l141 102h-558l141 -102v-39l-224 158l224 159v-39l-141 -103h558l-141 103v39z" />
    <glyph glyph-name="arrowupdn" unicode="&#x2195;" horiz-adv-x="437" 
d="M372 262l-158 -224l-159 224h39l103 -141v558l-103 -141h-39l159 224l158 -224h-39l-102 141v-558l102 141h39z" />
    <glyph glyph-name="uni2196" unicode="&#x2196;" horiz-adv-x="414" 
d="M369 254l-25 -24l-243 242l27 -171l-28 -28l-44 270l269 -46l-28 -28l-171 28z" />
    <glyph glyph-name="uni2197" unicode="&#x2197;" horiz-adv-x="414" 
d="M363 544l-46 -269l-28 28l28 171l-243 -243l-24 25l242 243l-171 -27l-28 28z" />
    <glyph glyph-name="uni2198" unicode="&#x2198;" horiz-adv-x="414" 
d="M369 546l-243 -243l171 28l28 -28l-269 -46l44 270l28 -28l-27 -171l243 242z" />
    <glyph glyph-name="uni2199" unicode="&#x2199;" horiz-adv-x="414" 
d="M363 256l-270 44l28 28l171 -27l-242 243l24 25l243 -243l-28 171l28 28z" />
    <glyph glyph-name="minus" unicode="&#x2212;" horiz-adv-x="327" 
d="M276 286h-233v20h233v-20z" />
    <glyph glyph-name="s_t" unicode="&#xfb06;" horiz-adv-x="662" 
d="M338 379l-25 -16q-42 62 -116 62q-47 0 -79.5 -25t-32.5 -70q0 -36 26.5 -56.5t64.5 -28.5t76 -18t64.5 -36t26.5 -71q0 -58 -40.5 -91.5t-99.5 -33.5q-95 0 -148 70l26 17q42 -57 123 -57q46 0 77.5 25t31.5 70q0 36 -26.5 56t-64.5 28.5t-75.5 18t-64 36t-26.5 71.5
q0 58 40.5 92t99.5 34q66 0 112 -42q-2 12 -2 37q0 58 40.5 92.5t99.5 34.5q19 0 61 -2v-129h113v-22h-113v-425h-32v425h-66v22h66v113h-35q-46 0 -80 -30t-34 -75q0 -52 12 -76z" />
    <glyph glyph-name="_248" horiz-adv-x="517" 
d="M113 726v1q69 69 153 69t144.5 -61.5t61.5 -146.5q0 -62 -35 -114.5t-97 -81.5q62 -23 97.5 -78t35.5 -116q0 -80 -54 -139v-1q-68 -68 -153 -68q-84 0 -144.5 61.5t-61.5 146.5q0 61 35.5 113.5t97.5 81.5q-62 23 -97.5 78t-35.5 117q0 79 53 138zM266 767
q-74 0 -126 -52.5t-52 -126.5q1 -82 52.5 -131.5t131.5 -49.5q72 0 122.5 53.5t50.5 127.5q-1 74 -53 126.5t-126 52.5zM266 379q-73 0 -125.5 -53.5t-52.5 -127.5t52.5 -127t125.5 -53q74 0 126.5 53t52.5 127q-1 78 -51.5 129.5t-127.5 51.5z" />
    <glyph glyph-name="_240" horiz-adv-x="228" 
 />
    <glyph glyph-name="c_t" horiz-adv-x="716" 
d="M376 412q-1 9 -1 28v11q0 58 41 92.5t100 34.5q19 0 61 -2v-129h113v-22h-113v-425h-32v425h-66v22h66v113h-35q-46 0 -80 -30t-34 -75q0 -58 16 -81l-29 -12q-59 57 -135 57q-79 0 -130.5 -58.5t-51.5 -138.5t51.5 -138t130.5 -58q39 0 80.5 18t61.5 48l22 -21
q-57 -75 -164 -75q-92 0 -152.5 66.5t-60.5 159.5q0 94 60 160.5t153 66.5q78 0 128 -37z" />
    <glyph glyph-name="_230" horiz-adv-x="561" 
 />
  </font>
</defs>
</svg>
